<?xml version="1.0" standalone="no"?>
<!DOCTYPE svg PUBLIC "-//W3C//DTD SVG 1.1//EN" "http://www.w3.org/Graphics/SVG/1.1/DTD/svg11.dtd">
<svg xmlns="http://www.w3.org/2000/svg">
<metadata>Copyright (C) 2021 by original authors @ fontello.com</metadata>
<defs>
<font id="jco-iconly-icon" horiz-adv-x="1000" >
<font-face font-family="jco-iconly-icon" font-weight="400" font-stretch="normal" units-per-em="1000" ascent="850" descent="-150" />
<missing-glyph horiz-adv-x="1000" />
<glyph glyph-name="iconly-arrow-down-2-light" unicode="&#xe91e;" d="M813 517c-13 12-34 12-46 0l-267-267-271 267c-12 12-29 12-41 0s-13-29 0-42l291-292c4-4 13-8 21-8s17 4 21 8l292 292c12 13 12 29 0 42z" horiz-adv-x="1000" />

<glyph glyph-name="iconly-arrow-left-2-light" unicode="&#xe91f;" d="M400 350l267 271c12 12 12 33 0 46s-34 12-46 0l-292-292c-12-12-12-33 0-46l292-291c4-5 12-9 21-9s16 4 21 9c12 12 12 33 0 45l-263 267z" horiz-adv-x="1000" />

<glyph glyph-name="iconly-arrow-left-3-light" unicode="&#xe920;" d="M846 371h-342v175c0 12-4 21-16 29-9 4-21 4-34 0l-329-208c-8-4-17-17-17-25s5-21 17-25l329-209c4-8 13-8 17-8 4 0 8 0 17 4 8 4 16 17 16 29v175h342c17 0 33 13 33 34s-16 29-33 29z m-404-183l-242 150 242 150v-300z" horiz-adv-x="1000" />

<glyph glyph-name="iconly-2user-broken" unicode="&#xe921;" d="M667 429c-17 0-34-12-34-29 0-17 13-29 34-29 91 0 166 75 166 167 0 91-75 166-166 166-17 0-34-12-34-29s13-29 34-29c58 0 104-46 104-104s-46-113-104-113z m-450 71c16 0 33 17 33 33 0 84 67 150 150 150 83 0 150-66 150-150s-67-150-150-150c-33 0-67 13-92 34-12 12-33 8-45-4-13-13-9-34 4-42 37-29 83-46 133-46 117 0 213 96 213 213 0 116-96 212-213 212-117 0-212-96-212-212 0-21 12-38 29-38z m183-250c-79 0-317 0-317-150 0-33 13-79 75-108 21-9 42-17 71-21 17-4 34 8 38 25 4 17-9 33-25 37-21 5-42 13-54 17-38 17-42 38-42 54 0 71 137 88 254 88 167 0 254-29 254-84 0-70-137-87-254-87-17 0-29-13-29-29 0-17 12-30 29-30 79 0 317 0 317 151 0 120-179 137-317 137z m508-46c-16 34-50 54-104 63-25 4-46 8-71 8-16 0-33-12-33-29 0-17 13-33 29-33 21 0 42-5 63-9 33-4 54-16 58-29 4-8 4-21 0-29-4-13-29-21-58-29-17-4-29-21-25-38 4-16 16-25 29-25 4 0 4 0 8 0 54 13 88 34 104 63 13 33 13 62 0 87z" horiz-adv-x="1000" />

<glyph glyph-name="iconly-2user-light" unicode="&#xe922;" d="M667 425c-17 0-34-12-34-33s13-34 34-34c91 0 166 75 166 167 0 92-75 167-166 167-17 0-34-13-34-34s13-33 34-33c58 0 104-46 104-104 4-46-46-96-104-96z m241-221c-16 34-50 54-104 63-25 4-50 8-71 8-16 0-33-12-33-29 0-17 13-33 29-33 21 0 42-5 63-9 33-8 54-16 58-29 4-8 4-21 0-29-4-4-12-21-58-29-17-4-29-21-25-38 4-16 16-25 29-25 4 0 4 0 8 0 54 13 88 34 104 63 13 29 13 58 0 87z m-508 42c-79 0-317 0-317-150 0-134 180-146 317-146 79 0 317 0 317 150 0 146-238 146-317 146z m0-233c-167 0-254 29-254 83 0 71 137 87 254 87 167 0 254-29 254-83 0-71-137-87-254-87z m0 304c117 0 213 96 213 212 0 117-96 213-213 213-117 0-212-96-212-213 0-116 95-212 212-212z m0 366c83 0 150-66 150-150 0-83-67-150-150-150-83 0-150 67-150 150 0 84 67 150 150 150z" horiz-adv-x="1000" />

<glyph glyph-name="iconly-3user-broken" unicode="&#xe923;" d="M738 421c-17 0-30-13-30-29 0-17 13-29 30-29 83 0 150 66 150 150 0 83-67 150-150 150-17 0-30-13-30-30 0-16 13-29 30-29 50 0 91-41 91-91s-41-92-91-92z m-475-58c16 0 29 12 29 29 0 16-13 29-29 29-50 0-92 42-92 92 0 50 42 91 92 91 16 4 29 17 29 34s-13 29-29 29c-84 0-150-67-150-150s66-154 150-154z m75 120c16 0 29 13 29 30 0 75 58 133 133 133s133-58 133-133c0-75-58-134-133-134-29 0-58 9-83 29-13 9-29 9-42-4-8-12-8-29 4-41 34-25 75-42 117-42 104 0 192 87 192 192 0 104-84 191-192 191-104 0-192-87-192-191 4-17 17-30 34-30z m612-262c-12 29-46 46-92 58-20 4-41 9-62 9-17 0-29-13-29-25 0-17 12-30 25-30 16 0 37-4 54-8 29-4 46-17 50-25 4-8 4-17 0-25-4-4-13-17-50-25-17-4-25-17-21-33 4-13 17-25 29-25 0 0 4 0 4 0 46 8 80 29 92 58 13 21 13 46 0 71z m-796 0c17 4 38 8 54 8 17 0 30 17 25 29 0 17-16 30-29 25-21 0-41-4-62-8-46-8-79-29-92-58-12-25-12-50 0-75 13-29 46-46 92-59 0 0 4 0 4 0 12 0 25 9 29 25 4 17-8 30-21 34-37 8-50 21-50 25-4 8-4 16 0 25 4 16 21 25 50 29z m346 42c-71 0-279 0-279-134 0-29 12-71 67-100 16-8 37-16 62-21 17-4 29 9 33 21 5 17-8 29-20 34-21 4-38 8-50 16-34 17-38 34-38 46 0 63 121 75 225 75 150 0 225-25 225-75 0-62-121-75-225-75-17 0-29-12-29-29 0-17 12-29 29-29 71 0 279 0 279 133 0 138-204 138-279 138z" horiz-adv-x="1000" />

<glyph glyph-name="iconly-3user-light" unicode="&#xe924;" d="M733 425c-16 0-33-12-33-33s13-34 33-34c84 0 155 67 155 155s-67 154-155 154c-16 0-33-13-33-34s13-33 33-33c50 0 92-42 92-92s-42-83-92-83z m213-196c-13 29-46 50-92 59-21 4-41 8-62 8-17 0-34-13-34-29 0-17 13-34 30-34 16 0 37-4 54-8 25-4 46-12 50-25 4-8 4-17 0-21 0-4-9-16-50-25-17-4-29-21-25-37 4-17 16-25 29-25 0 0 4 0 8 0 50 8 79 29 92 58 12 25 12 54 0 79z m-683 134c16 0 33 12 33 33s-13 33-33 33c-50 0-92 42-92 92s42 92 92 92c16-9 29 8 29 25s-13 29-29 29c-84 0-155-67-155-150s71-154 155-154z m-109-138c17 4 38 8 54 8 17 0 30 17 30 34s-17 29-34 29c-21 0-41-4-62-8-50-9-79-30-92-59-12-25-12-50 0-75 13-29 46-50 92-58 4 0 4 0 8 0 13 0 29 8 29 25 4 17-8 33-25 37-37 9-46 21-50 25-4 9-4 17 0 21 4 4 21 17 50 21z m342 42c-71 0-283 0-283-134 0-133 212-133 283-133s283 0 283 133c0 134-212 134-283 134z m0-204c-100 0-221 12-221 70 0 59 121 71 221 71s221-12 221-71c0-58-121-70-221-70z m0 258c104 0 192 87 192 192 0 104-88 191-192 191s-192-83-192-187c0-109 88-196 192-196z m0 325c75 0 129-58 129-129 0-71-58-129-129-129s-129 54-129 129c0 71 58 129 129 129z" horiz-adv-x="1000" />

<glyph glyph-name="iconly-activity-bold" unicode="&#xe925;" d="M817 767c-54 0-100-46-100-100 0-54 46-100 100-100 54 0 100 46 100 100 0 54-46 100-100 100z m-175-104c0 12 0 20 4 33h-333c-146-4-230-88-230-229v-309c0-141 84-225 225-225h309c141 0 225 84 225 225v338c-13 0-21-4-29-4-96 0-171 75-171 171z m33-271l-121-154c-8-13-25-17-41-9l-5 4-116 88-104-138c-5-8-17-12-25-12-9 0-13 4-21 4-13 8-17 25-9 42l5 4 125 162c4 5 12 9 20 9 9 0 17 0 25-9l117-91 100 129c8 8 17 12 29 12 13 0 21-8 25-16 4-9 0-17-4-25l0 0z" horiz-adv-x="1000" />

<glyph glyph-name="iconly-2user-bold" unicode="&#xe926;" d="M388 329c112 0 204 88 204 200 0 109-92 196-204 196-109 0-200-87-200-200 0-108 91-196 200-196z m287 196c0-54-17-108-46-150-4-4 0-12 4-12 9 0 17 0 25-5 80 0 150 46 171 125 29 113-54 213-166 213-13 0-25 0-34-4 0 0-4 0-4-4 0 0 0-5 0-5 29-45 50-100 50-158z m-287-296c-167 0-305-25-305-129 0-100 142-125 305-125 166 0 304 25 304 129 4 100-138 125-304 125z m520-12c-12 29-50 50-104 62-25 4-91 13-154 13 0 0 0 0 0 0 0 0 0 0 0-4 29-13 142-75 129-205 0-4 4-12 9-8 29 4 100 21 120 67 13 21 13 50 0 75z" horiz-adv-x="1000" />

<glyph glyph-name="iconly-3user-bold" unicode="&#xe927;" d="M496 329c96 0 175 79 175 175 0 100-79 175-175 175-96 4-175-75-175-171 0-100 79-179 175-179z m-229 29c8 0 12 0 21 0 4 0 8 5 4 9-25 37-42 83-42 133 0 54 17 100 46 142 0 0 0 4 0 4 0 0-4 0-4 0-9 0-21 4-29 4-96 0-167-87-142-187 17-63 79-109 146-105z m483 146c0-50-17-96-42-133-4-4 0-8 5-8 8 0 12 0 20 0 67 0 130 41 146 108 25 100-50 187-141 187-9 0-21 0-30-4 0 0-4 0-4 0 0 0 0-4 0-4 29-46 46-96 46-146z m-475-208c0 0 0 0 0 0 0 4 0 4 0 0-54 4-112-4-133-8-46-9-75-30-88-55-12-20-12-45 0-70 21-42 79-55 104-59 5 0 9 4 9 9-17 116 83 170 108 183z m675-63c-12 25-42 46-87 55-21 4-80 12-134 12 0 0 0 0 0 0 0 0 0 0 0 0 25-12 121-67 113-183 0-4 4-9 8-9 25 5 88 17 104 59 9 16 9 46-4 66z m-454 13c-142 0-267-25-267-113 0-91 121-112 267-112 146 0 267 25 267 112 0 88-121 113-267 113z" horiz-adv-x="1000" />

<glyph glyph-name="iconly-activity-broken" unicode="&#xe928;" d="M558 250c9 0 17 4 21 13l117 150c8 12 4 29-8 37-13 8-30 8-42 0l-100-125-113 88c-8 4-16 8-20 4-9 0-17-4-21-13l-121-158c-8-13-8-33 4-42 8-4 17-8 21-4s17 4 21 13l100 133 112-88c13-4 21-8 29-8z m-225-254c-120 0-187 67-187 187v300c0 121 67 188 187 188h271c9 0 17 4 21 8 4 4 8 13 8 21 0 17-12 29-29 29h-271c-154 0-250-96-250-250v-296c0-154 96-250 250-250 17 0 30 13 30 29 4 17-13 34-30 34z m550 737c-29 30-79 42-116 25-42-16-67-58-67-100 0-58 50-108 108-108 46 0 84 25 100 67 17 41 9 87-25 116z m-75-120c-25 0-45 20-45 45 0 25 20 46 45 46 25 0 46-21 46-46 0-25-21-45-46-45z m50-130c-16 0-29-12-29-29v-271c0-120-66-187-191-187h-125c-17 0-30-13-30-29 0-17 13-30 30-30h125c154 0 250 96 250 251v266c0 17-13 29-30 29z" horiz-adv-x="1000" />

<glyph glyph-name="iconly-arrow-left-light" unicode="&#xe929;" d="M804 371h-550l200 196c13 12 13 33 0 46-12 12-33 12-46 0l-250-250c-4-5-4-9-8-9 0-4 0-8 0-8 0 0 0 0 0 0 0 0 0 0 0 0s0 0 0 0c0-4 0-8 4-13 0-4 4-8 9-8 0 0 0 0 0 0l250-250c0-17 8-17 16-17 9 0 17 5 21 9 13 12 13 33 0 46l-196 195h550c17 0 34 13 34 34s-17 29-34 29z" horiz-adv-x="1000" />

<glyph glyph-name="iconly-add-user-broken" unicode="&#xe92b;" d="M413 321c120 0 220 100 220 225 0 125-100 225-220 225-121-4-221-104-221-229 0-121 100-221 221-221z m0 387c91 0 162-75 162-162 0-92-75-163-162-163-88-4-163 71-163 159 0 91 75 166 163 166z m475-275h-55v50c0 17-16 34-33 34-17 0-29-13-29-34v-50h-54c-17 0-29-12-29-33s12-33 29-33h54v-54c0-17 12-34 29-34 17 0 29 13 29 34v54h54c17 0 30 12 30 33s-9 33-25 33z m-475-191c-142 0-330-17-330-154 0-42 21-96 109-130 16-4 33 4 37 21 4 17-4 34-16 38-63 21-71 50-71 71 0 62 91 91 271 91s270-33 270-96c0-62-91-91-270-91-13 0-30 0-42 0-17 0-29-13-29-30 0-16 12-29 29-29 12 0 29 0 42 0 141 0 329 17 329 155 0 154-246 154-329 154z" horiz-adv-x="1000" />

<glyph glyph-name="iconly-activity-light" unicode="&#xe92c;" d="M446 421c-8 4-17 8-25 8-8 0-17-4-21-12l-125-163c-12-12-8-33 4-46 4-4 13-8 21-8 8 0 17 4 25 13l104 137 117-92c8-4 17-8 25-8 8 0 17 4 21 13l121 158c12 12 8 33-5 46-12 12-33 8-41-4l-104-134-117 92z m387 142c63 0 113 50 113 112s-50 113-113 113-112-50-112-113 50-112 112-112z m0 162c25 0 50-21 50-50s-25-50-50-50-50 21-50 50 21 50 50 50z m46-233c-16 0-33-13-33-34v-291c0-113-67-184-171-184h-354c-104 0-171 71-171 184v337c0 113 67 184 171 184h304c17 0 33 12 33 33s-12 33-33 33h-304c-142-4-238-100-238-250v-337c0-146 96-246 234-246h358c142 0 233 100 233 246v291c5 21-8 34-29 34z" horiz-adv-x="1000" />

<glyph glyph-name="iconly-add-user-light" unicode="&#xe92d;" d="M413 246c-142 0-330-17-330-154 0-155 246-155 330-155 141 0 329 17 329 155 0 154-250 154-329 154z m0-242c-175 0-267 29-267 92 0 58 87 92 267 92 175 0 266-30 266-92 0-63-91-92-266-92z m0 321c120 0 220 100 220 221s-100 221-220 221-221-100-221-221 96-221 221-221z m0 379c87 0 158-71 158-158s-71-158-158-158-159 70-159 158 71 158 159 158z m475-266h-55v50c0 16-12 33-33 33s-33-13-33-33v-55h-54c-17 0-34-12-34-33s13-33 34-33h54v-54c0-17 12-30 33-30s33 13 33 30v54h55c16 0 33 12 33 33s-17 38-33 38z" horiz-adv-x="1000" />

<glyph glyph-name="iconly-arrow-down-2-bold" unicode="&#xe92e;" d="M708 533c-12 9-54 13-54 13-37 8-91 12-154 12-67 0-125-4-158-8 0 0-34-8-46-12-17-9-29-17-38-34-4-12-8-25-8-37 0-13 8-38 13-50 25-67 112-192 166-242 9-8 21-17 21-21 13-8 29-16 46-16 17 0 33 4 46 12 8 4 25 21 25 21 54 50 137 175 166 237 0 0 17 38 17 55v8c0 25-17 50-42 62z" horiz-adv-x="1000" />

<glyph glyph-name="iconly-arrow-down-3-bold" unicode="&#xe92f;" d="M725 346c-4 8-17 17-25 17h-171v333c0 17-12 29-29 29-17 0-29-12-29-29v-333h-171c-12 0-21-5-25-17-4-8-4-21 0-29l200-325c4-9 17-13 25-13 8 0 21 4 25 13l200 325c4 4 4 12 4 16 0 0 0 5-4 13z" horiz-adv-x="1000" />

<glyph glyph-name="iconly-arrow-down-circle-bold" unicode="&#xe930;" d="M500 767c-229 0-417-188-417-417 0-229 188-417 417-417 229 0 417 188 417 417 0 229-188 417-417 417z m167-379l-146-146c-4-4-13-9-21-9-8 0-17 5-21 9l-146 146c-12 12-12 33 0 45 13 13 34 13 46 0l121-125 121 125c12 13 33 13 46 0 4-8 8-12 8-20 0-9 0-17-8-25z" horiz-adv-x="1000" />

<glyph glyph-name="iconly-arrow-down-square-bold" unicode="&#xe931;" d="M679 767h-358c-142 0-238-100-238-246v-342c0-146 96-246 238-246h362c142 0 238 100 238 246v342c-4 146-100 246-242 246z m0-454l-158-159c-13-12-33-12-46 0l-158 159c-13 12-13 33 0 45 4 5 12 9 21 9 8 0 16-4 20-9l105-104v267c0 17 12 33 33 33 17 0 33-12 33-33v-263l104 105c13 12 34 12 46 0 13-17 13-38 0-50z" horiz-adv-x="1000" />

<glyph glyph-name="iconly-arrow-down-bold" unicode="&#xe932;" d="M500 458c29 0 50 21 50 50l13 155c0 33-30 62-63 62s-62-29-62-62l12-155c0-29 21-50 50-50z m208-83c-12 4-37 13-50 13-4 0-8 0-8 0-37 4-92 8-154 8-63 0-121-4-158-8 0 0-34-9-46-13-17-8-29-17-38-33 0-9-4-21-4-38 0-12 8-41 13-50 25-66 112-196 166-246 4-4 13-12 17-16 4-5 4-5 4-5 13-8 29-16 46-16 17 0 33 4 46 12 8 4 25 21 25 21 54 50 137 175 166 242 0 0 17 37 17 54v8c0 30-17 55-42 67z" horiz-adv-x="1000" />

<glyph glyph-name="iconly-arrow-left-2-bold" unicode="&#xe933;" d="M700 508c0 0-8 34-12 46-9 17-17 29-34 38-12 4-25 8-37 8-13 0-38-8-50-12-67-30-192-117-242-171-8-9-17-21-21-21-8-13-12-29-12-46 0-17 4-33 12-46 4-8 21-25 21-25 50-54 175-137 238-166 0 0 37-17 54-17h4c29 0 54 17 67 42 8 12 12 54 12 54 4 37 8 91 8 154 0 71-4 129-8 162z" horiz-adv-x="1000" />

<glyph glyph-name="iconly-arrow-left-circle-bold" unicode="&#xe934;" d="M513 767l-13 0c-229 0-417-188-417-417 0-229 188-417 417-417 229 0 417 188 417 417 0 225-179 408-404 417z m70-538c13-12 13-33 0-46-4-8-12-8-20-8-9 0-17 4-21 8l-146 146c-4 4-8 13-8 21s4 17 8 21l142 146c12 12 33 12 45 0 13-13 13-34 0-46l-125-121 125-121z" horiz-adv-x="1000" />

<glyph glyph-name="iconly-arrow-left-square-bold" unicode="&#xe935;" d="M671 767h-342c-146 0-246-96-246-238v-362c0-138 100-234 246-234h342c146 0 246 96 246 238v358c0 142-100 238-246 238z m0-450h-267l104-104c13-13 13-34 0-46-12-13-33-13-45 0l-159 158c-12 13-12 33 0 46l159 158c12 13 33 13 45 0 5-8 9-12 9-21 0-8-4-16-9-20l-104-105h267c17 0 33-12 33-33-4-17-16-33-33-33z" horiz-adv-x="1000" />

<glyph glyph-name="iconly-arrow-left-bold" unicode="&#xe936;" d="M813 413l-155-13c-29 0-50-21-50-50 0-29 21-50 50-50l155-12c33 0 62 29 62 62s-29 63-62 63z m-275 95c0 0-9 34-13 46-8 17-17 29-33 38-9 4-21 8-38 8-8 0-29-4-41-8l-9-4c-66-30-196-117-241-171l-5-4-16-17c-13-13-17-29-17-46 0-17 4-33 13-46 4-4 8-8 12-12l17-17c54-54 171-133 233-158 0 0 38-17 54-17h4c30 0 55 17 67 42 4 8 8 21 8 33l5 21c4 37 8 92 8 154l0 17c4 58 0 108-8 141z" horiz-adv-x="1000" />

<glyph glyph-name="iconly-arrow-left-3-bold" unicode="&#xe937;" d="M846 379h-333v171c0 13-5 21-17 25-8 4-21 4-29 0l-325-200c-13-4-17-17-17-25 0-8 4-21 13-25l325-200c4-4 12-4 16-4 4 0 9 0 17 4 8 4 17 17 17 25v171h333c17 0 29 12 29 29 0 17-12 29-29 29z" horiz-adv-x="1000" />

<glyph glyph-name="iconly-arrow-left-3-broken" unicode="&#xe938;" d="M846 379h-333v171c0 13-5 21-17 25-8 4-21 4-29 0l-325-200c-13-4-17-17-17-25s4-21 13-25l200-125c12-8 33-4 41 8 9 13 4 34-8 42l-158 100 237 146v-346c0-17 13-29 29-29 17 0 29 12 29 29v171h334c16 0 29 12 29 29 4 17-8 29-25 29z" horiz-adv-x="1000" />

<glyph glyph-name="iconly-arrow-left-2-broken" unicode="&#xe939;" d="M471 425l0 0 208 200c13 13 13 33 0 50-12 13-33 13-46 4l-4-4-204-200c-8-8-8-17-8-25 0-8 4-17 8-25 13-12 33-12 46 0z m208-350l-304 300c-12 13-37 13-50 0-8-8-8-17-8-25 0-8 4-17 8-21l4-4 304-300c13-12 38-12 50 0 9 13 9 33-4 50l0 0z" horiz-adv-x="1000" />

<glyph glyph-name="iconly-arrow-left-circle-broken" unicode="&#xe93a;" d="M913 413c-5 16-17 29-34 25-16-5-29-17-25-34 4-16 4-37 4-54 0-196-158-354-354-354-196 0-354 158-354 354 0 196 158 354 354 354 113 0 213-50 284-137 8-13 29-17 41-4 13 8 17 29 4 41-83 104-204 163-333 163-229 0-417-188-417-417s188-417 417-417c229 0 417 188 417 417 0 21 0 42-4 63z m-330 104c-12 12-33 12-45 0l-146-146c-4-4-9-13-9-21 0-8 5-17 9-21l146-146c12-12 33-12 45 0 13 13 13 34 0 46l-125 121 125 121c13 12 13 33 0 46z" horiz-adv-x="1000" />

<glyph glyph-name="iconly-arrow-left-square-broken" unicode="&#xe93b;" d="M700 350c0 17-12 33-33 33h-263l104 105c13 12 13 33 0 45-12 13-33 13-45 0l-159-154c0 0 0 0 0 0-4-4-4-8-8-8 0-4-4-8-4-13v0c0 0 0 0 0 0 0 0 0 0 0 0 0-4 0-8 4-12 0-4 4-8 4-8 0 0 0 0 0 0 0 0 0 0 0 0 4-5 8-5 8-9 5 0 9-4 13-4h342c25-8 37 8 37 25z m183 17c17 0 34 12 34 33v104c0 163-100 263-259 263h-312c-163 0-263-100-263-263v-312c0-159 100-259 263-259h312c163 0 259 100 259 259 0 16-13 33-34 33s-33-12-33-33c0-125-71-196-196-196h-308c-125 0-196 71-196 196v312c0 125 71 196 196 196h312c125 0 196-71 196-196v-104 0c0-17 13-33 29-33l0 0 0 0z m-470-96c-13-13-13-33 0-46l54-54c4-4 12-8 21-8 8 0 16 4 20 8 13 12 13 33 0 46l-54 54c-12 12-29 12-41 0z" horiz-adv-x="1000" />

<glyph glyph-name="iconly-arrow-left-broken" unicode="&#xe93c;" d="M308 250l0 0c-16 13-37 13-50 0-8-8-8-17-8-25 0-8 4-17 8-25l150-154 5-4c12-9 33-9 45 4 13 12 13 37 0 50l-150 154z m534 133h-600l216 221 5 4c8 13 8 34-5 46-12 13-33 13-50 0l-275-279-4-4c0-4-4-13-4-21 0-4 0-8 4-12 4-13 17-21 34-21h683l4 0c17 4 29 16 29 33-4 21-21 33-37 33z" horiz-adv-x="1000" />

<glyph glyph-name="iconly-arrow-down-2-broken" unicode="&#xe93d;" d="M825 529c-12 13-33 13-50 0l-200-204c-12-12-12-37 0-50 8-8 17-8 25-8 8 0 17 4 25 8l200 204c13 13 13 34 0 50z m-600 0c-12 13-33 13-50 0-12-12-12-37 0-50l300-304c8-8 17-8 25-8 8 0 17 4 25 8 13 13 13 38 0 50l-300 304z" horiz-adv-x="1000" />

<glyph glyph-name="iconly-arrow-down-3-broken" unicode="&#xe93e;" d="M700 358h-171v334c0 21-12 33-29 33-17 0-29-12-29-29v-333h-171c-12 0-21-5-25-17-4-8-4-21 0-29l200-325c4-9 17-13 25-13s21 4 25 13l125 200c8 12 4 33-8 41-13 9-34 5-42-8l-100-162-146 237h346c17 0 29 13 29 29 0 17-12 29-29 29z" horiz-adv-x="1000" />

<glyph glyph-name="iconly-arrow-down-circle-broken" unicode="&#xe93f;" d="M479 242c4-4 13-9 21-9 8 0 17 5 21 9l146 146c12 12 12 33 0 45-13 13-34 13-46 0l-121-125-121 125c-12 13-33 13-46 0s-12-33 0-45l146-146z m21 525c-21 0-42 0-62-4-17-5-30-17-25-34 4-16 16-29 33-25 17 4 37 4 54 4 196 0 354-158 354-354s-158-354-354-354c-196 0-354 158-354 354 0 113 50 213 137 284 13 8 17 29 5 41-9 13-30 17-42 4-104-83-163-204-163-333 0-229 188-417 417-417 229 0 417 188 417 417s-188 417-417 417z" horiz-adv-x="1000" />

<glyph glyph-name="iconly-arrow-down-square-broken" unicode="&#xe940;" d="M658 767c-20 0-33-13-33-34s13-33 33-33c125 0 196-71 196-196v-312c0-125-71-196-196-196h-312c-125 0-196 71-196 196v316c0 125 71 196 196 196h104 0c17 0 33 13 33 34h0v0c0 16-12 33-33 33h-104c-163-4-263-104-263-263v-312c0-163 100-263 263-263h312c163 0 259 100 259 263v312c0 159-100 259-259 259z m-33-504l54 54c4 4 9 12 9 21 0 8-5 16-9 20-12 13-33 13-46 0l-54-54c-12-12-12-33 0-46 13-8 34-8 46 5z m-158 258v-267l-104 104c-13 13-34 13-46 0-13-12-13-33 0-45l154-159c0 0 0 0 0 0 4-4 8-4 8-8 4 0 9-4 13-4h0c0 0 0 0 0 0 0 0 0 0 0 0 4 0 8 0 12 4 4 0 9 4 9 4 0 0 0 0 0 0 0 0 0 0 0 0 4 4 4 8 8 8 0 5 4 9 4 13v350c0 17-12 33-33 33s-25-16-25-33z" horiz-adv-x="1000" />

<glyph glyph-name="iconly-arrow-down-broken" unicode="&#xe941;" d="M479 725c-21 0-33-17-33-33v-600l-221 216c-12 13-33 13-50 0-12-12-12-33 0-50l279-275c9-8 17-8 25-8 4 0 9 0 13 4 12 4 21 17 21 34v679c0 16-13 33-34 33z m304-417c-12 13-37 13-50 0l-154-150c-12-12-12-33 0-50 9-8 17-8 25-8 9 0 17 4 25 8l154 150c13 17 13 38 0 50z" horiz-adv-x="1000" />

<glyph glyph-name="iconly-arrow-down-square-light" unicode="&#xe942;" d="M679 767h-358c-142 0-238-100-238-246v-342c0-146 96-246 238-246h362c142 0 238 100 238 246v342c-4 146-100 246-242 246z m175-588c0-112-66-183-175-183h-358c-104 0-175 71-175 183v342c0 112 67 183 175 183h362c105 0 175-71 175-183v-342z m-221 179l-104-104v267c0 17-12 33-33 33s-33-12-33-33v-267l-105 104c-12 13-33 13-45 0-13-12-13-33 0-45l154-159c0 0 0 0 0 0 4-4 8-4 8-8 4 0 8-4 13-4s8 0 12 4c4 0 8 4 8 8 0 0 0 0 0 0l155 159c12 12 12 33 0 45 4 13-17 13-30 0z" horiz-adv-x="1000" />

<glyph glyph-name="iconly-arrow-down-circle-light" unicode="&#xe943;" d="M500 767c-229 0-417-188-417-417 0-229 188-417 417-417 229 0 417 188 417 417 0 229-188 417-417 417z m0-771c-196 0-354 158-354 354 0 196 158 354 354 354 196 0 354-158 354-354 0-196-158-354-354-354z m121 437l-121-125-121 125c-12 13-33 13-46 0-12-12-12-33 0-45l146-146c4-4 13-9 21-9 8 0 17 5 21 9l146 146c12 12 12 33 0 45-13 13-34 13-46 0z" horiz-adv-x="1000" />

<glyph glyph-name="iconly-arrow-left-circle-light" unicode="&#xe944;" d="M500 767c-229 0-417-188-417-417 0-229 188-417 417-417 229 0 417 188 417 417 0 229-188 417-417 417z m0-771c-196 0-354 158-354 354 0 196 158 354 354 354 196 0 354-158 354-354 0-196-158-354-354-354z m83 521c-12 12-33 12-45 0l-146-146c-4-4-9-13-9-21 0-8 5-17 9-21l146-146c4-4 12-8 20-8 9 0 17 4 21 8 13 13 13 34 0 46l-121 121 125 121c13 12 13 33 0 46z" horiz-adv-x="1000" />

<glyph glyph-name="iconly-arrow-left-square-light" unicode="&#xe945;" d="M671 767h-342c-146 0-246-96-246-238v-362c0-138 100-234 246-234h342c146 0 246 96 246 238v358c0 142-100 238-246 238z m183-596c0-104-71-175-183-175h-342c-112 0-183 67-183 175v358c0 104 71 175 183 175h342c112 0 183-66 183-175v-358z m-183 208h-267l104 104c13 13 13 34 0 46-12 13-33 13-45 0l-159-154c0 0 0 0 0 0-4-4-4-4-4-8 0-4-4-9-4-13s0-8 4-12c0-4 4-4 4-9 0 0 0 0 0 0l159-154c4-4 12-8 20-8 9 0 17 4 21 8 13 13 13 34 0 46l-104 104h267c16 0 33 13 33 34s-12 16-29 16z" horiz-adv-x="1000" />

<glyph glyph-name="iconly-arrow-down-3-light" unicode="&#xe946;" d="M746 338c-4 8-17 16-29 16h-175v338c0 21-13 33-29 33s-34-12-34-33v-342h-175c-12 0-21-4-29-17s-4-20 0-33l208-329c5-9 17-17 25-17s21 4 25 17l209 329c8 13 8 25 4 38z m-233-288l-150 242h304l-154-242z" horiz-adv-x="1000" />

<glyph glyph-name="iconly-arrow-down-light" unicode="&#xe947;" d="M783 300c-12 13-33 13-45 0l-196-196v546c0 21-13 33-29 33s-34-12-34-33v-550l-196 200c-12 13-33 13-45 0-13-12-13-33 0-46l250-250c4-4 8-4 8-8 4 0 8 0 12-4 0 0 0 0 0 0 0 0 0 0 0 0s0 0 0 0c5 0 9 0 13 4 4 0 8 4 8 8 0 0 0 0 0 0l250 250c17 17 17 34 4 46z" horiz-adv-x="1000" />

<glyph glyph-name="iconly-calendar-light" unicode="&#xe948;" d="M688 325l0 0c-17 0-34-12-34-33s13-34 34-34 33 13 33 34-17 33-33 33z m-188 0l0 0c-17 0-33-12-33-33s12-34 33-34 33 13 33 34-16 33-33 33z m-183 0l0 0c-17 0-34-12-34-33s13-34 34-34 33 13 33 34-17 33-33 33z m371-158l0 0c-17 0-34-13-34-34s13-33 34-33 33 13 33 33-17 34-33 34z m-188 0l0 0c-17 0-33-13-33-34s12-33 33-33 33 13 33 33-16 34-33 34z m-183 0l0 0c-17 0-34-13-34-34s13-33 34-33 33 13 33 33-17 34-33 34z m529 504c-38 37-88 54-146 58v38c0 16-12 33-33 33s-29-17-29-33v-34h-275v34c0 16-13 33-34 33s-29-17-29-33v-38c-129-8-208-91-208-221v-375c0-141 87-229 229-229h354c142 0 229 88 229 225v379c4 67-16 125-58 163z m-546-4v-38c0-16 17-29 33-29s34 13 34 33v42h275v-42c-4-20 8-33 25-33s33 13 33 33v34c42-4 79-17 104-42 29-29 42-67 42-121v-16h-688v20c0 96 50 150 142 159z m375-705h-350c-108 0-167 59-167 167v296h688v-300c0-104-63-163-171-163z" horiz-adv-x="1000" />

<glyph glyph-name="iconly-arrow-right-2-bold" unicode="&#xe949;" d="M696 396c-4 8-21 25-21 25-50 54-175 133-237 162 0 0-38 17-55 17h-4c-25 0-50-17-62-42-9-12-17-54-17-54-4-37-8-91-8-154 0-62 4-121 8-158 0 0 8-34 13-46 8-17 16-29 33-38 12-4 25-8 37-8 13 0 38 8 50 13 67 25 192 112 242 166 8 9 17 21 21 21 8 13 17 29 17 46-5 21-9 37-17 50z" horiz-adv-x="1000" />

<glyph glyph-name="iconly-arrow-right-2-broken" unicode="&#xe94a;" d="M525 425l0 0c17-12 38-12 50 0 8 8 8 17 8 25 0 8 0 17-8 25l-204 200-4 0c-13 13-34 13-46 0-13-12-13-33 0-50l204-200z m154-50c-12 13-37 13-50 0l-304-300-4-4c-13-13-8-33 4-46 13-12 38-12 50 0l304 300 4 4c5 4 9 13 9 21-4 8-9 17-13 25z" horiz-adv-x="1000" />

<glyph glyph-name="iconly-arrow-right-2-light" unicode="&#xe94b;" d="M667 371l-292 292c-12 12-29 12-42 0s-12-30 0-42l271-271-271-271c-12-12-12-33 0-46 5-4 13-8 21-8s17 4 21 8l292 292c12 17 12 33 0 46z" horiz-adv-x="1000" />

<glyph glyph-name="iconly-arrow-right-3-bold" unicode="&#xe94c;" d="M863 375l-325 200c-5 4-13 4-17 4-4 0-8 0-17-4-8-4-16-17-16-25v-171h-334c-16 0-29-12-29-29 0-17 13-29 29-29h334v-171c0-12 4-21 16-25 9-4 21-4 29 0l325 200c9 4 13 17 13 25 4 8 0 21-8 25z" horiz-adv-x="1000" />

<glyph glyph-name="iconly-arrow-right-3-broken" unicode="&#xe94d;" d="M863 375l-200 125c-13 8-34 4-42-8-8-13-4-34 8-42l159-100-238-146v346c0 17-12 29-29 29-17 0-29-12-29-29v-171h-334c-20 0-33-12-33-29 0-17 13-29 29-29h334v-171c0-12 4-21 16-25 9-4 21-4 29 0l325 200c9 4 13 17 13 25s0 21-8 25z" horiz-adv-x="1000" />

<glyph glyph-name="iconly-arrow-right-3-light" unicode="&#xe94e;" d="M875 388l-329 208c-8 4-21 8-33 0-9-4-17-17-17-29v-175h-338c-20 0-33-13-33-29s13-34 33-34h342v-179c0-12 4-21 17-29 4-4 8-4 16-4 5 0 13 0 17 4l329 208c9 4 17 17 17 25s-8 25-21 34z m-312-180v305l241-150-241-155z" horiz-adv-x="1000" />

<glyph glyph-name="iconly-arrow-right-circle-bold" unicode="&#xe94f;" d="M500 767c-229 0-417-188-417-417 0-225 180-408 405-417l12 0c229 0 417 188 417 417 0 229-188 417-417 417z m108-438l-145-146c-13-12-34-12-46 0-13 13-13 34 0 46l125 121-125 121c-13 12-13 33 0 46 8 8 12 8 21 8 8 0 16-4 20-8l146-146c4-4 9-13 9-21s0-17-5-21z" horiz-adv-x="1000" />

<glyph glyph-name="iconly-arrow-right-circle-broken" unicode="&#xe950;" d="M417 183c12-12 33-12 46 0l145 146c5 4 9 13 9 21 0 8-4 17-9 21l-145 146c-13 12-34 12-46 0-13-13-13-34 0-46l125-121-125-121c-13-12-13-33 0-46z m83 584c-229 0-417-188-417-417 0-21 0-42 5-62 4-17 16-30 33-25 17 4 29 16 25 33-4 17-4 37-4 54 0 196 158 354 354 354 196 0 354-158 354-354 0-196-158-354-354-354-113 0-213 50-283 137-9 13-30 17-42 5-13-9-17-30-4-42 83-104 204-163 333-163 229 0 417 188 417 417s-188 417-417 417z" horiz-adv-x="1000" />

<glyph glyph-name="iconly-arrow-right-circle-light" unicode="&#xe951;" d="M500 767c-229 0-417-188-417-417 0-229 188-417 417-417 229 0 417 188 417 417 0 229-188 417-417 417z m0-771c-196 0-354 158-354 354 0 196 158 354 354 354 196 0 354-158 354-354 0-196-158-354-354-354z m-37 521c-13 12-34 12-46 0-13-13-13-34 0-46l125-121-125-121c-13-12-13-33 0-46 4-4 12-8 21-8 8 0 16 4 20 8l146 146c4 4 9 13 9 21 0 8-5 17-9 21l-141 146z" horiz-adv-x="1000" />

<glyph glyph-name="iconly-arrow-right-square-01-light" unicode="&#xe952;" d="M671 767h-342c-146 0-246-96-246-238v-362c0-138 100-234 246-234h342c146 0 246 96 246 238v358c0 142-100 238-246 238z m183-596c0-104-71-175-183-175h-342c-112 0-183 67-183 175v358c0 104 71 175 183 175h342c112 0 183-66 183-175v-358z m-162 200l-159 154c-12 13-33 13-45 0s-13-33 0-46l104-104h-263c-16 0-33-12-33-33s12-34 33-34h267l-104-104c-13-12-13-33 0-46 4-4 12-8 21-8s16 4 20 8l159 155c4 4 4 8 8 8 0 4 4 8 4 12 0 5-4 25-4 30 0 4-4 8-8 8z" horiz-adv-x="1000" />

<glyph glyph-name="iconly-arrow-right-square-bold" unicode="&#xe953;" d="M671 767h-342c-146 0-246-96-246-238v-362c0-138 100-234 246-234h342c146 0 246 96 246 238v358c0 142-100 238-246 238z m21-438l-159-158c-12-13-33-13-45 0-5 8-9 12-9 21 0 8 4 16 9 21l104 104h-263c-16 0-33 12-33 33 0 17 12 33 33 33h267l-104 105c-13 12-13 33 0 45 12 13 33 13 46 0l158-158c8-17 8-37-4-46z" horiz-adv-x="1000" />

<glyph glyph-name="iconly-arrow-right-square-broken" unicode="&#xe954;" d="M588 429c12 13 12 34 0 46l-55 54c-4 4-12 9-20 9-9 0-17-5-21-9-13-12-13-33 0-46l54-54c12-12 29-12 42 0z m66 338h-312c-159 0-259-100-259-259 0-20 13-33 34-33s33 13 33 33c0 125 71 196 196 196h312c125 0 196-71 196-196v-312c0-125-71-196-196-196h-316c-125 0-196 71-196 196v104 0c0 17-13 33-33 33v0h0c-17 0-34-12-34-33v-108c4-159 104-259 263-259h312c163 0 263 100 263 263v312c0 159-100 259-263 259z m-354-417c0-17 13-33 33-33h267l-104-104c-13-13-13-34 0-46 12-13 33-13 46 0l158 154c0 0 0 0 0 0 4 4 4 8 8 8 0 4 5 9 5 13v0c0 0 0 0 0 0 0 0 0 0 0 0 0 4 0 8-5 12 0 4-4 9-4 9 0 0 0 0 0 0 0 0 0 0 0 0-4 4-8 4-8 8-4 0-8 4-13 4h-354c-16 8-29-8-29-25z" horiz-adv-x="1000" />

<glyph glyph-name="iconly-arrow-right-square-light" unicode="&#xe955;" d="M671 767h-342c-146 0-246-96-246-238v-362c0-138 100-234 246-234h342c146 0 246 96 246 238v358c0 142-100 238-246 238z m183-596c0-104-71-175-183-175h-342c-112 0-183 67-183 175v358c0 104 71 175 183 175h342c112 0 183-66 183-175v-358z m-154 192c0 4-4 8-8 8 0 0 0 0 0 0l-159 154c-12 13-33 13-45 0s-13-33 0-46l104-104h-263c-16 0-33-12-33-33s12-34 33-34h267l-104-104c-13-12-13-33 0-46 4-4 12-8 21-8 8 0 16 4 20 8l159 155c0 0 0 0 0 0 4 4 4 8 8 8 0 4 4 8 4 12s-4 25-4 30z" horiz-adv-x="1000" />

<glyph glyph-name="iconly-arrow-right-bold" unicode="&#xe956;" d="M342 400l-154 13c-34 0-63-30-63-63s29-62 63-62l154 12c29 0 50 21 50 50 0 29-21 50-50 50z m521-4c-5 4-9 8-13 12l-17 17c-54 54-170 133-233 158 0 0-37 17-54 17h-4c-29 0-54-17-67-42-4-8-8-20-8-33l-4-21c-5-37-9-91-9-154l0-17c0-58 4-112 9-145 0 0 8-34 12-46 8-17 17-29 33-38 13-4 25-8 38-8 8 0 29 4 42 8l8 4c67 25 196 113 246 167l4 4 17 17c8 12 16 29 16 46-4 25-8 41-16 54z" horiz-adv-x="1000" />

<glyph glyph-name="iconly-arrow-right-broken" unicode="&#xe957;" d="M692 450l0 0c16-12 37-12 50 0 8 8 8 17 8 25 0 8-4 17-8 25l-150 154-4 4c-13 9-34 9-46-4-13-12-13-37 0-50l150-154z m179-87c-4 12-17 20-33 20h-680l-4 0c-16 0-29-16-29-33 0-21 17-33 33-33h600l-216-221-4-4c-9-13-9-34 4-46 12-13 33-13 50 0l275 279 4 4c4 4 8 13 8 21-4 4-4 8-8 13z" horiz-adv-x="1000" />

<glyph glyph-name="iconly-arrow-right-light" unicode="&#xe958;" d="M854 363c0 0 0 0 0 0 0 0 0 0 0 0 0 4 0 8-4 12 0 4-4 8-8 8 0 0 0 0 0 0l-250 250c-13 13-34 13-46 0-13-12-13-33 0-45l200-196h-546c-21 0-33-13-33-29s12-34 33-34h550l-200-196c-12-12-12-33 0-45 4-5 13-9 21-9 8 0 17 4 21 9l250 250c4 4 4 8 8 8 4 8 4 12 4 17 0 0 0 0 0 0z" horiz-adv-x="1000" />

<glyph glyph-name="iconly-arrow-up2-bold" unicode="&#xe959;" d="M738 283c-30 67-117 192-171 242-9 8-21 17-21 21-13 8-29 12-46 12-17 0-33-4-46-12-8-4-25-21-25-21-54-50-133-175-162-237 0 0-17-38-17-55v-4c0-29 17-54 42-66 12-9 54-13 54-13 37-4 92-8 154-8 63 0 121 4 158 8 0 0 34 8 46 13 17 8 29 16 38 33 4 12 8 25 8 37 0 13-8 38-12 50z" horiz-adv-x="1000" />

<glyph glyph-name="iconly-arrow-up2-broken" unicode="&#xe95a;" d="M500 538c-8 0-17-5-21-9l-4-4-300-304c-12-13-12-38 0-50 13-13 33-13 46-4l4 4 300 304c13 13 13 38 0 50-8 8-17 13-25 13z m325-321l0 0-200 208c-8 8-17 8-25 8-8 0-17-4-25-8-12-12-12-33-4-46l4-4 200-204c13-13 33-13 50 0 13 12 13 33 0 46z" horiz-adv-x="1000" />

<glyph glyph-name="iconly-arrow-up2-light" unicode="&#xe95b;" d="M813 225l-292 292c-13 12-33 12-46 0l-292-292c-12-12-12-33 0-46s34-12 46 0l271 271 271-271c4-4 12-8 21-8s16 4 21 8c12 17 12 34 0 46z" horiz-adv-x="1000" />

<glyph glyph-name="iconly-arrow-up3-bold" unicode="&#xe95c;" d="M725 388l-200 325c-4 8-17 12-25 12-8 0-21-4-25-12l-200-325c-4-5-4-13-4-17 0-4 0-8 4-17 4-8 17-16 25-16h171v-334c0-17 12-29 29-29 17 0 29 12 29 29v334h171c13 0 21 4 25 16 4 13 4 25 0 34z" horiz-adv-x="1000" />

<glyph glyph-name="iconly-arrow-up3-broken" unicode="&#xe95d;" d="M725 388l-200 325c-4 8-17 12-25 12s-21-4-25-12l-125-200c-8-17-4-38 8-46 17-9 34-4 42 8l100 163 146-238h-346c-17 0-29-12-29-29 0-17 12-29 29-29h171v-334c0-16 12-29 29-29 17 0 29 13 29 29v334h171c13 0 21 4 25 16 4 9 4 21 0 30z" horiz-adv-x="1000" />

<glyph glyph-name="iconly-arrow-up3-light" unicode="&#xe95e;" d="M725 396l-208 329c-4 8-17 17-25 17s-21-4-29-17l-209-329c-4-8-8-21 0-33s17-17 29-17h175v-342c0-17 13-33 34-33s33 12 33 33v342h179c13 0 21 4 29 17-4 12-4 25-8 33z m-387 12l150 242 150-242h-300z" horiz-adv-x="1000" />

<glyph glyph-name="iconly-arrow-up-broken" unicode="&#xe95f;" d="M375 600c-8 0-17 0-25-8l-154-150 0-4c-8-13-8-34 4-46 13-13 38-13 50 0l154 150 4 4c9 12 9 33-4 46-12 8-21 8-29 8z m429-158l-279 275-4 4c-4 0-13 4-21 4-4 0-8 0-12-4-13-4-21-17-21-33v-684l0-4c4-17 16-29 33-29 21 0 33 16 33 33v604l221-216 4-4c13-9 34-9 46 4 13 12 13 33 0 50z" horiz-adv-x="1000" />

<glyph glyph-name="iconly-arrow-up-bold" unicode="&#xe960;" d="M500 242c-29 0-50-21-50-50l-12-154c0-34 29-63 62-63s63 29 63 63l-13 154c0 29-21 50-50 50z m242 191l-4 9c-25 66-113 196-167 246l-4 4-17 16c-17 13-33 17-50 17-17 0-33-4-46-12-4-5-8-9-12-13l-17-17c-54-54-133-170-158-233 0 0-17-37-17-54v-4c0-29 17-54 42-67 8-4 21-8 33-8l21-4c37-5 92-9 154-9l17 0c58 0 112 4 146 9 0 0 33 8 45 12 17 8 30 17 38 33 4 13 8 25 8 38-4 8-8 25-12 37z" horiz-adv-x="1000" />

<glyph glyph-name="iconly-arrow-up-circle-bold" unicode="&#xe961;" d="M500 767c-229 0-417-188-417-417 0-229 188-417 417-417 225 0 408 180 417 405l0 12c0 229-188 417-417 417z m167-500c-13-13-34-13-46 0l-121 125-121-125c-12-13-33-13-46 0-8 4-8 12-8 21 0 8 4 16 8 20l146 146c4 4 13 9 21 9s17-5 21-9l146-146c12-8 12-29 0-41z" horiz-adv-x="1000" />

<glyph glyph-name="iconly-arrow-up-circle-broken" unicode="&#xe962;" d="M521 458c-4 5-13 9-21 9-8 0-17-4-21-9l-146-145c-12-13-12-34 0-46 13-13 34-13 46 0l121 125 121-125c12-13 33-13 46 0s12 33 0 46l-146 145z m-21 309c-229 0-417-188-417-417s188-417 417-417c21 0 42 0 63 4 16 5 29 17 25 34-5 16-17 29-34 25-16-4-37-4-54-4-196 0-354 158-354 354s158 358 354 358c196 0 354-158 354-354 0-112-50-212-137-283-13-9-17-29-4-42 8-12 29-17 41-4 104 79 163 200 163 329 0 229-188 417-417 417z" horiz-adv-x="1000" />

<glyph glyph-name="iconly-arrow-up-circle-light" unicode="&#xe963;" d="M500 767c-229 0-417-188-417-417 0-229 188-417 417-417 229 0 417 188 417 417 0 229-188 417-417 417z m0-771c-196 0-354 158-354 354 0 196 158 354 354 354 196 0 354-158 354-354 0-196-158-354-354-354z m21 462c-4 5-13 9-21 9s-17-4-21-9l-146-145c-12-13-12-34 0-46 5-4 13-9 21-9 9 0 17 5 21 9l121 125 121-125c12-13 33-13 46 0 12 12 12 33 0 46l-142 145z" horiz-adv-x="1000" />

<glyph glyph-name="iconly-arrow-up-light" unicode="&#xe964;" d="M763 442l-250 250c-5 4-13 8-21 8-9 0-17-4-21-8 0 0 0 0 0 0l-250-250c-13-13-13-34 0-46 12-13 33-13 46 0l191 200v-550c0-17 13-33 34-33s33 12 33 33v550l196-200c4-4 12-8 21-8 8 0 16 4 21 8 12 17 12 33 0 46z" horiz-adv-x="1000" />

<glyph glyph-name="iconly-arrow-up-square-bold" unicode="&#xe965;" d="M679 767h-358c-142 0-238-100-238-246v-342c0-146 96-246 238-246h362c142 0 238 100 238 246v342c-4 146-100 246-242 246z m0-425c-8-4-12-9-21-9-8 0-16 5-20 9l-105 104v-267c0-16-12-33-33-33-17 0-33 12-33 33v267l-104-104c-13-13-34-13-46 0-13 12-13 33 0 46l158 158c13 12 33 12 46 0l158-158c13-13 13-34 0-46z" horiz-adv-x="1000" />

<glyph glyph-name="iconly-arrow-up-square-broken" unicode="&#xe966;" d="M529 179v267l104-104c13-13 34-13 46 0 13 12 13 33 0 46l-154 158c0 0 0 0 0 0-4 4-8 4-8 8-4 0-9 4-13 4h0c0 0 0 0 0 0 0 0 0 0 0 0-4 0-8 0-12-4-4 0-9-4-9-4 0 0 0 0 0 0 0 0 0 0 0 0-4-4-4-8-8-8 0-4-4-9-4-13v-341c0-17 12-34 33-34s25 9 25 25z m-154 259l-54-55c-4-4-8-12-8-20 0-9 4-17 8-21 12-13 33-13 46 0l54 54c12 12 12 33 0 46-13 8-33 8-46-4z m279 329h-312c-159 0-259-100-259-263v-312c0-159 100-259 259-259 21 0 33 13 33 34s-12 33-33 33c-125 0-196 71-196 196v308c0 125 71 196 196 196h312c125 0 196-71 196-196v-312c0-125-71-196-196-196h-104 0c-17 0-33-13-33-34h0v0c0-16 12-33 33-33h108c163 0 263 100 263 259v316c-4 163-104 263-267 263z" horiz-adv-x="1000" />

<glyph glyph-name="iconly-arrow-up-square-light" unicode="&#xe967;" d="M679 767h-358c-142 0-238-100-238-246v-342c0-146 96-246 238-246h362c142 0 238 100 238 246v342c-4 146-100 246-242 246z m175-588c0-112-66-183-175-183h-358c-104 0-175 71-175 183v342c0 112 67 183 175 183h362c105 0 175-71 175-183v-342z m-333 363c0 0 0 0 0 0-4 4-13 8-21 8s-17-4-21-8c0 0 0 0 0 0l-154-159c-12-12-12-33 0-45 13-13 33-13 46 0l104 104v-267c0-17 13-33 33-33s34 12 34 33v271l104-104c4-4 12-9 21-9 8 0 16 5 21 9 12 12 12 33 0 46l-167 154z" horiz-adv-x="1000" />

<glyph glyph-name="iconly-bag2-bold" unicode="&#xe968;" d="M692 579h-9c0 104-83 188-183 188-50 0-96-21-129-54-33-34-54-84-54-134h-9c-112 0-204-96-204-208v-229c0-117 92-209 204-209h384c112 0 204 92 204 209v229c0 117-92 208-204 208z m-321-129c0-17-13-33-29-33-17 0-29 12-29 33v50c0 17 12 33 29 33 16 0 29-12 29-33v-50z m4 129c0 34 13 63 38 88 25 25 54 37 87 37 67 0 121-54 121-125h-246z m308-129c0-17-12-33-29-33-16 0-29 12-29 33v50c0 17 13 33 29 33 17 0 29-12 29-33v-50z" horiz-adv-x="1000" />

<glyph glyph-name="iconly-bag2-broken" unicode="&#xe969;" d="M692 579h-9c0 104-83 188-183 188-50 0-96-21-129-54-33-34-54-84-54-134h-9c-112 0-204-91-204-208v-229c0-117 92-209 204-209 17 0 30 13 30 34s-13 33-30 33c-79-4-141 63-141 142v229c0 83 62 146 141 146h9v-67c0-17 12-33 29-33s29 16 29 33v125c0 33 13 67 38 88 25 25 54 33 87 37 67 0 121-54 121-125h-133c-17 0-30-12-30-33s13-25 34-25h133v-67c0-17 13-33 29-33 17 0 29 12 29 33v67h9c79 0 141-67 141-146v-229c0-79-62-146-141-146h-221c-17 0-29-13-29-34s16-29 33-29h221c112 0 204 92 204 209v229c-4 117-96 208-208 208z" horiz-adv-x="1000" />

<glyph glyph-name="iconly-bag2-light" unicode="&#xe96a;" d="M696 592h-8c0 104-84 187-188 187-50 0-96-21-133-54-34-37-54-83-54-133h-9c-116 0-208-92-208-209v-229c0-116 92-208 208-208h396c117 0 208 92 208 208v229c0 113-95 209-212 209z m-283 87c25 25 54 38 87 38 0 0 0 0 0 0 67 0 125-54 125-125h-250c0 33 13 62 38 87z m433-525c0-79-67-146-146-146h-396c-79 0-146 67-146 146v229c0 80 67 146 146 146h9v-66c0-17 12-34 33-34s29 17 29 34v66h250v-66c0-17 13-34 33-34s34 13 34 34v66h8c79 0 146-66 146-146v-229z" horiz-adv-x="1000" />

<glyph glyph-name="iconly-bag-light" unicode="&#xe96b;" d="M888 192l-34 254c-21 112-96 150-158 150h0c-4 50-25 92-58 129-38 38-96 63-150 63-109 0-196-84-209-188h-4c-62 0-133-42-158-154l-34-250c-12-83 5-150 46-196 42-46 104-71 188-71h346c87 0 150 21 191 67 34 37 46 108 34 196z m-400 533c0 0 0 0 0 0 41 0 79-17 104-42 25-20 37-50 41-83h-291c8 67 71 125 146 125z m316-696c-25-29-71-46-141-46h-350c-42 0-105 9-138 50-29 34-37 84-29 146l33 250c13 67 50 104 96 104h425c17 0 79-8 96-100l33-254c9-66 0-116-25-150z m-441 388l0 0c-21 0-34-13-34-34s17-33 34-33 33 13 33 33-13 34-33 34z m245 0l0 0c-20 0-33-13-33-34s17-33 33-33 34 13 34 33-17 34-34 34z" horiz-adv-x="1000" />

<glyph glyph-name="iconly-bookmark-light" unicode="&#xe96c;" d="M633 767h-262c-142 0-225-71-225-192v-600c0-13 4-25 8-33 21-34 63-46 96-30l246 134 250-138c8-4 21-8 33-8 21 0 38 8 50 21s21 33 21 50v612c4 117-75 184-217 184z m159-792c0-4 0-4-4-8-5-5-9-5-13 0l-250 133c-8 4-21 8-29 8-8 0-21-4-29-8 0 0 0 0 0 0l-246-133c-4-5-13 0-13 4 0 0 0 4 0 4v600c0 33 0 129 159 129h262c104 0 159-41 159-121v-608z m-138 517h-304c-17 0-33-13-33-29s12-34 33-34h304c17 0 34 13 34 34s-17 29-34 29z" horiz-adv-x="1000" />

<glyph glyph-name="iconly-buy-light" unicode="&#xe96d;" d="M308 54c-33 0-62-29-62-62s29-63 62-63c34 0 63 29 63 63s-25 62-63 62z m588 500c-17 21-42 29-67 29h-587l-9 121c0 13-12 25-25 29l-87 13c-17 4-33-8-38-25-4-17 9-33 25-38l63-12 37-450c5-54 50-96 105-96h454c54 0 96 38 104 92l46 271c4 25-4 50-21 66z m-83-333c-5-21-21-38-42-38h-454c-25 0-42 17-42 42l-29 300h583c9 0 17-4 17-8s8-9 4-21l-37-275z m-109 212h-116c-17 0-34-12-34-33s13-33 34-33h116c17 0 34 12 34 33s-17 33-34 33z" horiz-adv-x="1000" />

<glyph glyph-name="iconly-bookmark-bold" unicode="&#xe96e;" d="M629 767h-258c-113 0-204-46-204-159v-633c0-25 21-42 41-42 9 0 13 4 21 4l271 134 271-134c8-4 21-4 33-4 13 4 21 13 25 21 4 8 4 17 4 21v633c0 113-91 159-204 159z m29-317h-316c-17 0-34 17-34 33 0 17 17 34 34 34h312c17 0 34-17 34-34 0-20-13-33-30-33z" horiz-adv-x="1000" />

<glyph glyph-name="iconly-buy-bold" unicode="&#xe96f;" d="M308 63c-33 0-62-30-62-67 0-34 29-63 62-63 34 0 63 29 63 63 0 37-25 67-63 67z m592 512c-17 21-33 29-58 29h-563c-12 0-25 9-25 25l-8 92c0 12-13 25-25 29l-100 17c-17 4-33-9-38-25-4-17 9-34 25-38l63-12 37-463c5-54 50-100 105-100h454c54 0 96 38 104 92l46 279c4 25 0 54-17 75z m-196-192h-116c-17 0-30 13-30 34 0 16 13 33 30 33h116c17 0 29-12 29-33 0-21-12-34-29-34z m75-320c-33 0-62-30-62-67 0-34 29-63 62-63 34 0 63 29 63 63 0 37-29 67-63 67z" horiz-adv-x="1000" />

<glyph glyph-name="iconly-calendar-bold" unicode="&#xe970;" d="M875 496c0 121-75 200-192 208l0 29c0 17-12 34-33 34-17 0-33-13-33-34l0-29-242 0 0 29c0 21-12 34-29 34-21 0-33-13-33-34l0-29c-113-12-188-91-188-212l0-346c0-129 83-213 217-213l321 0c133 0 212 80 212 213l0 350z m-542-392c-20 0-33 13-37 34 0 20 17 33 33 37 17 0 34-12 34-33 4-21-13-34-30-38z m-37 184c0 20 17 33 33 37 17 0 34-12 34-33 0-21-13-34-34-38-16 0-33 17-33 34z m204-180c-21 0-33 13-37 34 0 21 16 33 33 37 17 0 33-12 33-33 4-21-8-38-29-38z m-33 184c0 21 16 33 33 37 17 0 33-12 33-33 0-21-12-33-33-38-17 0-33 13-33 34z m204-188c-21 0-33 17-33 34 0 20 16 33 33 37h0c21 0 33-17 33-33 0-21-16-38-33-38z m-38 188l0 0c0 21 17 33 34 37 16 0 33-16 33-33 0-21-12-33-33-38-17 0-34 13-34 34z m180 191l-621 0 0 13c0 92 46 137 125 146l0-34c0-16 12-33 33-33 13 0 25 13 25 33l0 34 246 0 0-34c0-16 12-33 33-33 17 0 34 13 34 33l0 34c79-9 125-54 129-142v-17z" horiz-adv-x="1000" />

<glyph glyph-name="iconly-bookmark-broken" unicode="&#xe971;" d="M646 767h-288c-116 0-191-84-191-217v-550c0-33 29-67 66-67 13 0 21 4 34 9l233 129 271-129c8-5 17-5 25 0 8 4 12 8 17 16 4 13 0 29-13 38l-271 129c-16 8-37 8-58 0l-233-129c-5 0-5 0-9 0-4 0-4 4-4 8v546c0 100 50 154 133 154h288c112 0 125-91 125-146v-25h-313c-8 0-16-4-20-8-5-4-9-12-9-21 0-16 13-29 29-29h309v-321c0-16 12-29 29-29 17 0 29 13 29 29v404c8 130-62 209-179 209z" horiz-adv-x="1000" />

<glyph glyph-name="iconly-bag-broken" unicode="&#xe972;" d="M388 346c20 0 37 17 37 37 0 5 0 5 0 9l-4 8c0 4-4 4-4 4 0 4-4 4-4 4 0 0-5 5-5 5 0 0-4 4-4 4-4 0-4 0-8 4-4 0-8 0-13 0-4 0-4 0-8-4-4 0-4 0-4-4 0 0-4-5-4-5 0 0-4-4-4-4 0 0-5-4-5-4 0-4 0-4-4-8 0-4 0-4 0-9 0-4 0-8 4-12 0-4 5-8 9-13 0-8 8-12 21-12z m504-150l-34 246c-20 108-91 146-154 146-8 79-62 145-141 170-75 25-163 0-217-58-4-8-8-21-4-33s12-21 25-21 25 0 29 8v4c50 59 142 63 200 13 25-21 42-50 46-83h-346c-58-5-129-38-154-150l-9-55c0-16 9-33 25-33 17-4 34 8 38 25l8 54c13 63 46 96 92 96h408c46 0 79-37 92-96l29-241c8-67 0-113-25-142-25-29-71-42-137-42h-330c-50-4-95 13-133 46-29 42-37 92-29 138 4 16-8 33-29 37-17 4-34-8-38-29-16-67-4-138 42-188 54-54 121-83 187-75h334c87 0 146 21 183 67 38 42 54 108 42 196z m-288 154c4 0 9-4 13-4 8 0 21 4 25 12 4 5 8 9 8 13 0 4 4 8 4 12 0 5 0 5 0 9 0 4 0 4-4 8 0 4 0 4-4 4-4 4-4 9-8 9-5 4-9 4-13 4-4 0-8 0-12 0-5 0-5 0-9-4-4 0-4 0-8-5l-4-4c0 0-4-4-4-4l-5-4v-4c0-4 0-4 0-9 0-4 0-8 5-12 4-8 8-17 16-21z" horiz-adv-x="1000" />

<glyph glyph-name="iconly-buy-broken" unicode="&#xe973;" d="M779 63c-33 0-62-30-62-63s29-63 62-63c34 0 63 30 63 63s-29 63-63 63z m-471 0c-33 0-62-30-62-63s29-67 62-67 63 29 63 63-25 67-63 67z m396 320c17 0 34 13 34 34s-13 33-34 33h-116c-17 0-30-12-30-33s13-34 30-34h116z m192 188c-17 21-42 29-67 29h-446c-16 0-33-12-33-33s13-34 33-34h446c9 0 17-4 17-8 4-4 8-8 4-21l-37-279c-5-21-21-37-42-37h-454c-25 0-42 16-42 41l-42 488c0 12-12 25-25 29l-87 21c-17 4-33-9-38-25-4-21 9-34 25-38l63-12 37-463c5-58 50-100 105-100h454c54 0 96 42 104 92l46 279c4 25-4 54-21 71z" horiz-adv-x="1000" />

<glyph glyph-name="iconly-calendar-broken" unicode="&#xe974;" d="M638 138c0-21 16-38 37-38 21 0 38 17 38 38 0 8-5 20-13 25-8 8-17 12-25 12-21 0-37-17-37-37z m62 175c-8 8-17 12-25 12-21 0-37-17-37-37 0-21 16-38 37-38 21 0 38 17 38 38 0 8-5 20-13 25z m-358 266c8 0 16 4 21 9 4 4 8 12 8 20v30h162c17 0 30 12 30 29 0 16-13 29-30 29h-162v42c0 16-13 25-29 25s-25-13-29-25v-130c0-16 12-29 29-29z m346 113v41c0 17-13 30-30 30-8 0-16-5-20-9-5-4-9-12-9-21v-129c0-16 13-25 29-29 17 0 30 8 30 25v33c91-12 133-54 133-145v-346c0-104-54-150-175-150h-288c-125 0-179 46-179 150v275h529c17 0 30 12 30 29s-13 29-25 29h-530v13c0 62 17 104 59 125 8 4 12 12 16 25 0 12-4 20-12 29s-21 4-29 0c-63-38-92-96-92-179v-346c0-138 79-209 233-209h280c154 0 233 71 233 209v346c4 125-58 191-183 204z m-396-554c0-21 16-38 37-38s38 17 38 38c0 8-4 20-13 25-8 8-16 12-25 12-21 0-37-17-37-37z m62 175c-8 8-16 12-25 12-21 0-37-17-37-37 0-21 16-38 37-38s38 17 38 38c-4 8-9 20-13 25z m146-138c-21 0-37-17-37-37 0-21 16-38 37-38 21 0 38 17 38 38 0 20-17 37-38 37z m0 150c-21 0-37-17-37-37 0-21 16-38 37-38 21 0 38 17 38 38 0 20-17 37-38 37z" horiz-adv-x="1000" />

<glyph glyph-name="iconly-download-broken" unicode="&#xe975;" d="M308 550h-41c-100 0-184-87-184-192v-212c0-104 84-192 184-192 16 0 33 17 33 33 0 17-12 34-33 34-67 0-121 58-121 125v212c0 71 54 125 121 125h37c17 0 34 17 34 34 0 16-13 33-30 33z m305-267l29 30c12 12 12 33 0 45-13 13-34 13-46 0l-29-29c-4-8-9-12-9-21 0-8 5-16 9-20 12-17 33-17 46-5z m-100-95c12 4 20 16 20 29v500c0 16-12 33-33 33s-33-12-33-33v-421l-67 67c-12 12-33 12-46 0-8-5-8-13-8-21s4-17 8-21l121-121c13-17 25-17 38-12z m220 362h-37c-17 0-33-17-33-33 0-17 12-34 33-34h37c67 0 121-58 121-125v-212c0-71-54-125-121-125h-320c-17 0-34-17-34-34 0-16 13-33 34-33h316c100 0 184 88 184 192v212c4 105-80 192-180 192z" horiz-adv-x="1000" />

<glyph glyph-name="iconly-download-light" unicode="&#xe976;" d="M483 183c0 0 0 0 0 0 5-4 9-4 9-8 4 0 8-4 12-4s9 0 13 4c4 0 8 4 8 8 0 0 0 0 0 0l121 121c12 13 12 34 0 46-13 13-33 13-46 0l-67-67v425c0 17-12 34-33 34s-25-17-25-34v-425l-71 67c-12 13-33 13-46 0-12-12-12-33 0-46l125-121z m255 359h-38c-17 0-33-13-33-34s12-33 33-33h38c66 0 120-54 120-121v-204c0-67-54-121-120-121h-463c-67 0-121 54-121 121v204c0 67 54 121 121 121h38c16 0 33 13 33 33s-17 34-33 34h-42c-100 0-183-84-183-184v-204c0-100 83-183 183-183h462c100 0 184 83 184 183v204c4 100-79 184-179 184z" horiz-adv-x="1000" />

<glyph glyph-name="iconly-edit-broken" unicode="&#xe977;" d="M842 42h-275c-17 0-34-17-34-34 0-16 13-33 34-33h275c16 0 33 17 33 33 0 17-12 34-33 34z m-59 529c-8 29-25 58-50 79l-58 46c-58 46-129 42-171-13l-208-270c-13-13-8-34 4-46 13-13 33-9 46 4l121 158 75-62c4-4 12-9 21-9 8 0 20 5 25 13 12 12 8 33-5 46l-75 62 46 63c21 29 54 21 79 0l59-46c12-13 25-25 29-38 4-12 0-25-8-37l-359-467c-4-8-16-12-25-12l-112 0-25 112c-4 9 0 21 4 25l46 63c12 12 8 33-4 46-13 12-34 8-46-5l-46-62c-17-25-25-54-17-83l34-138c0-13 12-25 29-25h0l137 0c29 0 59 12 75 38l359 462c20 29 29 63 20 96z" horiz-adv-x="1000" />

<glyph glyph-name="iconly-edit-bold" unicode="&#xe978;" d="M779 575c-4 29-21 54-46 75l-66 46c-54 42-121 37-159-13l-41-54c-4-8-4-16 4-21 0 0 104-83 104-83 8-8 17-17 17-25 4-21-13-42-34-42-8 0-20 0-25 9l-108 87c-8 0-17 0-21-8l-258-338c-17-20-21-50-17-75l34-146c0-8 8-12 16-12l146 0c25 0 50 12 67 33l366 475c17 30 25 63 21 92z m54-517h-237c-25 0-42-20-42-41 0-25 21-42 42-42h237c25 0 42 21 42 42 0 25-21 41-42 41z" horiz-adv-x="1000" />

<glyph glyph-name="iconly-edit-square-bold" unicode="&#xe979;" d="M858 708c-45 42-104 63-162 59h-392c-58 4-116-17-162-59-42-45-63-104-59-162v-388c-4-58 17-120 59-162 46-42 104-63 162-59h388c58-4 121 17 162 59 42 46 63 104 59 162v388c8 58-13 117-55 162z m-120-279l-280-279c-12-12-33-21-54-21h-100c-4 0-8 0-12 4s-4 9-4 13l4 100c0 21 8 37 21 50l200 200c4 4 8 4 12 0l71-71c4-4 12-8 17-8 16 0 29 12 29 29 0 8-4 12-9 21 0 0-66 66-66 66-4 5-4 13 0 17l29 29c25 25 67 25 92 0l54-54c21-29 21-71-4-96z" horiz-adv-x="1000" />

<glyph glyph-name="iconly-edit-square-broken" unicode="&#xe97a;" d="M308 342l-4-154c0-9 4-17 9-21 4-4 12-9 20-9h155c33 0 62 13 83 34l308 308c25 21 38 54 38 88 0 33-13 66-38 91l-50 50c-50 50-133 50-183 0l-304-304c-21-25-34-54-34-83z m59 0c0 16 8 29 16 41l238 238 79-79c4-4 13-9 21-9 8 0 17 5 21 9 12 12 12 33 0 41l-75 80 25 25c25 25 66 25 96 0l50-50c25-25 25-67 0-96l-309-309c-12-12-25-16-41-16h-121l0 125z m-254-9c16 0 29 13 29 30v158c0 112 66 183 175 183h154c17 0 29 13 29 29 0 17-12 30-29 30h-150c-142 4-238-96-238-242v-158c0-17 13-30 30-30z m775 42c-17 0-30-12-30-29v-167c0-112-66-183-175-183h-362c-104 0-175 71-175 183 0 17-13 29-29 29-17 0-29-12-29-29-5-146 91-246 233-246h362c142 0 238 100 238 246v167c-4 17-17 29-33 29z" horiz-adv-x="1000" />

<glyph glyph-name="iconly-edit-light" unicode="&#xe97b;" d="M838 54h-267c-17 0-33-12-33-33s12-34 33-34h267c16 0 33 13 33 34s-17 33-33 33z m-105 575l-58 46c-54 42-125 38-162-12 0 0 0 0 0 0l-346-442c-17-21-25-50-17-79l29-129c4-13 17-26 29-26 0 0 0 0 0 0l134 0c29 0 54 13 71 38l345 442c42 50 30 121-25 162z m-366-562c-4-9-13-13-25-13l-109 0-25 104c0 9 0 17 9 25l262 334 150-117-262-333z m346 437l-46-54-150 117 46 58c20 29 54 17 75 0l58-46c21-16 37-46 17-75z" horiz-adv-x="1000" />

<glyph glyph-name="iconly-edit-square-light" unicode="&#xe97c;" d="M900 367c-17 0-33-13-33-34v-166c0-113-71-188-179-188h-363c-108 0-179 75-179 188v350c0 112 71 187 179 187h154c17 0 34 13 34 34s-17 29-34 29h-154c-146 0-242-104-242-250v-346c0-150 96-250 242-250h367c141 0 241 100 241 250v167c-4 16-16 29-33 29z m-592-34l-4-158c0-8 4-17 9-21 4-4 12-8 20-8h155c33 0 62 12 87 37l313 313c29 21 41 54 41 87 0 34-12 67-37 92l-50 50c-50 50-134 50-184 0l-312-312c-21-17-33-46-38-80z m488 350l50-50c12-12 21-29 21-50s-9-33-21-50l-25-25-146 146 25 29c29 30 71 30 96 0z m-425-350c0 17 8 30 17 42l241 242 146-146-242-246c-12-12-25-17-41-17h-125l4 125z" horiz-adv-x="1000" />

<glyph glyph-name="iconly-call-bold" unicode="&#xe97d;" d="M892 150c-25 25-109 96-134 100-29 4-50-8-70-17-21-12-59-41-80-33-112 46-216 146-262 258-8 17 21 59 33 80 13 20 25 41 17 70-4 21-71 109-96 134-17 16-33 25-50 25-62 4-133-79-146-100-29-42-29-100 0-167 75-183 359-462 542-542 33-16 67-25 92-25 29 0 50 9 75 21 16 8 104 84 100 146 4 21-5 38-21 50z" horiz-adv-x="1000" />

<glyph glyph-name="iconly-call-broken" unicode="&#xe97e;" d="M163 504c-21 50-21 88 0 121 12 25 75 83 104 79 4 0 12-4 21-12 25-25 87-104 91-121 0-8-4-17-12-33-13-25-34-55-17-92 33-79 83-146 150-192 4-4 13-4 17-4 8 0 21 4 25 13 8 12 8 33-9 41-58 42-100 96-129 163-4 8 0 16 13 37l0 0c12 21 25 46 21 79-9 34-88 134-109 150-16 21-37 34-58 34-71 4-150-88-163-109-33-45-33-108 0-179 9-16 25-21 42-16 13 8 21 25 13 41z m725-325c-21 21-121 104-150 109-42 8-71-13-96-25l-9-5c-16-8-20-29-12-41 8-17 29-21 42-13l12 9c21 12 33 20 50 16 17-8 96-66 121-91 8-9 12-17 12-17 0-33-62-96-83-108-29-21-67-17-117 4-125 54-325 229-433 387-8 13-29 17-42 9-12-9-16-30-8-42 117-167 321-350 458-409 34-16 67-25 96-25 29 0 54 9 79 25 13 9 117 88 113 163-4 17-17 38-33 54z" horiz-adv-x="1000" />

<glyph glyph-name="iconly-calling-bold" unicode="&#xe97f;" d="M733 238c-25 4-50-9-66-17l0 0c-4-4-9-4-13-8-21-13-46-30-62-25-109 45-209 137-254 245-5 17 12 42 25 63 4 4 8 8 8 12 12 21 25 42 17 67-9 29-71 113-96 133-17 17-29 25-46 25-63 5-129-75-142-95-29-42-29-96 0-163 71-179 346-446 525-521 34-17 63-25 92-25 25 0 50 8 71 21 16 8 100 79 96 142 0 16-9 33-25 46-21 29-105 95-130 100z m-133 529c-8 0-17 0-25-9-8-4-12-16-12-25-5-20 12-37 33-37 133-17 242-121 254-254 0-17 17-34 38-34 0 0 4 0 4 0 8 0 16 5 25 13 0 8 0 17 0 25-21 171-150 300-317 321z m138-359c4 0 4 0 8 0 21 5 33 21 29 42-17 88-83 154-171 171-21 4-37-8-41-29-5-21 8-38 29-42 58-12 104-58 112-117v0c0-12 17-25 34-25z" horiz-adv-x="1000" />

<glyph glyph-name="iconly-calling-light" unicode="&#xe980;" d="M742 288c-34 8-63-9-84-21-20-13-29-17-37-13-104 42-175 113-217 217-4 12 0 21 13 37 12 21 29 46 21 84-9 33-92 133-113 154-21 21-37 29-62 29-71 4-150-87-167-112-33-46-33-109 0-180 75-183 350-458 537-537 38-17 71-25 100-25 30 0 59 8 80 25 12 8 116 87 112 167 0 20-12 41-29 58-21 25-121 108-154 117z m37-288c-29-21-66-21-121 4-166 71-437 338-504 504-25 55-25 92-4 121 0 0 0 0 0 4 13 25 75 84 108 84 0 0 0 0 0 0 5 0 13-4 21-13 25-25 88-108 96-125 0-12-4-21-12-37-13-25-30-54-17-96 50-117 133-204 254-250 38-13 71 4 92 17 16 8 29 16 37 12 17-8 100-71 125-96 9-8 13-16 13-21 0-29-67-95-88-108z m-175 704c142-16 250-125 267-266 0-17 17-30 29-30 0 0 4 0 4 0 17 0 29 17 29 34-20 171-150 300-320 321-17 0-34-13-34-30-4-12 9-25 25-29z m9-87c-17 4-34-9-38-25 0-17 8-29 25-34 63-12 108-58 121-120 4-17 17-25 29-25 0 0 4 0 4 0 17 4 29 20 25 37-12 83-79 150-166 167z" horiz-adv-x="1000" />

<glyph glyph-name="iconly-call-light" unicode="&#xe981;" d="M896 175c-21 21-121 104-154 113-34 8-63-9-84-21-20-13-29-17-37-13-104 42-175 113-217 217-4 12 0 21 13 37 12 21 29 46 21 84-9 33-92 133-113 154-21 21-37 29-62 29-71 4-150-87-167-112-33-46-33-109 0-180 75-183 350-458 537-537 38-17 71-25 100-25 30 0 59 8 80 25 12 8 116 87 112 167 0 25-8 41-29 62z m-117-175c-29-21-66-21-121 4-166 71-437 338-504 504-25 55-25 92-4 121 0 0 0 0 0 4 13 25 75 84 108 84 0 0 0 0 0 0 5 0 13-4 21-13 25-25 88-108 96-125 0-12-4-21-12-37-13-25-30-54-17-96 50-117 133-204 254-250 38-13 71 4 92 17 16 8 25 16 37 12 17-8 100-71 125-96 9-8 13-16 13-21 0-29-67-95-88-108z" horiz-adv-x="1000" />

<glyph glyph-name="iconly-calling-broken" unicode="&#xe982;" d="M725 283c-42 9-71-12-96-25l-8-4c-13-8-21-29-13-41 9-13 30-21 42-13l13 8c20 13 33 21 45 17 17-8 96-67 121-92 9-8 13-12 13-16 0-34-59-92-84-109-29-21-66-16-116 5-125 50-317 225-425 383-9 12-29 17-42 8-12-8-17-29-8-41 112-167 316-346 450-405 33-16 66-25 96-25 29 0 54 9 75 25 12 9 112 88 108 163 0 21-13 42-29 58-13 17-113 100-142 104z m-562 217c-21 50-25 88-5 117 13 21 75 83 105 79 4 0 12-4 20-13 25-25 84-104 92-116 0-13-4-21-17-38-12-21-29-50-12-91 33-80 83-146 146-192 4-4 12-4 16-4 9 0 21 4 25 12 9 13 9 34-8 42-54 42-96 96-125 162-4 9 0 17 13 38l0 0c12 21 25 46 20 79-8 33-87 129-108 150-17 21-37 29-58 33-75 5-150-95-159-108-33-46-33-104 0-175 9-17 25-21 42-17 13 9 21 25 13 42z m437 267c-17 0-29-13-33-29 0-17 8-34 29-34 137-16 246-125 262-262 0-17 17-29 30-29 0 0 4 0 4 0 16 0 29 16 25 33-21 171-150 300-317 321z m113-325c4-17 16-25 29-25 0 0 4 0 4 0 17 4 29 21 25 37-17 88-83 150-167 167-16 4-33-8-37-25-4-17 8-33 25-38 62-12 108-58 121-116z" horiz-adv-x="1000" />

<glyph glyph-name="iconly-call-missed-bold" unicode="&#xe983;" d="M742 242c-29 4-50-9-67-17l0 0c-4-4-8-4-12-8-21-13-46-29-63-25-108 46-212 141-258 250-9 16 8 46 21 62 4 9 8 13 8 17 12 21 25 42 17 67-5 25-71 108-92 133-17 17-33 25-50 25-58 4-129-79-142-100-29-42-29-96 0-163 75-179 350-450 529-525 34-16 63-25 92-25 25 0 50 9 71 21 17 8 100 79 100 142 0 17-8 33-25 46-21 29-104 96-129 100z m62 362l100 100c9 9 13 17 13 25s-4 21-13 25c-12 13-37 13-50 0l-100-100-100 100c-12 13-37 13-50 0-8-8-12-16-12-25s4-21 12-25l100-100-100-100c-8-8-12-16-12-25s4-21 12-25c13-12 38-12 50 0l100 100 100-100c9-8 17-12 25-12s21 4 25 12c9 4 13 13 13 21s-4 21-13 25l-100 104z" horiz-adv-x="1000" />

<glyph glyph-name="iconly-call-missed-broken" unicode="&#xe984;" d="M163 504c-21 50-21 88 0 121 12 25 75 83 104 79 4 0 12-4 21-12 25-25 87-104 91-121 0-8-4-17-12-33-13-25-34-55-17-92 33-79 83-146 150-192 4-4 13-4 17-4 8 0 21 4 25 13 8 12 8 33-9 41-58 42-100 96-129 163-4 8 0 16 13 37l0 0c12 21 25 46 21 79-9 34-88 134-109 150-16 21-37 34-58 34-71 4-150-88-163-109-33-45-33-108 0-179 9-16 25-21 42-16 13 8 21 25 13 41z m641 109l59 58c0 0 0 0 0 0l41 42c13 12 13 33 0 45-12 13-33 13-46 0l-20-20 0 0-84-84-104 104c-12 13-33 13-46 0-12-12-12-33 0-45l104-105-104-104c-12-12-12-33 0-46 4-4 13-8 21-8 8 0 17 4 21 8l104 105 104-105c4-4 13-8 21-8 8 0 17 4 21 8 12 13 12 34 0 46l-92 109z m-71-325c-41 8-70-13-95-25l-9-5c-16-8-21-29-12-41 8-17 29-21 41-13l13 9c21 12 33 20 50 16 17-8 96-66 121-91 8-9 12-17 12-17 0-33-62-96-83-108-29-21-67-17-117 4-125 54-325 229-429 387-8 13-29 17-42 9-12-9-16-30-8-42 117-167 321-350 458-409 34-16 67-25 96-25 29 0 54 9 79 25 13 9 113 88 113 163 0 21-13 42-29 58-25 17-125 100-159 105z" horiz-adv-x="1000" />

<glyph glyph-name="iconly-call-missed-light" unicode="&#xe985;" d="M896 175c-21 21-121 104-154 113-34 8-63-9-84-21-20-13-29-17-37-13-104 42-175 113-217 217-4 12 0 21 13 37 12 21 29 46 21 84-9 33-92 133-113 154-21 21-37 29-62 29-71 4-150-87-167-112-33-46-33-109 0-180 75-183 350-458 537-537 38-17 71-25 100-25 30 0 59 8 80 25 12 8 116 87 112 167 0 25-8 41-29 62z m-117-175c-29-21-66-21-121 4-166 71-437 338-504 504-25 55-25 92-4 121 0 0 0 0 0 4 13 25 75 84 108 84 0 0 0 0 0 0 5 0 13-4 21-13 25-25 88-108 96-125 0-12-4-21-12-37-13-25-30-54-17-96 50-117 133-204 254-250 38-13 71 4 92 17 16 8 25 16 37 12 17-8 100-71 125-96 9-8 13-16 13-21 0-29-67-95-88-108z m-166 463c4-5 12-9 20-9s17 4 21 9l104 104 105-104c4-5 12-9 20-9s17 4 21 9c13 12 13 33 0 45l-104 105 104 104c13 12 13 33 0 46s-33 12-46 0l-104-105-104 105c-12 12-33 12-46 0s-12-34 0-46l104-104-104-105c-4-12-4-33 9-45z" horiz-adv-x="1000" />

<glyph glyph-name="iconly-call-silent-bold" unicode="&#xe986;" d="M892 188c-21 25-104 91-129 95-25 5-46-4-67-16l0 0c-4-4-8-4-13-9-20-12-45-29-62-25-38 17-75 38-108 67l-67-67 58 59 392 400v0c12 12 12 37 0 50-8 8-17 12-25 12-8 0-17-4-25-12l-750-767c0 0 0-4-4-4l0 0c-13-17-9-38 0-46 8-8 16-13 25-13 8 0 16 5 25 13l254 258c87-83 183-154 262-187 34-17 63-25 92-25 25 0 50 8 71 21 17 8 100 79 96 141-4 21-13 38-25 55z m-596 95l112 117c-16 25-33 54-45 83-5 17 12 46 25 63 4 8 8 12 8 17l0 0c12 20 21 41 17 66-5 25-67 109-92 134-13 16-29 25-46 25-58 4-129-80-137-100-30-42-30-96 0-163 29-71 87-158 158-242z" horiz-adv-x="1000" />

<glyph glyph-name="iconly-call-silent-broken" unicode="&#xe987;" d="M238 279c8-8 16-12 25-12 8 0 12 4 20 8 13 13 17 29 5 46-59 67-100 129-121 183-25 50-25 88-4 117 12 25 79 83 104 83 4 0 8-4 21-12 8-9 33-38 54-67 25-37 33-50 37-50 0 0 0 0 0 0v0c0-12-4-21-12-37l0 0c-13-25-34-55-17-92 4-8 8-21 13-29 8-17 25-21 41-13 17 9 21 25 13 42 0 4-4 12-9 21-4 8 0 16 13 37l0 0c12 21 25 46 21 79 0 9-4 21-46 80-25 25-50 58-67 75-16 16-37 29-58 29-75 4-154-96-163-109-33-45-33-108 0-179 21-58 67-125 130-200z m500 9c-34 8-63-9-80-21-20-13-29-17-37-13-38 17-75 38-104 63l391 391c13 13 13 34 0 46-12 13-33 13-45 0l-417-416c-13-13-13-34 0-46 42-42 92-75 150-96 37-13 67 4 92 17l0 0c16 8 25 16 33 12 17-4 100-67 121-92 8-12 12-16 12-20 0-34-62-96-83-109-29-21-67-21-117 4-75 34-183 109-279 209-12 12-33 12-46 0l-237-238c-13-12-13-33 0-46 12-12 33-12 46 0l216 217c100-96 200-167 279-200 34-17 67-25 96-25 29 0 54 8 79 25 13 8 117 88 113 163 0 20-13 41-29 58-25 29-125 112-154 117z" horiz-adv-x="1000" />

<glyph glyph-name="iconly-call-silent-light" unicode="&#xe988;" d="M238 279c8-8 16-12 25-12 8 0 12 4 20 8 13 13 17 29 5 46-59 67-100 129-121 183-25 50-25 88-4 117 12 25 75 83 104 83 4 0 8-4 21-12 8-9 33-38 54-67 29-42 37-54 37-54 0 0 0 0 0 0 0-8-4-17-12-33-13-25-34-55-17-92 4-8 8-21 13-29 8-17 25-21 41-13 17 9 21 25 13 42 0 4-4 12-9 21-4 8 0 16 13 37 12 21 25 46 21 79 0 9-9 25-46 80-25 25-50 58-67 75-16 16-37 29-58 29-75 4-154-96-163-109-33-45-33-108 0-179 21-58 67-125 130-200z m500 9c-34 8-63-9-80-21-20-13-29-17-37-13-38 17-75 38-104 63l391 391c13 13 13 34 0 46s-33 13-45 0l-771-767c-13-12-13-33 0-45 8-5 16-9 25-9s16 4 21 9l216 216c100-95 200-166 279-200 34-16 67-25 96-25 29 0 54 9 79 25 13 9 117 88 113 163 0 21-13 37-29 58-25 21-125 104-154 109z m33-280c-29-21-67-21-117 5-71 29-166 100-258 187l75 75c37-29 79-58 125-75 37-12 67 4 92 17 16 8 25 16 33 12 17-4 100-66 121-91 8-13 12-17 12-17 0-38-62-96-83-113z" horiz-adv-x="1000" />

<glyph glyph-name="iconly-camera-bold" unicode="&#xe989;" d="M500 396c-29 0-54-8-71-29-21-21-29-46-29-71v0c0-25 13-54 29-71 21-21 46-29 71-29 54 0 100 46 100 100 0 25-12 54-29 71-17 16-42 29-71 29z m233 187c-4 0-8 0-8 5l-4 12c0 4-4 8-4 13-9 20-21 41-25 54-21 37-54 58-96 58h-196c-42 0-75-21-92-58-4-17-16-42-29-63 0-4-4-4-4-8l-4-4c0-4-4-4-8-4-96-5-180-84-180-184v-246c0-100 84-183 184-183h471c100 0 183 83 183 183v246c-4 100-88 179-188 179z m-116-404c-29-29-71-46-117-46-42 0-83 17-117 46-29 29-45 71-45 117 0 42 16 83 45 117 34 29 75 45 117 45s83-16 117-45c29-30 46-71 46-117 0-46-17-88-46-117z m116 213c-20 0-37 16-37 37 0 21 17 38 37 38s38-17 38-38c0-21-17-37-38-37z" horiz-adv-x="1000" />

<glyph glyph-name="iconly-camera-broken" unicode="&#xe98a;" d="M500 129c46 0 83 17 117 50 29 29 46 71 46 117 0 42-17 83-50 117-30 29-71 45-113 45h0c-12 0-25 0-37-4-17-4-30-21-25-37 4-17 20-29 37-25 8 0 13 4 21 4h0c25 0 54-13 71-29 21-21 29-46 29-71 0-25-8-50-29-71-21-21-46-29-71-29h0c-25 0-54 12-71 29-21 21-29 46-29 71 0 8 0 21 4 29 4 17-4 33-21 38-16 4-33-5-37-21-4-17-9-34-9-50 0-42 17-84 46-117s75-46 121-46l0 0z m233 454c-4 0-8 0-8 9-12 25-25 54-33 75-21 37-54 58-96 58h-196c-42 0-75-21-92-58-8-17-20-46-33-71l0-4c0-4-4-4-8-4-100-5-184-84-184-184v-246c0-100 84-183 184-183h29c17 0 33 12 33 29 0 17-12 29-33 29h-29c-67 0-121 55-121 121v246c0 67 54 121 121 121 29 0 54 17 62 42l4 4c13 25 25 54 34 71 8 16 16 25 37 25h196c17 0 29-9 38-25 8-17 20-46 37-75 13-25 38-42 63-42 66 0 120-54 120-121v-246c0-66-54-121-120-121h-296c-17 0-34-12-34-29 0-17 13-29 34-29h296c100 0 183 83 183 183v246c-4 100-88 179-188 179z m5-187c4 0 8 4 8 8 8 4 8 13 8 21 0 4 0 8-4 13 0 4-4 8-8 8-4 4-9 4-9 8-8 4-16 4-25 0-4 0-8-4-12-8-4-4-4-8-8-8 0-5-5-9-5-13 0-8 5-17 9-21 8-4 12-8 21-8 20-4 25-4 25 0z" horiz-adv-x="1000" />

<glyph glyph-name="iconly-camera-light" unicode="&#xe98b;" d="M733 583c-4 0-8 0-8 5l0 12c-12 25-25 54-33 67-21 37-54 58-92 58 0 0-200 0-200 0-42 0-75-21-92-58-8-17-20-46-33-71l0-4c0-4-4-4-8-4-100-5-184-84-184-184v-246c0-104 84-183 184-183h471c100 0 183 83 183 183v246c-4 100-88 179-188 179z m121-429c0-66-54-121-121-121h-466c-67 0-121 55-121 121v246c0 67 54 121 121 121 29 0 54 17 62 42l4 8c13 25 25 50 34 67 8 16 16 25 37 25 4 0 50 0 96 0 50 0 96 0 100 0 17 0 29-9 38-25 8-17 20-42 33-67l4-8c13-25 38-42 63-42 66 0 120-54 120-121v-246z m-354 304c0 0 0 0 0 0-46 0-83-16-117-50-29-29-45-70-45-116 0-42 16-84 50-117 29-29 70-50 116-50 0 0 0 0 0 0 92 0 163 75 163 163 0 41-17 83-46 116-38 38-75 54-121 54z m0-266c0 0 0 0 0 0-25 0-54 12-71 29-21 21-29 46-29 71 0 0 0 0 0 0 0 25 8 50 29 71 21 20 46 29 71 29 0 0 0 0 0 0 25 0 54-13 71-29 21-21 29-46 29-71 0-54-46-100-100-100z m246 262c0 4-4 9-8 13-13 8-30 12-46 4-4-4-9-4-13-8-4-5-8-9-8-13-4-4-4-12-4-17 0-12 4-20 12-29 4-4 9-8 13-8 4 0 8-4 12-4l4 0 5 0c8 0 16 4 25 12 8 9 12 17 12 29 0 5 0 13-4 21l0 0z" horiz-adv-x="1000" />

<glyph glyph-name="iconly-category-bold" unicode="&#xe98c;" d="M813 767h-142c-58 0-104-50-104-109v-141c0-59 46-109 104-109h142c58 0 104 46 104 109v141c0 59-46 109-104 109z m-484-479h-141c-59 0-105-46-105-105v-141c0-59 46-109 105-109h141c59 0 104 46 104 109v141c5 59-45 105-104 105z m0 479h-141c-59 0-105-50-105-109v-141c0-59 46-109 105-109h141c59 0 104 46 104 109v141c5 59-45 109-104 109z m484-479h-142c-58 0-104-46-104-109v-141c0-59 46-109 104-109h142c58 0 104 46 104 109v145c0 59-46 105-104 105z" horiz-adv-x="1000" />

<glyph glyph-name="iconly-category-broken" unicode="&#xe98d;" d="M571 413c17 0 33 12 33 33v179c0 33 25 58 54 58h117c29 0 54-25 54-58v-121c0-16-4-29-16-41-9-13-25-17-38-17h-46c-16 0-29-17-29-33s13-30 29-34h50c34 0 63 13 84 38 20 25 33 54 33 87v121c0 67-54 121-121 121h-117c-33 0-62-13-83-38-21-25-33-54-33-87v-179c0-9 4-17 8-25s13-4 21-4z m-346-30h117c33 0 62 13 83 38 21 25 33 54 33 87v117c0 67-54 121-120 121h-113c-67 0-121-54-121-121v-121c0-66 54-121 121-121z m-58 242c0 17 4 29 16 42 13 12 25 16 42 16h117c29 0 54-25 54-58v-121c0-16-4-29-17-41s-21-17-37-17h-117c-17 0-29 4-42 17-8 12-16 25-16 41v121z m283-337c-12 8-25 8-37 0-13-9-17-21-13-34v-179c0-17-4-29-17-42-12-12-25-16-37-16h-121c-29 0-54 25-54 58v117c0 33 25 58 54 58h50c13 0 25 4 29 17 9 12 9 25 0 33-8 13-16 17-29 17h-50c-33 0-62-13-83-38-21-25-34-54-34-87v-121c0-67 55-121 121-121h117c67 0 121 54 121 121v175c-4 21-9 33-17 42z m325 29h-117c-66 0-120-54-120-121v-121c0-67 54-121 120-121h117c67 0 121 54 121 121v121c0 67-54 121-121 121z m54-242c0-17-4-29-16-42-13-12-25-16-38-16h-117c-16 0-29 4-37 16-13 13-17 25-17 42v121c0 33 25 58 54 58h117c17 0 29-4 38-16 8-13 16-25 16-42v-121z" horiz-adv-x="1000" />

<glyph glyph-name="iconly-category-light" unicode="&#xe98e;" d="M817 796h-138c-75 0-133-58-133-133v-138c0-75 58-133 133-133h138c75 0 133 58 133 133v138c0 75-62 133-133 133z m71-271c0-37-34-71-71-71h-138c-37 0-71 34-71 71v138c0 37 34 70 71 70h138c37 0 71-33 71-70v-138z m-567 271h-138c-75 0-133-58-133-133v-138c0-75 58-133 133-133h138c75 0 133 58 133 133v138c0 75-58 133-133 133z m71-271c0-37-34-71-71-71h-138c-37 0-70 34-70 71v138c0 37 33 70 70 70h138c37 0 71-33 71-70v-138z m-71-217h-138c-75 0-133-58-133-133v-137c0-76 58-134 133-134h138c75 0 133 58 133 134v137c0 71-58 133-133 133z m71-270c0-38-34-71-71-71h-138c-37 0-70 33-70 71v137c0 38 33 71 70 71h138c37 0 71-33 71-71v-137z m425 270h-138c-75 0-133-58-133-133v-137c0-76 58-134 133-134h138c75 0 133 58 133 134v137c0 71-62 133-133 133z m71-270c0-38-34-71-71-71h-138c-37 0-71 33-71 71v137c0 38 34 71 71 71h138c37 0 71-33 71-71v-137z" horiz-adv-x="1000" />

<glyph glyph-name="iconly-chart-bold" unicode="&#xe98f;" d="M696 767h-392c-141 0-221-79-221-221v-388c0-145 80-225 221-225h388c141 0 221 80 221 221v392c4 142-75 221-217 221z m-354-629c0-17-17-34-34-34-16 0-33 13-33 34v287c0 13 4 25 17 33 12 9 25 9 37 0 13-8 17-20 17-33v-287z m196 0c0-17-17-34-34-34-16 0-33 13-33 34v425c0 12 4 25 17 33 12 8 25 8 37 0 13-8 17-21 17-33v-425z m191 0c-4-17-16-34-33-34-17 0-33 13-33 34v137c0 13 4 25 16 33 13 9 25 9 38 0 12-8 16-20 16-33v-137z" horiz-adv-x="1000" />

<glyph glyph-name="iconly-chart-broken" unicode="&#xe990;" d="M646 279v-125c0-16 12-33 33-33s34 12 34 33v125c0 17-13 34-34 34s-33-17-33-34z m217 109c4-5 12-9 20-9h0c17 0 34 13 34 34v91c0 163-100 263-263 263h-308c-163 0-263-100-263-263v-312c0-159 100-259 263-259h312c163 0 259 100 259 259 0 16-13 33-34 33s-33-12-33-33c0-125-71-196-196-196h-308c-125 0-196 71-196 196v312c0 125 71 196 196 196h312c125 0 196-71 196-196v-96c0-8 0-16 9-20z m-563 54c-4-4-8-13-8-21v-4-263c0-16 12-33 29-33 17 0 33 12 33 29v267c0 8-4 16-8 21-8 12-13 12-21 12-12 4-17 0-25-8z m171 104v-392c0-16 12-33 33-33s34 12 34 33v392c0 17-13 33-34 33s-33-16-33-33z" horiz-adv-x="1000" />

<glyph glyph-name="iconly-chart-light" unicode="&#xe991;" d="M308 454c-16 0-33-12-33-33v-288c0-16 13-33 33-33s34 13 34 33v288c-4 21-17 33-34 33z m192 138c-17 0-33-13-33-34v-420c0-17 12-34 33-34s33 13 33 34v425c0 16-12 29-33 29z m192-288c-17 0-34-12-34-33v-133c0-17 13-34 34-34s33 13 33 34v133c0 21-17 33-33 33z m4 492h-392c-150 0-254-104-254-263v-366c0-159 100-263 254-263h392c150 0 254 104 254 263v366c0 159-104 263-254 263z m192-629c0-121-75-200-192-200h-392c-116 0-191 79-191 200v366c0 121 75 200 191 200h392c117 0 192-79 192-200v-366z" horiz-adv-x="1000" />

<glyph glyph-name="iconly-chat-bold" unicode="&#xe992;" d="M500 767c-242 0-417-196-417-417 0-71 21-142 55-208 8-13 8-25 4-38l-29-91c-9-21 12-38 33-34l83 25c21 9 42-4 63-17 62-37 141-54 208-54 208 0 417 159 417 417 0 221-179 417-417 417z m-192-471c-29 0-54 25-54 54 0 29 25 54 54 54s55-25 55-54c0-29-25-54-55-54z m192 0c-29 0-54 25-54 54 0 29 25 54 54 54 29 0 54-25 54-54 0-29-25-54-54-54z m192 0c-29 0-54 25-54 54 0 29 25 54 54 54 29 0 54-25 54-54 0-29-25-54-54-54z" horiz-adv-x="1000" />

<glyph glyph-name="iconly-chat-broken" unicode="&#xe993;" d="M696 717c-63 33-129 50-196 50h0c-229 0-417-188-417-417 0-67 17-133 46-192l9-16c4-4 4-9 0-13-13-29-21-62-30-91 0 0 0-5 0-5 0-16 5-33 13-41 12-13 21-17 42-17 4 0 4 0 8 0 29 8 71 21 100 33l0 0 8 5c17 4 25 25 17 41-4 17-25 25-42 17l-4-4c-21-9-50-17-71-25 4 21 13 46 21 66 8 21 4 42-4 63l-8 17c-25 50-42 108-42 162 0 196 158 354 354 354h0c58 0 113-12 167-41 171-92 237-305 150-480-75-141-234-216-392-179-17 4-33-8-37-25s8-33 25-37c29-9 58-9 87-9 150 0 296 84 371 221 104 204 25 459-175 563z m37-367c0 29-20 50-50 50-29 0-50-21-50-50 0-29 21-50 50-50 30 0 50 21 50 50z m-416 50c-29 0-50-21-50-50 0-29 21-50 50-50s50 21 50 50c0 29-25 50-50 50z m233-50c0 29-21 50-50 50-29 0-50-21-50-50 0-29 21-50 50-50 29 0 50 21 50 50z" horiz-adv-x="1000" />

<glyph glyph-name="iconly-close-square-bold" unicode="&#xe994;" d="M679 767h-358c-142 0-238-100-238-246v-342c0-146 96-246 238-246h362c142 0 238 100 238 246v342c-4 146-100 246-242 246z m-54-492c13-12 13-37 0-50-8-8-17-12-25-12-8 0-17 4-25 12l-75 75-75-75c-8-8-17-12-25-12-8 0-17 4-25 12-12 13-12 38 0 50l75 75-75 75c-17 13-17 38 0 50 13 13 38 13 50 0l75-75 75 75c17 13 38 13 50 0 13-12 13-37 0-50l-75-75 75-75z" horiz-adv-x="1000" />

<glyph glyph-name="iconly-chat-light" unicode="&#xe995;" d="M321 388c-25 0-50-21-50-50 0-25 21-50 50-50s50 20 50 50c0 29-25 50-50 50z m187 0c-25 0-50-21-50-50 0-25 21-50 50-50s50 20 50 50c0 29-20 50-50 50z m192 0c-25 0-50-21-50-50 0-25 21-50 50-50 25 0 50 20 50 50-4 29-25 50-50 50z m-200 408c-246 0-446-200-446-446 0-75 21-150 63-225 0-4 0-8 0-12l-34-96c-4-21 0-42 17-59 17-16 38-21 58-12l84 25c8 4 16 4 37-9 63-37 142-58 221-58 221 0 450 167 450 450 0 242-204 442-450 442z m0-834c-67 0-133 17-187 51-17 8-38 20-63 20-8 0-17 0-25-4l-79-25 25 88c8 21 4 46-4 62-34 63-54 129-54 192 0 212 175 387 387 387 213 0 383-170 383-383 5-242-195-388-383-388z" horiz-adv-x="1000" />

<glyph glyph-name="iconly-close-square-broken" unicode="&#xe996;" d="M408 304l-29-29c-12-12-12-33 0-46l0 0c13-12 34-12 46 0l29 29c13 13 13 34 0 46-12 9-33 9-46 0z m475 63c17 0 34 12 34 33v104c0 163-100 263-259 263h-312c-163 0-263-100-263-263v-312c0-159 100-259 263-259h312c163 0 259 100 259 259 0 16-13 33-34 33-16 0-33-12-33-33 0-125-71-196-196-196h-308c-125 0-196 71-196 196v312c0 125 71 196 196 196h312c125 0 196-71 196-196v-104 0c0-17 13-33 29-33l0 0 0 0z m-295-134c12-12 33-12 45 0 0 0 0 0 0 0 0 0 0 0 0 0 13 13 13 34 0 46l-75 75 71 71c9 8 13 25 4 38 0 4-4 4-4 8-12 12-33 12-46 0l-70-71-80 79c0 0 0 0 0 0-12 13-33 13-45 0-13-12-13-33 0-46l200-200 0 0z" horiz-adv-x="1000" />

<glyph glyph-name="iconly-close-square-light" unicode="&#xe997;" d="M546 350l79 79c13 13 13 34 0 46s-33 13-46 0l-79-79-79 79c-13 13-33 13-46 0s-12-33 0-46l79-79-79-79c-12-13-12-33 0-46 4-4 13-8 21-8s17 4 21 8l79 79 79-79c4-4 13-8 21-8s17 4 21 8c12 13 12 33 0 46l-71 79z m133 417h-358c-142 0-238-100-238-246v-342c0-146 96-246 238-246h362c142 0 238 100 238 246v342c-4 146-100 246-242 246z m175-588c0-112-66-183-175-183h-358c-104 0-175 71-175 183v342c0 112 67 183 175 183h362c105 0 175-71 175-183v-342z" horiz-adv-x="1000" />

<glyph glyph-name="iconly-danger-bold" unicode="&#xe998;" d="M904 138l-300 529c-33 54-104 75-158 46-21-13-38-30-50-46l-304-529c-25-59 4-130 66-155 13-4 25-8 38-8h608c29 0 59 17 79 38 21 25 34 54 30 83 4 17 0 29-9 42z m-404 4c-21 0-37 16-37 37 0 21 16 38 37 38 21 0 38-17 38-38 0-21-17-37-38-37z m38 175c0-21-17-38-38-38-21 0-37 17-37 38v116c0 21 16 38 37 38 21 0 38-17 38-38v-116z" horiz-adv-x="1000" />

<glyph glyph-name="iconly-danger-broken" unicode="&#xe999;" d="M908 129c0 4 0 4 0 0l-304 534c-33 58-104 79-158 45-21-8-38-25-50-45l-300-530c0 0 0-4 0-4-13-29-13-62 0-91 12-30 33-51 62-63 13-4 25-8 38-8 0 0 0 0 0 0 17 0 29 12 29 29 0 17-12 33-29 33-4 0-13 0-17 4-12 5-25 17-29 30-4 12-4 29 0 41l304 529c4 9 9 17 21 21 25 17 63 4 75-21l300-529c0-4 4-12 4-16 0-17-4-30-12-42-9-13-25-17-38-17h-446c-16 0-33-12-33-33s13-34 33-34l450 0c34 0 63 17 84 38 21 25 33 54 29 83-4 21-8 34-13 46z m-408 154c17 0 33 13 33 34v116c0 17-12 34-33 34s-33-13-33-34v-116c4-21 16-34 33-34z m0-141c17 0 33 12 33 33v0c0 17-12 29-33 29s-33-12-33-33 16-29 33-29z" horiz-adv-x="1000" />

<glyph glyph-name="iconly-danger-light" unicode="&#xe99a;" d="M500 204c-17 0-33-12-33-33s16-29 33-29 33 12 33 33v0c0 17-16 29-33 29z m404-71l-300 530c-16 29-41 45-71 54-29 8-62 4-87-9-21-8-38-25-50-45l-300-530c0 0 0-4 0-4-25-58 4-129 67-154 12-4 25-8 37-8 0 0 0 0 0 0 0 0 0 0 4 0l604 0c67 4 117 58 113 125-4 12-8 25-17 41z m-100-104h-604c0 0 0 0 0 0-4 0-12 0-17 4-29 13-41 42-29 71l304 529c0 9 5 17 17 21 13 9 29 9 42 4 12-4 25-12 33-25l300-525c4-4 4-12 4-16 0-34-21-59-50-63z m-304 234c17 0 33 12 33 33v129c0 17-12 33-33 33s-33-12-33-33v-129c0-21 16-33 33-33z" horiz-adv-x="1000" />

<glyph glyph-name="iconly-delete-broken" unicode="&#xe99b;" d="M342-4c-38 0-59 21-63 62-12 117-33 396-33 400-8 17-21 30-38 30-16 0-29-17-29-34 0-4 21-283 34-400 8-71 54-117 120-117h0c17 0 30 13 30 30 8 16-9 29-21 29z m450 492c-17 0-29-13-34-30 0-4-20-283-33-400-4-41-25-62-67-62l-16 0c-50 0-75 0-134 0h0c-16 0-29-13-29-29 0-17 13-30 29-30 9 0 21 0 30 0 41 0 58 0 91 0 9 0 17 0 29 0 71 0 117 46 125 117 13 117 34 396 34 400 4 17-9 29-25 34z m54 133h-471c4 4 8 12 8 21l9 50c4 8 12 16 21 16h170c9 0 21-8 21-16 4-17 21-25 38-21 16 4 25 21 21 37-9 34-38 59-75 59h-175c-38 0-67-25-80-63l-8-54c-4-17-21-29-37-29h-134c-16 0-29-13-29-29 0-17 13-34 29-34h692c17 0 29 17 29 34 0 16-12 29-29 29z" horiz-adv-x="1000" />

<glyph glyph-name="iconly-delete-bold" unicode="&#xe99c;" d="M788 488h-575c-9 0-17-5-21-9-9-8-13-16-9-25 0 0 0-8 5-25 4-75 20-279 33-375 8-71 54-117 121-117 54 0 104 0 162 0 50 0 104 0 159 0 70 0 116 46 125 117 12 117 33 400 33 400 0 9 0 17-8 25-9 4-17 9-25 9z m58 145h-121c-25 0-46 17-50 42l-8 29c-9 38-42 63-79 63h-175c-38 0-67-25-80-63l-4-29c-4-25-25-42-50-42h-125c-16 0-29-16-29-33v-17c0-16 13-29 29-29h692c17 0 29 13 29 29v17c0 17-12 33-29 33z" horiz-adv-x="1000" />

<glyph glyph-name="iconly-delete-light" unicode="&#xe99d;" d="M808 488c-16 0-33-13-33-30 0-4-21-283-37-395-5-42-25-63-67-63-117-4-221 0-325 0-38 0-63 21-67 63-12 116-33 395-37 400 0 16-17 29-34 29-16 0-29-17-29-34 0-4 21-283 38-400 8-71 54-116 125-116 54 0 108 0 162 0 54 0 109 0 163 0 71 0 121 45 129 116 12 117 37 396 37 400 5 13-8 25-25 30z m55 133h-138c-17 0-33 12-37 29l-13 54c-8 38-42 63-83 63h-175c-38 0-71-25-84-67l-4-50c-4-17-21-29-37-29h-134c-20 0-33-13-33-29s13-34 33-34h709c16 0 33 13 33 34s-21 29-37 29z m-471 17l8 50c4 8 13 16 21 16h175c8 0 21-8 21-12l8-50c0-4 4-13 4-17h-250c9 0 9 8 13 13z" horiz-adv-x="1000" />

<glyph glyph-name="iconly-discount-bold" unicode="&#xe99e;" d="M879 438l-29 29c-12 12-17 29-17 46v41c0 71-58 125-125 125h-41c-17 0-34 9-46 17l-29 29c-50 50-129 50-179 0l-34-25c-8-12-25-17-41-17h-42c-71 0-125-54-125-125v-41c0-17-8-34-17-46l-33-33c-50-50-50-130 0-180l29-29c13-8 17-25 17-41v-42c0-71 58-125 125-125h41c17 0 34-8 46-17l29-29c25-25 59-38 88-38 33 0 62 13 87 38l30 29c12 13 29 17 45 17h42c71 0 125 58 125 125v42c0 16 8 33 17 45l29 30c0 0 0 0 0 0 0 0 0 0 0 0 25 25 37 54 37 87 9 33-4 67-29 88z m-487 54c21 0 37-17 37-38 0-21-16-37-37-37-21 0-38 16-38 37 4 25 21 38 38 38z m25-275c-9-9-17-13-25-13-9 0-21 4-25 13-13 12-13 37 0 50l216 216c13 13 38 13 50 0 13-12 13-37 0-50l-216-216z m191-9c-20 0-37 17-37 38 0 21 17 37 37 37 21 0 38-16 38-37-4-25-17-38-38-38z" horiz-adv-x="1000" />

<glyph glyph-name="iconly-discount-broken" unicode="&#xe99f;" d="M371 267c-13-13-13-34 0-46 4-4 12-8 21-8s16 4 21 8l212 212c13 13 13 34 0 46-12 13-33 13-46 0l-208-212z m-208 37c-25 25-25 67 0 88l29 29c25 25 37 54 37 87v42c0 33 29 63 63 63h41c34 0 63 12 88 37l29 29c25 25 63 25 88 0 0 0 0 0 0 0h0c4-4 12-8 20-8 17 0 34 12 34 33 0 9-4 17-9 21 0 0-4 4-4 4-50 46-125 42-171-4l-29-25c-8-12-25-17-41-17h-42c-71 0-125-58-125-125v-41c0-17-8-34-17-46l-33-33c-50-50-50-130 0-180 8-4 12-8 21-8s16 4 21 8c12 17 12 34 0 46z m266 154c0 21-16 38-37 38s-34-21-34-38c0-20 17-37 38-37s33 17 33 37z m117-445c-13-13-29-21-46-17-17 0-33 8-46 17l-29 29c-25 25-54 37-87 37h-42c-33 0-63 29-63 63 0 16-12 33-33 33s-33-12-33-29c0-71 58-125 125-125h41c17 0 34-8 46-17l29-29c25-25 59-38 88-38 33 0 62 13 87 38 13 12 13 33 0 46-8 4-25 4-37-8z m333 425l-29 29c-12 12-17 29-17 46v41c0 71-58 125-125 125-16 0-33-12-33-33s13-33 33-33c34 0 63-30 63-63v-42c0-33 12-66 37-87l30-29c12-13 16-29 16-46 0-17-8-33-16-46l-30-29c-25-25-37-54-37-88v-41c0-34-29-63-63-63-16 0-33-12-33-33s13-33 33-33c71 0 125 58 125 125v41c0 17 9 34 17 46l29 29c25 25 38 54 38 88 0 41-13 75-38 96z m-271-159c-20 0-37-16-37-37 0-21 17-38 37-38 21 0 38 17 38 38-4 21-21 37-38 37z" horiz-adv-x="1000" />

<glyph glyph-name="iconly-discount-light" unicode="&#xe9a0;" d="M879 438l-29 29c-12 12-17 29-17 46v41c0 71-58 125-125 125h-41c-17 0-34 9-46 17l-29 29c-50 50-129 50-179 0l-34-25c-8-12-25-17-41-17h-42c-71 0-125-58-125-125v-41c0-17-8-34-17-46l-33-33c-25-21-38-55-38-88 0-33 13-67 38-87l29-30c13-12 17-29 17-45v-42c0-71 58-125 125-125h41c17 0 34-8 46-17l29-29c25-25 55-38 88-38 0 0 0 0 0 0 33 0 67 13 87 38l30 29c12 13 29 17 45 17h42c71 0 125 58 125 125v42c0 16 8 33 17 45l29 30c25 25 37 54 37 87 9 33-4 67-29 88z m-41-134l-30-29c-25-25-37-54-37-87v-42c0-33-29-63-63-63h-41c-34 0-67-12-88-37l-29-29c-12-13-29-17-46-17 0 0 0 0 0 0-16 0-33 8-46 17l-29 29c-25 25-54 37-87 37h-42c-33 0-62 30-62 63v42c0 33-13 66-38 87l-29 29c-13 13-17 29-17 46 0 17 9 33 17 46l29 29c25 25 38 54 38 88v41c0 34 29 63 62 63h42c33 0 66 12 87 37l29 29c25 25 63 25 88 0l29-29c25-25 54-37 88-37h41c34 0 63-29 63-63v-41c0-34 12-67 37-88l29-29c25-25 25-67 5-92z m-255 175l-212-212c-13-13-13-34 0-46 4-4 12-8 21-8s16 4 21 8l212 212c13 13 13 34 0 46s-29 13-42 0z m46-212c-12 12-33 12-46 0-4-4-4-4-8-9 0-4-4-8-4-12 0-4 0-8 4-13 0-4 4-8 8-12 5-4 13-8 21-8s17 4 21 8c4 4 4 8 8 12 0 5 0 9 0 13 0 4 0 8 0 12 0 0 0 5-4 9z m-258 166c4 0 8-4 8-4 4 0 9-4 13-4s8 0 12 4c4 0 9 4 9 9 4 4 4 8 8 12 0 4 0 8 0 13 0 8-4 16-8 20-13 13-34 13-46 0 0-8 0-12-4-12 0-4-5-8-5-13 0-4 0-8 5-12 4-4 4-8 8-13z" horiz-adv-x="1000" />

<glyph glyph-name="iconly-discovery-broken" unicode="&#xe9a1;" d="M517 292c-13-9-21-25-13-42 9-17 25-21 42-17l37 17c9 4 13 13 17 21l63 204c4 8 0 17-5 25-4 8-12 13-20 17 0 0-9 0-13-4l-204-63c-8-4-17-12-21-21l-62-204c-5-8 0-17 4-25 4-8 12-12 21-17 16-4 33 5 41 21l59 188 129 41-42-129-33-12z m337 279c-58 96-154 158-262 183-29 9-63 13-92 13-196 0-362-134-408-325-42-192 54-384 229-467s387-33 504 121c8 12 4 33-8 42-13 8-29 8-42 0-108-142-308-180-458-84-154 92-209 288-134 450 80 159 263 234 434 179 171-58 266-233 229-408-4-12 0-25 8-33 9-9 21-13 34-9 12 5 20 13 20 25 21 109 5 221-54 313z" horiz-adv-x="1000" />

<glyph glyph-name="iconly-document-broken" unicode="&#xe9a2;" d="M350 321l0 0h300c13 0 21 4 29 12 4 9 4 21 0 34-4 8-16 16-29 12h-300c-17 0-25-16-25-29s8-29 25-29z m313 446h-325c-134 0-213-79-213-217v-400c0-133 79-217 213-217 16 0 25 17 25 29 0 17-13 30-25 30-105 0-155 54-155 158v400c0 104 50 158 155 158h320c105 0 155-54 155-158v-400c0-104-50-158-155-158h-116c-17 0-25-17-25-30 0-16 12-29 25-29h121c133 0 212 84 212 217v400c0 133-79 217-212 217z m-313-271h113c16 0 25 17 25 29 0 17-13 29-25 29h-113c-17 0-29-12-29-29 0-12 12-29 29-29z m0-354l0 0h300c17 0 29 12 29 29s-12 29-29 29h-300c-17 0-29-12-29-29s12-29 29-29z" horiz-adv-x="1000" />

<glyph glyph-name="iconly-discovery-light" unicode="&#xe9a3;" d="M613 533l-213-62c-8-4-17-13-21-21l-66-212c-5-13 0-25 8-34 4-4 12-8 21-8 4 0 8 0 8 0l213 67c8 4 16 12 20 20l67 213c4 12 0 25-8 33-4 9-17 9-29 4z m-80-216l-137-42 42 138 137 41-42-137z m-50 479c-237 0-429-192-429-429 0-238 192-434 429-434 238 0 434 196 434 434 0 237-196 429-434 429z m0-800c-204 0-370 167-370 371 0 204 166 371 370 371 205 0 371-167 371-371 0-204-166-371-371-371z" horiz-adv-x="1000" />

<glyph glyph-name="iconly-document-bold" unicode="&#xe9a4;" d="M675 767h-350c-125 0-200-75-200-200v-429c0-134 75-205 200-205h350c129 0 200 71 200 200v434c0 125-71 200-200 200z m-337-196l0 0 125 0c16 0 33-13 33-33 0-17-13-34-33-34h-125c-17 0-34 13-34 34s13 33 34 33z m325-442h-325c-13 0-25 4-34 17-8 12-8 25 0 33 9 13 21 17 34 17h325c16 0 29-17 29-33 0-17-13-34-29-34z m0 192h-325c-17 0-34 12-34 33s13 34 34 34h325c16 0 33-17 33-34s-17-33-33-33z" horiz-adv-x="1000" />

<glyph glyph-name="iconly-document-light" unicode="&#xe9a5;" d="M654 204h-300c-16 0-33-12-33-33s17-29 33-29h300c17 0 34 12 34 33s-17 29-34 29z m0 175h-300c-16 0-33-12-33-33s12-33 33-33h300c17 0 34 12 34 33s-17 33-34 33z m-300 113h117c17 0 33 12 33 33s-12 33-33 33h-117c-16 0-33-12-33-33s17-33 33-33z m309 275l-321 0c-134 0-217-88-217-225v-384c0-133 88-225 221-225l321 0c133 0 216 88 216 225v384c0 133-87 225-220 225z m158-609c0-100-58-158-154-162l-321 0c-100 0-158 58-158 162v384c0 100 58 158 154 162l321 0c100 0 158-58 158-162v-384z" horiz-adv-x="1000" />

<glyph glyph-name="iconly-download-bold" unicode="&#xe9a6;" d="M917 363c-4 100-88 183-184 183l-200 0v167l0 4c-4 16-16 29-33 29-17 0-33-17-33-33v-167l62 0v-267l67 71 4 4c13 9 29 9 42-4 12-12 12-33 0-46l-121-125-4-4c-4-4-13-8-21-8-8 0-17 4-21 8l-121 125-4 4c-4 4-4 13-4 21 0 8 4 17 8 25 13 13 34 13 46 0l67-71v267h-200l-9 0c-95-4-175-88-175-192v-208l0-8c5-100 88-184 184-184h462l9 0c95 4 175 88 175 192v208l4 9z" horiz-adv-x="1000" />

<glyph glyph-name="iconly-discovery-bold" unicode="&#xe9a7;" d="M500 767c-229 0-417-188-417-417 0-229 188-417 417-417 229 0 417 188 417 417 0 229-188 417-417 417z m158-279l-66-213c-4-8-9-17-17-17l-212-66c-17-9-30 4-25 21l66 212c4 8 13 17 21 21l213 67c12 4 29-13 20-25z" horiz-adv-x="1000" />

<glyph glyph-name="iconly-filter2-bold" unicode="&#xe9a8;" d="M588 192l-205 0c-12 0-25-13-25-25v-200c0-13 5-21 17-30 8-4 17-4 21-4 4 0 8 0 12 4l184 88c12 4 21 17 21 29v113c0 12-13 25-25 25z m241 575h-658c-46 0-88-42-88-92v-67c0-25 9-45 25-62l250-275c5-4 9-4 17-4l225 0c8 0 13 4 17 8l271 275c16 17 25 42 25 67v58c4 50-38 92-84 92z" horiz-adv-x="1000" />

<glyph glyph-name="iconly-filter2-broken" unicode="&#xe9a9;" d="M396 75c17 0 33 17 33 33v167c0 8-4 17-8 21l-267 296c-4 4-8 8-8 16v67c0 13 12 25 25 25h129c17 0 33 17 33 33 0 17-16 34-33 34h-129c-46 0-88-42-88-92v-67c0-25 9-45 25-62l259-283v-155c-4-20 12-33 29-33z m433 692h-371c-16 0-33-17-33-34 0-16 13-33 33-33h371c13 0 25-12 25-25v-62c0-9-4-13-8-17l-288-292c-4-4-8-16-8-25v-204l-162-79c-17-9-25-29-17-46 4-8 17-17 29-17 4 0 8 0 13 4l179 88c12 4 16 17 16 29v213l280 283c16 17 25 42 25 67v58c4 50-38 92-84 92z" horiz-adv-x="1000" />

<glyph glyph-name="iconly-message-bold" unicode="&#xe9aa;" d="M854 663c-37 41-91 62-150 62h-408c-117 0-213-96-213-208v-334c0-116 96-208 213-208h412c117 0 213 96 213 208v334c-4 54-25 108-67 146z m-79-209l0 0-192-154c-25-17-54-29-83-29-29 0-58 8-83 29l-184 150-8 4c-8 13-8 29 4 42 13 12 29 12 42 4l187-150c25-21 59-21 84 0l187 150c9 4 17 8 25 8 9 0 17-4 21-12 8-13 8-29 0-42z" horiz-adv-x="1000" />

<glyph glyph-name="iconly-filter2-light" unicode="&#xe9ab;" d="M854 796h-708c-50 0-92-42-92-96v-71c0-25 9-46 25-62l279-309v-325c0-12 5-21 13-25 4-4 12-4 17-4 4 0 8 0 12 4l200 92c13 4 17 17 17 29v234l304 308c17 17 29 42 29 67v66c0 50-42 92-96 92z m34-163c0-8-5-16-9-25l-312-316c-4-4-9-13-9-21v-225l-141-63v292c0 8-4 17-9 21l-283 312c-8 9-8 17-8 25v71c0 17 12 34 29 34h712c17 0 30-13 30-34v-71z" horiz-adv-x="1000" />

<glyph glyph-name="iconly-filter-bold" unicode="&#xe9ac;" d="M225 442c79 0 142 62 142 141 4 80-63 142-142 142-79 0-142-62-142-142 0-75 63-141 142-141z m196-259h-275c-33 0-63-25-63-58 0-33 30-62 63-62h275c33 0 62 29 62 62 0 33-29 58-62 58z m354 84c-79 0-142-63-142-142 0-79 63-142 142-142 79 0 142 63 142 142 0 79-63 142-142 142z m142 316c0 34-29 63-63 63h-275c-33 0-62-29-62-63 0-33 29-62 62-62h275c34 0 63 29 63 62z" horiz-adv-x="1000" />

<glyph glyph-name="iconly-filter-broken" unicode="&#xe9ad;" d="M421 146h-300c-21 0-38-17-38-38 0-20 17-37 38-37h300c21 0 37 17 37 37 0 21-16 38-37 38z m-179 292c87 0 158 70 158 154 0 83-71 154-158 154-13 0-25 0-34-4-20-4-33-25-29-42 4-21 25-33 46-29 4 0 13 0 17 0 46 0 83-38 83-83 0-46-37-84-83-84-46 0-84 38-84 84 0 4 0 8 0 12 5 21-8 38-29 42-21 4-37-9-41-29-5-5-5-13-5-21 0-88 71-154 159-154z m675 154c0 21-17 37-38 37h-300c-21 0-37-16-37-37 0-21 16-38 37-38h300c21 0 38 17 38 38z m-4-459c-5 21-21 34-42 30-21-5-33-21-29-42 0-4 0-8 0-13 0-45-38-83-84-83-45 0-83 38-83 83 0 50 50 92 100 80 21-5 38 8 46 29 4 21-8 37-29 41-13 5-25 5-34 5-87 0-158-71-158-155 0-83 71-154 158-154 88 0 159 71 159 154 0 9 0 17-4 25z" horiz-adv-x="1000" />

<glyph glyph-name="iconly-filter-light" unicode="&#xe9ae;" d="M421 133h-300c-17 0-33-12-33-33s12-33 33-33h300c17 0 33 12 33 33s-16 33-33 33z m337 117c-83 0-150-67-150-150s67-150 150-150 150 67 150 150-66 150-150 150z m0-237c-50 0-87 41-87 87s42 88 87 88 88-42 88-88-38-87-88-87z m155 575c0 16-13 33-34 33h-300c-16 0-33-13-33-33s17-30 33-30h300c17 0 34 13 34 30z m-671-150c83 0 150 66 150 150s-67 154-150 154-154-71-154-154 70-150 154-150z m0 241c50 0 87-41 87-87s-41-88-87-88-88 42-88 88 38 87 88 87z" horiz-adv-x="1000" />

<glyph glyph-name="iconly-folder-bold" unicode="&#xe9af;" d="M688 646h-130c-20 0-37 8-45 25l-38 50c-25 29-58 46-100 46h-62c-155 0-230-88-230-259v-312c0-163 100-263 259-263h312c163 0 263 100 263 259v204c0 167-75 250-229 250z m4-433h-384c-16 0-33 12-33 33 0 17 13 33 33 33h388c17 0 29-12 29-33 0-21-17-33-33-33z" horiz-adv-x="1000" />

<glyph glyph-name="iconly-folder-broken" unicode="&#xe9b0;" d="M863 329c4-4 12-8 20-8 17 0 34 12 34 33v42c0 167-75 250-229 250h-113c-17 0-37 8-46 25l-37 50c-25 29-63 46-100 46h-79c-155 0-230-88-230-263v-312c0-159 100-259 263-259h312c163 0 263 100 263 259 0 16-17 29-33 29s-30-13-34-29c0-125-71-196-196-196h-316c-125 0-196 71-196 196v33h512c17 0 34 13 34 33s-13 34-34 34h-512v216c0 138 50 196 162 196h80c16 0 37-8 45-25l38-50c29-29 67-46 104-46h113c120 0 166-54 166-187v-42c0-8 0-16 9-25z" horiz-adv-x="1000" />

<glyph glyph-name="iconly-game-bold" unicode="&#xe9b1;" d="M671 596c-13 0-25 0-38 0-25 0-50 0-79 0v8c0 59-50 109-112 109h-42c-12 4-21 12-21 25 0 16-12 29-29 29-17 0-33-13-33-29 0-46 37-84 83-84h42c29 0 50-21 50-50v-8c-54 0-109 0-163 0-141 0-246-100-246-242v-179c0-137 105-242 246-242 59 0 113 0 171 0s113 0 171 0c142 0 246 100 246 242v179c0 142-104 242-246 242z m-217-358h-41v-42c0-17-13-29-30-29-16 0-29 12-29 29v42h-41c-17 0-30 12-30 29 0 16 13 29 30 29h41v42c0 16 13 29 29 29 17 0 30-13 30-29v-42h41c17 0 29-13 29-29 0-17-12-29-29-29z m175 66l0 0c-21 0-33 13-33 29 0 17 12 30 29 30h4c17 0 29-13 29-30 5-16-12-29-29-29z m71-137l0 0c-21 0-33 12-33 29 0 17 12 29 29 29h4c17 0 29-12 29-29 0-17-12-29-29-29z" horiz-adv-x="1000" />

<glyph glyph-name="iconly-game-broken" unicode="&#xe9b2;" d="M646 313c4 4 4 8 8 8 0 4 4 8 4 12 0 9-4 17-8 21-4 4-8 4-12 9-9 4-17 4-25 0-5 0-9-5-9-9-4-4-8-12-8-21 0-8 4-16 8-20 13-13 29-13 42 0z m271 58c-4 129-113 225-246 225-17 0-29-13-29-29 0-17 12-29 29-29 100 0 183-71 187-171 0-4 0-9 0-13v-179c0-46-16-92-50-125-33-33-79-54-125-54-4 0-8 0-12 0-117 0-229 0-346 0-100-4-179 71-187 171 0 4 0 8 0 12v179c0 96 79 180 179 180 4 0 8 0 12 0 0 0 0 0 0 0h196c17 0 29 12 29 29v37c0 59-50 109-108 109h0-42 0c-4 0-12 4-16 8-9 4-13 12-13 17 0 16-12 29-29 29h0c-13 0-29-13-29-29 0-21 8-42 25-59 16-16 37-21 58-25h42 0c29 0 50-25 54-50v-8l-167 0c-4 0-8 0-16 0-130-4-234-113-230-242v-179c0-4 0-8 0-17 5-129 117-233 246-225 54 0 113 0 171 0 58 0 117 0 171 0 4 0 8 0 17 0 62 0 120 29 166 71 42 46 67 104 67 167v179c-4 8-4 17-4 21z m-538-208l0 0c17 0 34 12 34 33v42h41c13 0 25 4 29 16 9 9 9 25 0 34-8 8-16 16-29 16h-41v42c0 17-13 33-34 33s-33-12-33-33v-42h-42c-12 0-25-4-29-16-8-9-8-25 0-34 8-8 17-16 29-16h42v-42c0-17 17-33 33-33z m338 12c12 13 12 33 0 46-4 4-9 4-9 8-12 4-25 0-33-8-12-13-12-33 0-46 13-12 29-12 42 0z" horiz-adv-x="1000" />

<glyph glyph-name="iconly-graph-bold" unicode="&#xe9b3;" d="M771 313l0 0-279-17c-17 0-34 8-42 25-4 8-4 17-4 25-4 37-4 75-8 112-5 50-9 96-9 146 0 4-4 9-4 13-12 21-33 29-50 25-167-38-287-184-292-350 0-13 0-29 5-42 4-46 20-92 41-129 79-142 242-213 400-179 159 33 275 166 288 325 0 12-4 25-13 33-8 8-21 13-33 13z m-233 454c-9 0-17-4-25-9-9-4-13-12-13-25v-4l21-312c0-13 4-21 12-29 9-9 17-13 30-9l320 21c9 0 17 4 25 13 5 8 9 16 9 25 0 0 0 4 0 4-29 179-188 321-379 325z" horiz-adv-x="1000" />

<glyph glyph-name="iconly-graph-broken" unicode="&#xe9b4;" d="M742 250c-17 4-38-4-42-21-37-129-158-212-292-204-133 8-241 113-254 242 0 8-4 21 0 29 0 133 92 246 221 275 17 4 29 21 25 37s-21 34-42 30c-158-34-275-175-275-338 0-12 0-25 5-42 12-112 83-212 183-266 104-55 225-50 325 4 83 46 142 121 167 212 4 9 0 17-5 25 0 9-8 13-16 17z m175 188c-29 175-179 304-354 308-17 0-34-8-46-21-13-12-17-29-17-46l17-271c4-33 33-62 66-62h0l275 17c17 0 34 8 42 20 13 13 17 30 17 46l0 9 0 0z m-338-25l-16 266c141-4 262-108 287-250l-271-16z" horiz-adv-x="1000" />

<glyph glyph-name="iconly-heart-broken" unicode="&#xe9b5;" d="M883 600c-33 63-87 113-154 133-79 25-162 13-229-29-67 46-154 54-229 29-67-20-125-70-154-133-38-79-42-167-17-246 25-75 67-141 125-200 75-75 158-141 250-196 4-4 13-4 17-4 12 0 25 8 29 21 4 12 0 29-13 33-87 55-166 117-241 188-50 50-88 108-109 175-20 67-16 137 13 200 25 50 67 87 121 100 66 21 137 8 191-33 13-9 25-9 38 0 54 41 125 54 192 33 50-17 95-54 120-100 30-63 34-133 13-200-25-67-63-125-108-175-34-33-71-67-109-96-8-4-12-12-12-21 0-8 0-16 4-25 8-12 29-16 42-8l4 0c41 29 79 67 116 104 55 54 96 125 125 200 17 83 13 171-25 250z m-183-154c4-17 17-29 33-25 9 0 17 4 21 12 4 9 9 17 4 21-4 59-45 109-100 125-12 0-29-8-33-21s0-29 13-37c37-8 62-42 62-75z" horiz-adv-x="1000" />

<glyph glyph-name="iconly-heart-light" unicode="&#xe9b6;" d="M738 742c-80 25-167 12-238-29-71 45-158 54-237 29-167-54-221-238-171-384 25-75 71-145 129-204 79-75 162-141 258-200 0 0 0 0 0 0l9-4c4-4 12-4 16-4 4 0 13 0 17 4l8 4c92 59 179 125 259 200 58 59 100 125 129 204 41 146-13 330-179 384z m112-363c-25-66-62-129-112-179-71-71-155-133-238-187-87 54-167 116-237 187-50 50-88 113-113 179-37 113-4 259 133 304 21 9 46 13 67 13 46 0 92-17 129-46 13-8 25-8 38 0 58 42 129 54 196 33 141-45 175-191 137-304z m-183 209c-17 4-34-5-38-21-4-17 4-34 21-38 33-8 54-37 58-75 0-16 17-29 30-29 0 0 0 0 4 0 16 0 29 17 29 33-8 59-50 109-104 130z" horiz-adv-x="1000" />

<glyph glyph-name="iconly-folder-light" unicode="&#xe9b7;" d="M692 658h-117c-21 0-37 9-50 25l-37 50c-30 34-67 55-105 55h-83c-158 0-237-92-237-271v-325c0-167 104-267 266-267h325c167 0 267 104 267 267l0 208c4 179-71 258-229 258z m171-466c0 0 0 0 0 0 0-134-75-205-205-205h-325c-133 0-204 76-204 205v325c-4 146 50 208 171 208h83c21 0 38-8 50-25l38-50c25-33 62-50 100-50h117c125 0 175-54 175-196l0-212z m-167 87h-400c-17 0-33-12-33-33s12-33 33-33h400c17 0 33 12 33 33s-16 33-33 33z" horiz-adv-x="1000" />

<glyph glyph-name="iconly-graph-light" unicode="&#xe9b8;" d="M929 450c-29 179-179 313-362 317-17 0-34-4-46-17-13-12-21-25-21-42 0 0 0-4 0-4l17-279c4-33 29-62 66-62 0 0 5 0 5 0l279 16c16 0 29 9 41 21 13 13 17 29 17 42v0c4 4 4 4 4 8z m-341-29c0 0-5 4 0 0l-25 279c150-4 275-112 300-262l-275-17z m125-121l-238-12c-4 0-8 0-8 4-4 4-4 4-4 8l-17 238c0 8-4 16-4 20-13 30-46 46-75 42 0 0 0 0-4 0-159-33-280-179-280-346 0-16 0-29 5-41 4-46 20-88 41-130 63-112 184-183 309-183 25 0 50 4 75 8 150 34 266 167 275 321 0 21-9 38-21 50-13 17-34 25-54 21z m-213-329c-125-29-254 33-317 142-16 33-29 66-33 104 0 12-4 21 0 33-4 142 92 258 225 288 0 0 0 0 4 0 4 0 9 0 9-5l16-237c0-21 13-38 25-50 17-13 34-21 54-17l234 13c0 0 4 0 4 0 0 0 4-4 4-4-8-130-100-238-225-267z" horiz-adv-x="1000" />

<glyph glyph-name="iconly-game-light" unicode="&#xe9b9;" d="M450 292h-50v46c0 16-12 33-33 33s-34-13-34-33v-46h-45c-17 0-34-13-34-34s13-33 34-33h50v-46c0-16 12-33 33-33s33 12 33 33v46h50c17 0 34 13 34 33s-21 34-38 34z m192 71h-4c-17 0-34-13-34-34s13-29 34-29h4c16 0 33 13 33 29s-17 34-33 34z m75-150h-4c-17 0-34-13-34-34s13-33 34-33h4c16 0 33 12 33 33s-17 34-33 34z m-34 400c-41 0-87 0-129 0l0 8c0 62-54 117-121 117h-41c-13 4-25 16-25 29 0 16-13 33-34 33s-29-17-29-33c0-50 42-88 88-88h46c33 0 58-25 58-54v-8c-63 0-121 0-179 0-154 0-263-109-263-259v-191c0-150 113-259 263-259 62 0 125 0 183 0 63 0 125 0 183 0 155 0 263 109 263 259v191c4 146-108 255-263 255z m205-450c0-113-84-196-200-196 0 0 0 0 0 0-121 0-246 0-367 0-117 0-200 83-200 196v191c0 113 83 196 200 196 58 0 121 0 183 0 63 0 125 0 188 0 116 0 200-83 200-196v-191z" horiz-adv-x="1000" />

<glyph glyph-name="iconly-heart-bold" unicode="&#xe9ba;" d="M738 733c-25 9-50 13-80 13-58 0-112-17-158-54-4 4-8 4-12 8 0 0 0 0 0 0 0 0-5 4-5 4-4 4-8 4-12 9l-17 8c-8 4-16 4-25 8 0 0-4 0-4 4h-4c-25 9-50 13-75 13h-4c-13 0-25 0-34-4h-8c-12 0-25-4-37-9-155-50-209-216-163-366 25-75 71-146 125-200 79-79 171-146 267-209l12-8 13 8c96 59 183 130 262 209 54 54 100 125 125 200 42 150-12 316-166 366z m66-254c0-16-16-33-33-33-8 0-17 4-25 12-4 9-8 17-8 25v0c0 30-17 55-46 67-17 4-25 25-21 42 4 16 25 25 42 21 54-21 87-75 87-134v0z" horiz-adv-x="1000" />

<glyph glyph-name="iconly-hide-bold" unicode="&#xe9bb;" d="M342 317c0 8-4 21-4 29 0 92 70 162 162 162 13 0 21 0 29-4l138 142c-50 25-109 42-167 42h0c-171 0-325-121-412-325-5-9-5-17 0-25 29-67 62-125 104-171l150 150z m571 46c-38 87-88 162-146 216l75 75c12 13 12 34 0 42-13 12-29 12-42 0l-37-38c0 0 0 0 0-4v0c0 0 0 0 0-4l-609-604 0 0c-8-13-8-29 4-38 5-4 13-8 21-8s17 4 21 8l79 80c67-46 142-75 221-75h0c171 0 329 120 413 325 4 8 4 16 0 25z m-413-175c-33 0-67 12-92 29l46 46c13-9 29-13 46-13 54 0 100 46 100 104 0 17-4 34-12 46l45 46c17-25 30-58 30-92 0-96-75-166-163-166z" horiz-adv-x="1000" />

<glyph glyph-name="iconly-hide-broken" unicode="&#xe9bc;" d="M850 696c-12 12-29 12-42 0l-87-88c-142 100-325 92-463-12-70-54-129-133-175-233-4-9-4-17 0-25 21-46 42-88 71-125 4-9 17-13 25-13 4 0 13 0 17 4 12 9 17 29 8 42-21 29-41 62-58 100 37 83 92 150 150 196 112 87 258 96 379 16l-83-83c-25 17-59 29-92 29-92 0-162-71-162-158 0-33 8-63 29-92l-217-212c-12-13-12-29 0-42 4-4 13-8 21-8 8 0 17 4 21 8l658 654c13 13 13 29 0 42z m-442-392c-8 13-12 29-12 46 0 54 46 100 100 100 17 0 33-4 46-12l-134-134z m192 29c-8-41-42-70-83-79-17-4-29-16-25-33 4-13 16-25 29-25 0 0 4 0 4 0 67 12 117 62 129 129 4 17-8 33-25 33-12 0-25-8-29-25z m313 30c-21 50-50 95-80 137-8 13-29 17-41 4-13-8-17-29-4-41 25-34 45-71 66-113-79-171-208-271-354-271-33 0-67 4-96 17-16 4-33-4-37-21-4-17 4-33 21-37 37-13 75-17 116-17 171 0 325 121 413 317 0 8 0 16-4 25z" horiz-adv-x="1000" />

<glyph glyph-name="iconly-home-broken" unicode="&#xe9bd;" d="M433 4l0 0-166 0c-54 0-96 46-100 96v333c0 17 8 34 21 46l29 21c12 13 12 29 4 42s-25 16-42 8l-25-17c-33-25-50-58-50-100v-333c0-92 75-163 163-163h166c17 0 34 17 34 34 0 21-13 33-34 33z m409 529l-250 200c-54 46-134 46-188 0l-83-58c-13-8-17-29-8-46s33-16 45-8l84 62c33 25 79 25 108 0l250-200c13-12 25-29 25-45v-334c0-54-46-96-96-96h-75c-8 0-12 5-12 13v150c0 46-38 87-88 87h-108c-25 0-46-8-63-25-16-16-25-37-25-62v-58c0-17 17-34 34-34 16 0 33 17 33 34v58c0 4 0 12 4 17 4 4 9 8 17 8h108c13 0 21-8 21-21v-150c0-42 38-79 79-79h71c92 0 163 75 163 162l0 334c0 33-17 66-46 91z" horiz-adv-x="1000" />

<glyph glyph-name="iconly-home-bold" unicode="&#xe9be;" d="M858 517l-279 221c-50 37-116 37-162-5l-271-216c-25-21-38-50-42-79v-363c0-79 63-142 146-142h79c29 0 50 21 50 50l0 0v130c0 33 25 58 59 58h120c17 0 30-4 42-17 13-12 17-25 17-41v-130c0-12 4-25 16-37s21-17 38-17h83c38 0 75 17 100 42 25 25 42 62 42 100v367c0 33-13 62-38 79z" horiz-adv-x="1000" />

<glyph glyph-name="iconly-image2-bold" unicode="&#xe9bf;" d="M354 600c-58 0-104-46-104-104 0-4 0-13 4-21 9-46 50-83 100-83 59 0 104 46 104 104 0 29-12 54-29 75-21 17-46 29-75 29z m329 167h-366c-138 0-234-100-234-246v-342c0-66 17-121 50-162 0 0 0 0 0 0 0 0 0 0 0 0 34-42 80-67 138-80 0 0 0 0 0 0 17-4 33-4 46-4h362c4 0 9 0 13 0 4 0 4 0 8 0 4 0 4 0 8 0 5 0 13 0 17 0 8 0 21 4 29 9 0 0 0 0 4 0 0 0 5 0 5 0 4 0 4 0 8 4 8 4 21 8 29 12 0 0 4 0 4 0 4 0 4 0 4 4 9 5 17 13 25 21 0 0 0 0 5 4 0 0 4 5 4 5 8 8 16 16 21 25 0 0 0 4 4 4 0 0 4 4 4 4 8 8 12 21 17 29 0 0 0 4 0 4 0 0 0 5 4 5 4 12 8 20 12 33l0 0c0 4 0 4 4 8 5 13 5 25 9 38 0 0 0 0 0 4 0 0 0 0 0 4 0 0 0 4 0 4 0 0 0 4 0 4 0 5 0 5 0 9 0 4 0 8 0 12v342c0 146-96 246-234 246z m175-467c-16 17-75 54-83 58-58 34-129 21-175-41 0 0 0-4-4-4-17-21-67-96-88-109-4-4-12-4-16-4-17 0-29 8-54 21 0 0-5 0-5 4-12 8-25 17-41 25-71 29-125-21-154-54 0 0-38-42-59-75-12-17-21-25-21-29-8 25-16 54-16 83v346c0 112 71 187 175 187h362c109 0 179-75 179-187v-221z" horiz-adv-x="1000" />

<glyph glyph-name="iconly-image2-broken" unicode="&#xe9c0;" d="M263 483c0-58 45-108 108-108 58 0 108 46 108 108 0 59-46 109-108 109-63 0-108-50-108-109z m154 0c0-25-21-50-50-50-25 0-50 21-50 50 0 25 21 50 50 50 29 0 50-20 50-50z m471-91c16 0 29 12 29 29v100c0 146-96 246-234 246h-366c-138 0-234-100-234-246v-342c0-146 96-246 234-246h362c142 0 234 100 234 246l0 59c0 8-5 16-13 20-8 9-17 17-29 25l0 0 0 0c-50 46-117 100-196 80-58-13-87-59-112-96l0 0 0 0c-17-25-34-50-59-63-21-12-50-4-87 13l0 4c-71 29-129 21-175-25-13-13-13-29 0-42 12-12 29-12 41 0 30 34 63 38 113 13l8-4 0 0c38-17 92-42 142-9 33 21 54 50 75 84l0 0c25 33 42 62 79 70 50 13 100-29 146-66l0 0c0 0 0 0 0 0 4-4 12-9 17-17v-46c0-112-71-187-175-187h-371c-109 0-175 75-175 187v342c0 112 71 187 175 187h362c109 0 175-75 175-187v-100c4-13 17-29 34-29z" horiz-adv-x="1000" />

<glyph glyph-name="iconly-image-bold" unicode="&#xe9c1;" d="M679 767h-358c-142 0-238-100-238-246v-342c0-146 96-246 238-246h362c142 0 238 100 238 246v342c-4 146-100 246-242 246z m-325-167c59 0 104-46 104-104s-45-104-104-104c-58 0-104 46-104 104s46 104 104 104z m463-487c-17-42-50-75-96-88-17-4-38-8-54-8h-354c-34 0-67 8-92 25-17 8-17 33-8 46 20 25 37 50 58 75 37 45 62 62 92 50 12-5 20-13 33-21 33-21 75-50 133-21 38 21 63 58 84 92l0 0c0 4 4 4 4 8 8 12 12 21 21 33 8 13 45 50 87 25 29-16 54-41 79-66 9-9 17-21 21-34 17-37 8-79-8-116z" horiz-adv-x="1000" />

<glyph glyph-name="iconly-image-broken" unicode="&#xe9c2;" d="M358 367c59 0 105 46 105 104s-50 104-105 104c-58 0-104-46-104-104s46-104 104-104z m0 146c25 0 42-21 42-42s-21-42-42-42c-25 0-41 17-41 42s16 42 41 42z m255-221c8 8 16 12 29 12 12 0 21-4 29-12l87-88c13-12 34-12 46 0 13 13 13 34 0 46l-87 88c-21 20-50 33-75 29-29 0-54-17-75-38l-92-112c-4-9-12-9-21-9-8 0-16 5-21 9l-37 37c-17 17-42 25-67 29-25 0-46-8-66-29l-63-66c-12-13-12-34 0-46 4-4 13-9 21-9 8 0 17 5 21 9l62 66c4 5 13 9 21 9 8 0 13-4 21-9l37-37c17-17 42-29 71-29 25 0 50 12 67 33l92 117z m66 475h-358c-142 0-238-100-238-246v-338c0-145 96-246 238-246h29c17 0 33 13 33 34s-12 33-33 33h-29c-104 0-175 71-175 184v333c0 112 67 183 175 183h358c104 0 175-71 175-183v-338c0-112-66-183-175-183h-137c-17 0-34-13-34-33s13-34 34-34h137c142 0 238 100 238 246v342c0 146-96 246-238 246z" horiz-adv-x="1000" />

<glyph glyph-name="iconly-info-circle-bold" unicode="&#xe9c3;" d="M500 767c-229 0-417-188-417-417 0-229 188-417 417-417 229 0 417 188 417 417 0 229-188 417-417 417z m-37-259c0 21 16 38 37 38 21 0 38-17 38-38v-183c0-21-17-37-38-37-21 0-37 16-37 37v183z m37-354c-21 0-37 17-37 38s16 37 37 37c21 0 38-16 38-37s-17-38-38-38z" horiz-adv-x="1000" />

<glyph glyph-name="iconly-info-circle-broken" unicode="&#xe9c4;" d="M500 767c-229 0-417-188-417-417 0-21 0-42 5-62 4-17 16-30 33-25 17 4 29 16 25 33-4 17-4 37-4 54 0 196 158 354 354 354 196 0 354-158 354-354 0-196-158-354-354-354-113 0-213 50-283 137-9 13-30 17-42 5-13-9-17-30-4-42 83-104 204-163 333-163 229 0 417 188 417 417 0 229-188 417-417 417z m0-542l0 0c-17 0-33-12-33-33s12-34 33-34c17 0 33 13 33 34s-16 33-33 33z m0 313c-17 0-33-13-33-34v-183c0-17 12-33 33-33s33 12 33 33v187c-4 17-16 30-33 30z" horiz-adv-x="1000" />

<glyph glyph-name="iconly-info-square-bold" unicode="&#xe9c5;" d="M679 767h-358c-142 0-238-100-238-246v-342c0-146 96-246 238-246h362c142 0 238 100 238 246v342c-4 146-100 246-242 246z m-141-575c0-21-17-38-38-38-21 0-37 17-37 38v183c0 21 16 38 37 38 21 0 38-17 38-38v-183z m-38 279c-21 0-37 17-37 37 0 21 16 38 37 38 21 0 38-17 38-38 0-20-17-37-38-37z" horiz-adv-x="1000" />

<glyph glyph-name="iconly-info-square-broken" unicode="&#xe9c6;" d="M467 192c0-17 12-34 33-34s33 13 33 34v183c0 17-12 33-33 33s-33-12-33-33v-183z m187 575h-308c-163 0-263-100-263-263v-96c0-16 13-33 34-33h0 0c16 0 33 13 33 33v0 96c0 125 71 196 196 196h312c130 0 196-71 196-196v-312c0-125-71-196-196-196h-312c-129 0-196 71-196 196 0 16-12 33-33 33-21 0-34-12-34-33 0-159 100-259 259-259h312c163 0 263 100 263 259v312c0 163-100 263-263 263z m-154-292l0 0c17 0 33 13 33 33s-16 30-33 30-33-13-33-34 16-29 33-29z" horiz-adv-x="1000" />

<glyph glyph-name="iconly-location-bold" unicode="&#xe9c7;" d="M500 767c-192 0-354-154-354-346 0-96 33-188 92-263 62-83 141-158 229-212 21-13 41-13 62 0 88 58 167 129 229 212 59 75 92 167 92 263 4 192-154 346-350 346z m0-471c-62 0-117 50-117 117 0 62 55 116 117 116 63 0 117-54 117-116 0-67-54-117-117-117z" horiz-adv-x="1000" />

<glyph glyph-name="iconly-location-broken" unicode="&#xe9c8;" d="M500 767l0 0c-196 0-354-159-354-354 4-92 33-180 92-255 58-79 150-162 237-221 4-4 13-4 17-4 8 0 21 4 25 13 8 12 4 33-9 41-79 55-166 134-220 205-50 62-75 137-80 216 0 159 134 292 292 292h0c163 0 292-133 292-296-4-121-75-221-138-287-16-21-37-38-58-54-13-13-17-30-4-46 12-13 29-13 46-4 20 16 41 37 62 58 71 71 154 187 154 329v4c0 204-158 363-354 363z m0-434c-42 0-71 34-71 71 0 17-12 29-29 29s-29-12-29-29c0-75 62-133 133-133s134 58 134 133c0 75-63 134-134 134-16 0-29-13-29-30 0-16 13-29 29-29 42 0 71-33 71-71-4-41-33-75-75-75z" horiz-adv-x="1000" />

<glyph glyph-name="iconly-lock-bold" unicode="&#xe9c9;" d="M729 479v63c0 125-104 225-229 225-125 0-229-100-229-225v-63c-71-21-125-87-125-166v-205c0-95 79-175 179-175h354c100 0 179 80 179 175v205c-4 79-58 141-129 166z m-191-316c0-21-17-38-38-38-21 0-37 17-37 38v91c0 21 16 38 37 38 21 0 38-17 38-38v-91z m116 325h-308v54c0 83 71 150 154 150 88 0 154-67 154-154v-50z" horiz-adv-x="1000" />

<glyph glyph-name="iconly-login-bold" unicode="&#xe9ca;" d="M704 767h-208c-104 0-192-84-192-188v-200h267l-71 71c-12 13-12 33 0 46s33 12 46 0l125-121c8-4 8-12 8-21 0-8-4-16-8-21l-125-120c-8-5-17-9-25-9-8 0-17 4-25 9-13 12-13 33 0 45l71 67h-263v-200c0-100 88-183 192-183h208c104 0 192 83 192 183v458c0 100-88 184-192 184z m-600-417c0-17 17-33 34-33h166v62h-166c-17 4-34-12-34-29z" horiz-adv-x="1000" />

<glyph glyph-name="iconly-lock-broken" unicode="&#xe9cb;" d="M533 167v91c0 17-12 34-33 34-17 0-33-13-33-34v-91c0-17 12-34 33-34 17 0 33 17 33 34z m192 312v67c0 121-100 221-225 221h0c-125 0-225-100-225-221v-67c-75-25-129-96-129-179v-179c0-104 87-188 192-188 0 0 0 0 0 0 0 0 0 0 0 0 0 0 0 0 0 0 0 0 0 0 0 0 16 0 33 13 33 34s-13 33-33 33c-71 0-130 58-130 125 0 0 0 4 0 4 0 0 0 0 0 0v171c0 71 59 125 130 125h325c70 0 129-58 129-125v-171c0 0 0 0 0 0 0 0 0-4 0-4 0-71-59-125-129-125h-142c-17 0-33-13-33-33s12-34 29-34h141 0c105 0 192 84 192 188v179c4 83-50 154-125 179z m-62 13h-325v54c0 87 70 158 162 158h0c88 0 163-71 163-158v-54z" horiz-adv-x="1000" />

<glyph glyph-name="iconly-login-broken" unicode="&#xe9cc;" d="M542 408c8 0 16 5 21 9 12 12 12 33 0 46l-30 29c-12 12-33 12-45 0-13-13-13-34 0-46l29-29c12-4 21-9 25-9z m-50-158c-13-12-13-33 0-46 4-8 12-8 21-8s16 4 20 8l121 121c9 8 13 25 9 33-5 13-17 21-30 21h-500c-16 0-33-12-33-33s13-33 33-33h421l-62-63z m212 517h-212c-104 0-192-84-192-184v-37c0-17 17-33 33-33 17 0 34 12 34 33v37c0 67 58 121 125 121h212c71 0 125-54 125-121v-316c0-17 17-34 34-34 16 0 33 13 33 34v316c0 100-88 184-192 184z m159-617c-17 0-34-12-34-33 0-67-58-121-125-121h-212c-71 0-125 54-125 121v37c0 17-17 34-34 34-16 0-33-13-33-34v-37c0-100 88-184 192-184h212c104 0 192 84 192 184 0 21-17 33-33 33z" horiz-adv-x="1000" />

</font>
</defs>
</svg>
