<svg width="407" height="374" viewBox="0 0 407 374" fill="none" xmlns="http://www.w3.org/2000/svg">
<g filter="url(#filter0_d_245_87)">
<path fill-rule="evenodd" clip-rule="evenodd" d="M21.4905 293.83C12.1017 293.83 4.49048 286.219 4.49048 276.83L4.4905 21.8325C4.4905 12.4437 12.1016 4.83252 21.4905 4.83252L381.106 4.83255C390.495 4.83255 398.106 12.4437 398.106 21.8326L398.106 276.83C398.106 286.219 390.495 293.83 381.106 293.83L197.321 293.83L218.106 365.33L135.798 293.83H21.4905Z" fill="white"/>
</g>
<path d="M319.473 368.13C358.829 368.13 390.733 336.226 390.733 296.87C390.733 257.514 358.829 225.61 319.473 225.61C280.117 225.61 248.213 257.514 248.213 296.87C248.213 336.226 280.117 368.13 319.473 368.13Z" fill="white"/>
<path d="M386.733 296.87C386.733 334.017 356.62 364.13 319.473 364.13C282.326 364.13 252.213 334.017 252.213 296.87C252.213 259.723 282.326 229.61 319.473 229.61C356.62 229.61 386.733 259.723 386.733 296.87Z" fill="white" stroke="#F4CD30" stroke-width="8"/>
<mask id="mask0_245_87" style="mask-type:alpha" maskUnits="userSpaceOnUse" x="248" y="179" width="143" height="190">
<path d="M319.473 368.13C358.829 368.13 390.733 336.226 390.733 296.87C390.733 257.514 376.26 179.46 336.904 179.46C297.548 179.46 248.213 257.514 248.213 296.87C248.213 336.226 280.117 368.13 319.473 368.13Z" fill="#CE1414"/>
</mask>
<g mask="url(#mask0_245_87)">
<path d="M235.213 358.81C228.573 364.28 221.673 374.1 218.293 375.24C214.913 376.38 209.643 376.03 201.883 390.85C194.123 405.67 219.163 408.04 219.163 408.04C219.163 408.04 230.813 403.92 237.753 390.04L250.023 382.61L235.213 358.81Z" fill="#F6A397"/>
<path d="M282.463 309.33C273.893 313.47 268.653 316.65 263.523 323.47C258.393 330.29 229.923 352.96 227.973 355.09C226.023 357.22 236.083 385.45 246.723 393.87C246.723 393.87 268.273 376.61 279.963 370.73C291.653 364.85 293.213 336.62 290.133 326.48C288.319 320.459 285.741 314.696 282.463 309.33V309.33Z" fill="#5470D3"/>
<path d="M273.083 358.92L275.893 343.59C275.893 343.59 278.033 343.15 278.643 348.59C278.819 350.685 278.54 352.794 277.823 354.77L290.823 348.25C289.533 357.98 286.183 367.51 279.933 370.66C268.243 376.54 246.693 393.8 246.693 393.8C243.943 391.63 241.243 388.13 238.773 384.11C247.373 378.25 263.673 366.84 273.083 358.92Z" fill="#314EC6"/>
<path d="M401.303 342.46C395.303 331.19 392.863 329.7 385.713 323.56C378.563 317.42 350.353 300 344.373 297.33C338.393 294.66 310.993 301.82 302.023 304.05C293.053 306.28 281.833 308.05 279.373 311.38C271.113 322.53 279.833 342.08 273.233 378.47C269.773 397.53 266.233 441.17 266.233 441.17C266.233 441.17 361.573 458.83 363.233 457.07C364.893 455.31 380.813 387.5 385.053 373.79C389.293 360.08 401.303 342.46 401.303 342.46Z" fill="#5470D3"/>
<path d="M276.213 330.66C275.952 328.243 275.875 325.809 275.983 323.38C276.054 320.95 276.315 318.529 276.763 316.14C277.026 318.557 277.099 320.991 276.983 323.42C276.92 325.85 276.663 328.271 276.213 330.66Z" fill="#314EC6"/>
<path d="M314.493 322.86C311.063 320.81 301.893 321.61 300.193 321.86C298.493 322.11 302.283 315.76 303.373 315.09C304.463 314.42 306.373 312.73 309.053 314.09C311.733 315.45 313.583 319.25 313.803 320.41C313.964 321.245 314.194 322.064 314.493 322.86Z" fill="#314EC6"/>
<path d="M344.153 334.19C342.853 333.88 335.833 328.95 334.153 327.74C332.473 326.53 324.213 324.59 318.373 325.13C318.373 325.13 330.453 319.84 336.703 321.05C342.953 322.26 344.913 324.95 345.043 327.05C344.953 329.451 344.655 331.84 344.153 334.19V334.19Z" fill="#314EC6"/>
<path d="M284.463 428.68C285.673 427.87 347.583 441.28 350.033 435.01C352.483 428.74 355.503 417.01 355.503 417.01C347.273 419.64 336.693 416.01 336.693 416.01C344.393 415.01 357.083 405.01 358.223 401.57C361.753 391.05 361.433 360.23 361.433 360.23L367.223 352.5L372.673 350.66C378.523 355.3 383.587 360.851 387.673 367.1C386.719 369.291 385.881 371.531 385.163 373.81C381.163 386.74 366.823 447.74 363.773 456.15C344.313 453.33 309.103 448.21 285.553 444.73C274.213 442.73 266.263 441.2 266.263 441.2C266.263 441.2 267.143 435.54 268.263 427.4C274.883 428.21 283.713 429.19 284.463 428.68Z" fill="#314EC6"/>
<path d="M316.513 325.11C323.383 325.53 335.253 321.69 339.143 324.47C343.033 327.25 343.093 332.57 343.803 333.61C344.513 334.65 349.083 330.95 351.053 320.19C353.023 309.43 355.373 298.46 347.723 295.51C340.073 292.56 318.123 296.51 313.423 298.93C309.76 300.661 306.717 303.475 304.703 306.99C303.013 309.83 297.763 321.54 299.113 321.92C300.463 322.3 305.823 315 308.743 315.28C311.663 315.56 314.653 325 316.513 325.11Z" fill="#5470D3"/>
<path d="M314.463 314.77C313.463 310.39 312.263 306.48 312.843 303.67C313.423 300.86 314.403 299.04 317.693 298.74C320.983 298.44 321.993 300.37 321.393 304.66C320.793 308.95 314.463 314.77 314.463 314.77Z" fill="#314EC6"/>
<path d="M340.383 311.69C348.013 306.95 349.973 300.45 349.613 298.96C349.253 297.47 346.723 295.96 346.723 295.96C346.723 295.96 344.873 300.08 345.303 301.26C345.733 302.44 340.383 311.69 340.383 311.69Z" fill="#314EC6"/>
<path d="M327.343 324.12C330.793 323.36 334.393 322.82 338.003 323.63C338.96 323.826 339.835 324.307 340.513 325.01C341.093 325.81 341.513 326.52 342.003 327.31C342.863 328.892 343.512 330.58 343.933 332.33C343.998 332.659 344.135 332.969 344.333 333.24C344.333 333.24 344.333 333.24 344.473 333.24C344.627 333.157 344.772 333.056 344.903 332.94C345.518 332.35 346.077 331.704 346.573 331.01C347.6 329.616 348.419 328.08 349.003 326.45C349.634 324.817 350.165 323.147 350.593 321.45C351.063 319.74 351.433 318.01 351.773 316.27C351.52 319.827 350.849 323.341 349.773 326.74C349.231 328.478 348.421 330.121 347.373 331.61C346.845 332.365 346.245 333.069 345.583 333.71C345.384 333.888 345.162 334.04 344.923 334.16C344.764 334.238 344.59 334.283 344.413 334.29C344.196 334.298 343.981 334.235 343.803 334.11C343.536 333.911 343.332 333.641 343.213 333.33C343.122 333.109 343.045 332.881 342.983 332.65C342.61 330.956 342.015 329.318 341.213 327.78C340.803 327.025 340.356 326.29 339.873 325.58C339.331 324.997 338.639 324.575 337.873 324.36C336.192 323.909 334.452 323.714 332.713 323.78C330.918 323.78 329.124 323.894 327.343 324.12V324.12Z" fill="#314EC6"/>
<path d="M312.343 319.05C311.752 318.272 311.114 317.53 310.433 316.83C310.108 316.491 309.749 316.187 309.363 315.92C309.19 315.804 309.002 315.713 308.803 315.65C308.727 315.641 308.65 315.641 308.573 315.65C308.503 315.65 308.473 315.65 308.333 315.72C306.577 316.45 304.993 317.54 303.683 318.92C303.003 319.58 302.373 320.36 301.583 321.02C301.19 321.369 300.757 321.671 300.293 321.92C300.008 322.085 299.682 322.165 299.353 322.15C299.239 322.142 299.127 322.111 299.025 322.058C298.924 322.004 298.834 321.93 298.763 321.84C298.646 321.686 298.573 321.503 298.553 321.31C298.514 320.767 298.589 320.222 298.773 319.71C298.923 319.23 299.103 318.71 299.293 318.3C299.704 317.4 300.161 316.522 300.663 315.67C300.353 316.61 300.013 317.53 299.763 318.47C299.62 318.93 299.5 319.397 299.403 319.87C299.302 320.295 299.272 320.735 299.313 321.17C299.323 321.225 299.347 321.277 299.383 321.32V321.32C299.546 321.294 299.703 321.236 299.843 321.15C300.23 320.907 300.592 320.625 300.923 320.31C301.613 319.69 302.223 318.94 302.923 318.22C303.635 317.502 304.416 316.856 305.253 316.29C306.106 315.733 307.031 315.296 308.003 314.99C308.158 314.938 308.32 314.908 308.483 314.9C308.646 314.905 308.807 314.932 308.963 314.98C309.226 315.086 309.472 315.231 309.693 315.41C310.081 315.746 310.433 316.121 310.743 316.53C311.355 317.317 311.891 318.161 312.343 319.05Z" fill="#314EC6"/>
<path d="M318.023 290.15C317.553 292.8 317.173 295.46 316.963 298.15C316.453 304.73 314.233 313.15 314.463 314.78C314.703 316.64 316.943 323.52 316.943 323.52C316.943 323.52 323.453 321.86 326.503 319.32C329.553 316.78 332.843 317.22 338.033 313.59C343.223 309.96 347.493 303.47 347.593 297.44C347.593 296.66 348.213 289.03 349.463 281.24C350.713 273.45 343.643 266.04 335.883 264.62C328.123 263.2 321.363 273.86 319.703 281.62C319.013 284.75 318.453 287.73 318.023 290.15Z" fill="#F6A397"/>
<path d="M349.463 281.23C348.213 289.02 347.603 296.65 347.593 297.43C347.535 299.363 347.132 301.269 346.403 303.06C344.623 303.06 322.403 299.54 317.193 295.83C317.4 293.93 317.676 292.037 318.023 290.15C318.453 287.73 319.023 284.75 319.703 281.58C320.541 277.908 322.072 274.429 324.213 271.33L343.613 268.21C347.643 271.41 350.263 276.23 349.463 281.23Z" fill="#D65863"/>
<path d="M312.933 241.13C301.193 238.98 295.143 247.2 293.933 253.96C292.823 260.02 292.983 270.09 307.183 272.69C314.273 273.99 320.373 267.81 321.973 259.09C323.573 250.37 320.033 242.43 312.933 241.13Z" fill="#504984"/>
<path d="M311.703 244.9C302.843 243.33 298.273 249.48 297.333 254.59C296.493 259.17 296.623 266.77 307.333 268.73C312.683 269.73 317.333 265.05 318.503 258.47C319.673 251.89 317.063 245.88 311.703 244.9Z" fill="#372D5B"/>
<path d="M297.143 243.74C297.083 247.99 298.833 249.93 298.723 255.65C298.613 261.37 294.723 268.97 297.043 276.65C299.363 284.33 303.533 294.65 306.843 295.65C310.153 296.65 338.063 297.05 350.523 280.56C354.103 275.83 363.453 256.41 360.943 243.05C358.433 229.69 352.733 216.81 334.773 213.16C316.813 209.51 297.463 221.27 297.143 243.74Z" fill="#F6A397"/>
<path d="M308.093 269C308.551 269.112 309.027 269.124 309.49 269.034C309.953 268.944 310.39 268.755 310.773 268.48C311.031 268.24 311.238 267.949 311.379 267.625C311.52 267.302 311.593 266.953 311.593 266.6C310.816 267.004 309.958 267.229 309.082 267.258C308.207 267.288 307.336 267.121 306.533 266.77C306.083 268.02 306.973 268.76 308.093 269Z" fill="#D65863"/>
<path d="M344.113 252.33C344.157 249.679 343.347 247.085 341.803 244.93C341.803 244.93 335.433 240.83 330.213 239.33C326.643 238.273 323.162 236.935 319.803 235.33C319.803 235.33 320.703 239.91 323.233 242.26C323.233 242.26 310.613 239.26 307.233 234.78C307.233 234.78 307.443 238.03 307.833 240.26C307.833 240.26 301.713 238.47 300.223 235.64C300.223 235.64 297.663 240.79 297.113 243.79C297.113 243.79 291.493 232.16 294.893 224.36C298.293 216.56 301.463 213.92 301.463 213.92C298.667 213.668 295.903 213.135 293.213 212.33C293.213 212.33 301.213 207.53 307.213 204.5C313.213 201.47 328.773 204.15 328.773 204.15C328.773 204.15 328.323 199.77 330.913 193.44C330.913 193.44 335.793 204.44 342.313 208.74C348.833 213.04 347.923 212.59 355.063 215.86C362.203 219.13 368.453 225.22 370.703 229.79C372.953 234.36 375.443 239.13 377.273 240.14C377.273 240.14 372.713 238.63 370.723 236.25C370.723 236.25 373.003 245.83 365.723 256.25C358.443 266.67 346.143 261.03 344.103 258.05C343.52 257.21 343.208 256.211 343.209 255.188C343.211 254.166 343.527 253.168 344.113 252.33V252.33Z" fill="#BA6454"/>
<path d="M344.103 258.05C343.522 257.213 343.211 256.219 343.211 255.2C343.211 254.181 343.522 253.187 344.103 252.35C344.133 250.226 343.62 248.13 342.613 246.26C346.564 235.182 347.932 223.347 346.613 211.66C348.389 212.809 350.255 213.812 352.193 214.66C354.649 220.539 356.235 226.744 356.903 233.08C357.783 241.08 357.393 249.4 353.903 256.61C352.992 258.472 351.861 260.218 350.533 261.81C347.423 260.9 344.923 259.25 344.103 258.05Z" fill="#874438"/>
<path d="M349.413 248.95C349.413 248.95 355.533 220.6 342.213 208.76C345.947 209.235 349.469 210.763 352.366 213.166C355.263 215.57 357.416 218.748 358.573 222.33C363.083 235.12 360.813 244.96 359.573 250.49C358.333 256.02 349.413 248.95 349.413 248.95Z" fill="#504984"/>
<path d="M354.213 248.69C365.953 250.84 368.703 260.69 367.463 267.43C366.343 273.5 362.623 282.85 348.463 280.25C341.363 278.95 337.853 271.01 339.463 262.25C341.073 253.49 347.083 247.39 354.213 248.69Z" fill="#504984"/>
<path d="M344.953 263.33C346.373 255.59 352.623 250.26 358.953 251.41C365.283 252.56 368.863 259.71 367.453 267.41C366.043 275.11 360.123 280.55 353.823 279.41C347.523 278.27 343.533 271.05 344.953 263.33Z" fill="#372D5B"/>
<path d="M365.635 267.116C366.6 261.852 363.908 256.948 359.621 256.162C355.335 255.376 351.078 259.006 350.113 264.27C349.148 269.534 351.84 274.438 356.126 275.224C360.412 276.01 364.669 272.38 365.635 267.116Z" fill="#504984"/>
<path d="M318.623 274.8C315.133 275.96 304.623 274.65 303.973 274.42C303.323 274.19 303.293 282.33 305.783 283.08C308.273 283.83 313.463 284.08 315.953 282.44C318.443 280.8 318.623 274.8 318.623 274.8Z" fill="#D65863"/>
<path d="M317.543 276.97C317.473 276.24 317.423 275.65 317.383 275.08C313.673 275.63 306.703 274.87 304.573 274.54C304.556 275.656 304.667 276.77 304.903 277.86C304.973 277.86 304.903 277.96 304.903 277.93C306.961 278.658 309.148 278.949 311.324 278.783C313.501 278.618 315.619 278 317.543 276.97Z" fill="white"/>
<path d="M320.673 255.73C320.943 254.29 321.863 253.26 322.733 253.42C323.603 253.58 324.103 254.87 323.843 256.31C323.583 257.75 322.653 258.78 321.783 258.62C320.913 258.46 320.413 257.16 320.673 255.73Z" fill="#3F1751"/>
<path d="M302.353 253.62C302.623 252.19 303.443 251.14 304.193 251.27C304.943 251.4 305.343 252.69 305.073 254.12C304.803 255.55 303.993 256.61 303.213 256.47C302.433 256.33 302.093 255.06 302.353 253.62Z" fill="#3F1751"/>
<path d="M331.393 247.21C330.408 246.426 329.338 245.755 328.203 245.21C327.052 244.659 325.84 244.243 324.593 243.97C323.343 243.594 322.028 243.485 320.733 243.65C319.424 243.865 318.204 244.448 317.213 245.33L317.273 245.5C318.603 245.6 319.743 245.5 320.913 245.5C322.083 245.5 323.203 245.33 324.383 245.5C326.773 245.701 329.108 246.32 331.283 247.33L331.393 247.21Z" fill="#3F1751"/>
<path d="M299.213 244.8C299.816 244.684 300.431 244.647 301.043 244.69C301.64 244.724 302.235 244.794 302.823 244.9C303.383 245.093 303.964 245.221 304.553 245.28C304.868 245.282 305.183 245.256 305.493 245.2C305.838 245.145 306.175 245.044 306.493 244.9V244.72C306.069 244.145 305.479 243.712 304.803 243.48C304.146 243.325 303.461 243.325 302.803 243.48C302.126 243.521 301.456 243.635 300.803 243.82C300.238 244.015 299.703 244.287 299.213 244.63V244.8Z" fill="#3F1751"/>
<path d="M415.703 409.33C415.822 409.943 415.758 410.577 415.517 411.154C415.277 411.73 414.872 412.223 414.353 412.57C407.733 417.02 399.003 423.13 391.223 422.89C382.733 422.63 368.873 420.61 368.443 418.72C368.013 416.83 369.343 394.04 366.443 381.86C363.543 369.68 361.263 363.33 361.213 356.59C361.163 349.85 375.213 336.64 380.453 336.31C385.693 335.98 397.343 337.31 401.313 342.46C405.283 347.61 405.813 364.46 409.073 377.78C411.693 388.49 414.653 403.81 415.703 409.33Z" fill="#5470D3"/>
<path d="M396.563 339.04C395.063 338.58 393.563 338.18 392.023 337.86C390.483 337.54 388.963 337.25 387.423 337.06C385.887 336.863 384.341 336.757 382.793 336.74C382.023 336.74 381.253 336.74 380.483 336.79C379.746 336.868 379.019 337.022 378.313 337.25C377.594 337.474 376.895 337.759 376.223 338.1C375.536 338.461 374.868 338.858 374.223 339.29C372.954 340.163 371.753 341.132 370.633 342.19C369.493 343.19 368.423 344.37 367.383 345.54C366.343 346.71 365.383 347.92 364.383 349.16C365.964 346.429 367.875 343.904 370.073 341.64C371.172 340.49 372.374 339.442 373.663 338.51C374.307 338.048 374.974 337.621 375.663 337.23C376.384 336.854 377.137 336.543 377.913 336.3C378.697 336.055 379.505 335.894 380.323 335.82C381.123 335.82 381.923 335.76 382.713 335.82C384.3 335.866 385.881 336.033 387.443 336.32C390.584 336.846 393.647 337.76 396.563 339.04V339.04Z" fill="#314EC6"/>
</g>
<defs>
<filter id="filter0_d_245_87" x="0.490479" y="0.83252" width="405.616" height="372.498" filterUnits="userSpaceOnUse" color-interpolation-filters="sRGB">
<feFlood flood-opacity="0" result="BackgroundImageFix"/>
<feColorMatrix in="SourceAlpha" type="matrix" values="0 0 0 0 0 0 0 0 0 0 0 0 0 0 0 0 0 0 127 0" result="hardAlpha"/>
<feOffset dx="2" dy="2"/>
<feGaussianBlur stdDeviation="3"/>
<feComposite in2="hardAlpha" operator="out"/>
<feColorMatrix type="matrix" values="0 0 0 0 0 0 0 0 0 0 0 0 0 0 0 0 0 0 0.13 0"/>
<feBlend mode="normal" in2="BackgroundImageFix" result="effect1_dropShadow_245_87"/>
<feBlend mode="normal" in="SourceGraphic" in2="effect1_dropShadow_245_87" result="shape"/>
</filter>
</defs>
</svg>
