<svg width="407" height="373" viewBox="0 0 407 373" fill="none" xmlns="http://www.w3.org/2000/svg">
<g filter="url(#filter0_d_242_85)">
<path fill-rule="evenodd" clip-rule="evenodd" d="M21.4905 293.83C12.1017 293.83 4.49048 286.219 4.49048 276.83L4.4905 21.8325C4.4905 12.4437 12.1016 4.83252 21.4905 4.83252L381.106 4.83255C390.495 4.83255 398.106 12.4437 398.106 21.8326L398.106 276.83C398.106 286.219 390.495 293.83 381.106 293.83H262.39L165 365L189.594 293.83H21.4905Z" fill="white"/>
</g>
<path d="M75.135 360.67C35.8482 360.67 4.00002 328.766 4.00002 289.41C4.00002 250.054 35.8482 218.15 75.135 218.15C114.422 218.15 146.27 250.054 146.27 289.41C146.27 328.766 114.422 360.67 75.135 360.67Z" fill="white"/>
<path d="M8.00002 289.41C8.00002 326.563 38.064 356.67 75.135 356.67C112.206 356.67 142.27 326.563 142.27 289.41C142.27 252.257 112.206 222.15 75.135 222.15C38.064 222.15 8.00002 252.257 8.00002 289.41Z" fill="white" stroke="#F4CD30" stroke-width="8"/>
<mask id="mask0_242_85" style="mask-type:alpha" maskUnits="userSpaceOnUse" x="4" y="172" width="143" height="189">
<path d="M75.135 360.67C35.8482 360.67 4.00002 328.766 4.00002 289.41C4.00002 250.054 18.4482 172 57.735 172C97.0218 172 146.27 250.054 146.27 289.41C146.27 328.766 114.422 360.67 75.135 360.67Z" fill="#CE1414"/>
</mask>
<g mask="url(#mask0_242_85)">
<path d="M159.247 351.35C165.875 356.82 172.763 366.64 176.137 367.78C179.511 368.92 184.772 368.57 192.519 383.39C200.265 398.21 175.269 400.58 175.269 400.58C175.269 400.58 163.639 396.46 156.712 382.58L144.463 375.15L159.247 351.35Z" fill="#F6A397"/>
<path d="M112.08 301.87C120.635 306.01 125.866 309.19 130.987 316.01C136.108 322.83 164.528 345.5 166.474 347.63C168.421 349.76 158.379 377.99 147.757 386.41C147.757 386.41 126.245 369.15 114.576 363.27C102.906 357.39 101.349 329.16 104.424 319.02C106.235 313 108.808 307.236 112.08 301.87V301.87Z" fill="#5470D3"/>
<path d="M121.444 351.46L118.639 336.13C118.639 336.13 116.502 335.69 115.894 341.13C115.717 343.225 115.997 345.334 116.712 347.31L103.735 340.79C105.023 350.52 108.367 360.05 114.606 363.2C126.275 369.08 147.787 386.34 147.787 386.34C150.533 384.17 153.228 380.67 155.694 376.65C147.109 370.79 130.837 359.38 121.444 351.46Z" fill="#314EC6"/>
<path d="M-6.55156 335C-0.562088 323.73 1.87363 322.24 9.01109 316.1C16.1485 309.96 44.3091 292.54 50.2786 289.87C56.2481 287.2 83.6 294.36 92.5543 296.59C101.509 298.82 112.709 300.59 115.165 303.92C123.41 315.07 114.705 334.62 121.294 371.01C124.748 390.07 128.281 433.71 128.281 433.71C128.281 433.71 33.1087 451.37 31.4516 449.61C29.7946 447.85 13.9025 380.04 9.66993 366.33C5.43737 352.62 -6.55156 335 -6.55156 335Z" fill="#5470D3"/>
<path d="M118.319 323.2C118.58 320.783 118.656 318.349 118.549 315.92C118.478 313.49 118.217 311.069 117.77 308.68C117.508 311.097 117.434 313.531 117.551 315.96C117.613 318.39 117.87 320.811 118.319 323.2Z" fill="#314EC6"/>
<path d="M80.1062 315.4C83.5302 313.35 92.6841 314.15 94.3811 314.4C96.0781 314.65 92.2948 308.3 91.2067 307.63C90.1186 306.96 88.2119 305.27 85.5366 306.63C82.8613 307.99 81.0146 311.79 80.795 312.95C80.6348 313.785 80.4043 314.604 80.1062 315.4Z" fill="#314EC6"/>
<path d="M50.4984 326.73C51.7961 326.42 58.8038 321.49 60.4808 320.28C62.1579 319.07 70.4034 317.13 76.2332 317.67C76.2332 317.67 64.1744 312.38 57.9353 313.59C51.6963 314.8 49.7397 317.49 49.6099 319.59C49.7 321.991 49.9972 324.38 50.4984 326.73V326.73Z" fill="#314EC6"/>
<path d="M110.084 421.22C108.876 420.41 47.0744 433.82 44.6287 427.55C42.1829 421.28 39.1682 409.55 39.1682 409.55C47.3838 412.18 57.9452 408.55 57.9452 408.55C50.2588 407.55 37.591 397.55 36.453 394.11C32.9292 383.59 33.2487 352.77 33.2487 352.77L27.4688 345.04L22.0284 343.2C16.1892 347.84 11.1334 353.391 7.05468 359.64C8.00699 361.831 8.84336 364.071 9.56029 366.35C13.5533 379.28 27.8681 440.28 30.9128 448.69C50.3386 445.87 85.4869 440.75 108.996 437.27C120.316 435.27 128.252 433.74 128.252 433.74C128.252 433.74 127.373 428.08 126.255 419.94C119.647 420.75 110.832 421.73 110.084 421.22Z" fill="#314EC6"/>
<path d="M78.0896 317.65C71.2317 318.07 59.3825 314.23 55.4993 317.01C51.6162 319.79 51.5563 325.11 50.8475 326.15C50.1388 327.19 45.5768 323.49 43.6102 312.73C41.6437 301.97 39.2978 291 46.9344 288.05C54.571 285.1 76.4825 289.05 81.1742 291.47C84.8306 293.201 87.8688 296.015 89.8789 299.53C91.5659 302.37 96.8067 314.08 95.4591 314.46C94.1115 314.84 88.7609 307.54 85.846 307.82C82.9311 308.1 79.9464 317.54 78.0896 317.65Z" fill="#5470D3"/>
<path d="M80.1362 307.31C81.1344 302.93 82.3323 299.02 81.7533 296.21C81.1743 293.4 80.196 291.58 76.9118 291.28C73.6276 290.98 72.6194 292.91 73.2183 297.2C73.8173 301.49 80.1362 307.31 80.1362 307.31Z" fill="#314EC6"/>
<path d="M54.2617 304.23C46.6451 299.49 44.6885 292.99 45.0479 291.5C45.4073 290.01 47.9328 288.5 47.9328 288.5C47.9328 288.5 49.7796 292.62 49.3504 293.8C48.9211 294.98 54.2617 304.23 54.2617 304.23Z" fill="#314EC6"/>
<path d="M67.2791 316.66C63.8351 315.9 60.2414 315.36 56.6377 316.17C55.6825 316.366 54.8088 316.847 54.1321 317.55C53.5532 318.35 53.1339 319.06 52.6448 319.85C51.7864 321.432 51.1387 323.12 50.7182 324.87C50.6529 325.199 50.5166 325.51 50.3189 325.78C50.3189 325.78 50.3189 325.78 50.1791 325.78C50.0249 325.697 49.8809 325.596 49.7499 325.48C49.1358 324.89 48.5778 324.244 48.0828 323.55C47.0572 322.156 46.24 320.62 45.657 318.99C45.0274 317.357 44.4973 315.687 44.0698 313.99C43.6007 312.28 43.2313 310.55 42.8919 308.81C43.144 312.367 43.8142 315.881 44.8884 319.28C45.4298 321.018 46.2381 322.661 47.2842 324.15C47.8116 324.906 48.41 325.609 49.071 326.25C49.27 326.428 49.4915 326.58 49.7299 326.7C49.8887 326.779 50.0621 326.823 50.239 326.83C50.4561 326.838 50.6699 326.775 50.8479 326.65C51.1143 326.451 51.3186 326.181 51.4369 325.87C51.5282 325.649 51.6049 325.422 51.6665 325.19C52.0388 323.496 52.6329 321.858 53.4334 320.32C53.8422 319.565 54.2887 318.831 54.771 318.12C55.3116 317.537 56.0025 317.115 56.7675 316.9C58.4458 316.449 60.1822 316.254 61.9185 316.32C63.7107 316.32 65.5011 316.434 67.2791 316.66V316.66Z" fill="#314EC6"/>
<path d="M82.2523 311.59C82.8422 310.812 83.4789 310.07 84.159 309.37C84.4836 309.031 84.8415 308.727 85.2271 308.46C85.3997 308.344 85.588 308.253 85.7861 308.19C85.8624 308.181 85.9394 308.181 86.0157 308.19C86.0856 308.19 86.1155 308.19 86.2553 308.26C88.0085 308.99 89.5897 310.08 90.8971 311.46C91.5759 312.12 92.2048 312.9 92.9934 313.56C93.3862 313.909 93.8183 314.211 94.2812 314.46C94.5655 314.625 94.8912 314.705 95.2195 314.69C95.3339 314.682 95.4454 314.651 95.5469 314.598C95.6483 314.544 95.7375 314.47 95.8085 314.38C95.9258 314.226 95.9984 314.043 96.0181 313.85C96.0575 313.307 95.9826 312.762 95.7985 312.25C95.6488 311.77 95.4691 311.25 95.2794 310.84C94.8694 309.94 94.4129 309.062 93.9118 308.21C94.2213 309.15 94.5607 310.07 94.8103 311.01C94.9534 311.47 95.0733 311.938 95.1696 312.41C95.2703 312.835 95.3007 313.275 95.2595 313.71C95.2493 313.765 95.2252 313.817 95.1896 313.86V313.86C95.0268 313.834 94.8707 313.776 94.7304 313.69C94.3439 313.447 93.9828 313.165 93.6523 312.85C92.9635 312.23 92.3546 311.48 91.6558 310.76C90.9451 310.042 90.1661 309.396 89.3299 308.83C88.4784 308.273 87.5547 307.836 86.5847 307.53C86.4299 307.478 86.2686 307.448 86.1055 307.44C85.943 307.445 85.7819 307.472 85.6264 307.52C85.3636 307.626 85.118 307.771 84.8977 307.95C84.5102 308.286 84.1589 308.661 83.8495 309.07C83.2388 309.857 82.704 310.701 82.2523 311.59Z" fill="#314EC6"/>
<path d="M76.5822 282.69C77.0514 285.34 77.4307 288 77.6404 290.69C78.1495 297.27 80.3656 305.69 80.136 307.32C79.8964 309.18 77.6603 316.06 77.6603 316.06C77.6603 316.06 71.1617 314.4 68.1171 311.86C65.0724 309.32 61.7882 309.76 56.6073 306.13C51.4264 302.5 47.1639 296.01 47.0641 289.98C47.0641 289.2 46.4452 281.57 45.1974 273.78C43.9496 265.99 51.0072 258.58 58.7535 257.16C66.4999 255.74 73.2481 266.4 74.9052 274.16C75.5939 277.29 76.153 280.27 76.5822 282.69Z" fill="#F6A397"/>
<path d="M45.1975 273.77C46.4453 281.56 47.0542 289.19 47.0642 289.97C47.1225 291.903 47.5248 293.809 48.2521 295.6C50.029 295.6 72.21 292.08 77.4109 288.37C77.2046 286.47 76.9284 284.577 76.5824 282.69C76.1531 280.27 75.5841 277.29 74.9053 274.12C74.0686 270.448 72.5406 266.969 70.4032 263.87L51.0372 260.75C47.0143 263.95 44.3989 268.77 45.1975 273.77Z" fill="#D65863"/>
<path d="M81.6635 233.67C93.3829 231.52 99.4223 239.74 100.63 246.5C101.738 252.56 101.578 262.63 87.4034 265.23C80.3258 266.53 74.2365 260.35 72.6393 251.63C71.0421 242.91 74.5759 234.97 81.6635 233.67Z" fill="#504984"/>
<path d="M82.8912 237.44C91.7357 235.87 96.2977 242.02 97.236 247.13C98.0745 251.71 97.9448 259.31 87.2536 261.27C81.9129 262.27 77.2711 257.59 76.1032 251.01C74.9352 244.43 77.5406 238.42 82.8912 237.44Z" fill="#372D5B"/>
<path d="M97.4259 236.28C97.4858 240.53 95.7388 242.47 95.8486 248.19C95.9584 253.91 99.8416 261.51 97.5257 269.19C95.2098 276.87 91.0471 287.19 87.7429 288.19C84.4387 289.19 56.5776 289.59 44.1395 273.1C40.5658 268.37 31.2322 248.95 33.7378 235.59C36.2434 222.23 41.9334 209.35 59.8619 205.7C77.7904 202.05 97.1064 213.81 97.4259 236.28Z" fill="#F6A397"/>
<path d="M86.4951 261.54C86.0382 261.652 85.5624 261.664 85.1005 261.574C84.6386 261.484 84.2017 261.295 83.8198 261.02C83.5618 260.78 83.356 260.489 83.2152 260.165C83.0744 259.842 83.0015 259.493 83.0012 259.14C83.7772 259.544 84.6335 259.769 85.5076 259.798C86.3816 259.828 87.2511 259.661 88.0524 259.31C88.5016 260.56 87.6131 261.3 86.4951 261.54Z" fill="#D65863"/>
<path d="M50.5382 244.87C50.4948 242.219 51.3032 239.625 52.8441 237.47C52.8441 237.47 59.2029 233.37 64.4138 231.87C67.9775 230.813 71.4522 229.475 74.8055 227.87C74.8055 227.87 73.9071 232.45 71.3815 234.8C71.3815 234.8 83.9794 231.8 87.3535 227.32C87.3535 227.32 87.1438 230.57 86.7545 232.8C86.7545 232.8 92.8638 231.01 94.3512 228.18C94.3512 228.18 96.9067 233.33 97.4557 236.33C97.4557 236.33 103.066 224.7 99.6718 216.9C96.2778 209.1 93.1133 206.46 93.1133 206.46C95.9048 206.208 98.6638 205.675 101.349 204.87C101.349 204.87 93.3629 200.07 87.3734 197.04C81.384 194.01 65.8513 196.69 65.8513 196.69C65.8513 196.69 66.3005 192.31 63.715 185.98C63.715 185.98 58.8436 196.98 52.335 201.28C45.8264 205.58 46.7348 205.13 39.6074 208.4C32.4799 211.67 26.2409 217.76 23.9948 222.33C21.7488 226.9 19.2631 231.67 17.4363 232.68C17.4363 232.68 21.9883 231.17 23.9748 228.79C23.9748 228.79 21.6988 238.37 28.9661 248.79C36.2333 259.21 48.5117 253.57 50.5481 250.59C51.1307 249.75 51.4421 248.751 51.4403 247.728C51.4385 246.706 51.1237 245.708 50.5382 244.87V244.87Z" fill="#BA6454"/>
<path d="M50.5483 250.59C51.1279 249.753 51.4385 248.759 51.4385 247.74C51.4385 246.721 51.1279 245.727 50.5483 244.89C50.5187 242.766 51.0306 240.67 52.0356 238.8C48.092 227.722 46.7262 215.887 48.0427 204.2C46.2699 205.349 44.407 206.352 42.4724 207.2C40.0211 213.079 38.4373 219.284 37.7707 225.62C36.8923 233.62 37.2816 241.94 40.7654 249.15C41.6747 251.012 42.8042 252.758 44.1295 254.35C47.2341 253.44 49.7297 251.79 50.5483 250.59Z" fill="#874438"/>
<path d="M45.2474 241.49C45.2474 241.49 39.1382 213.14 52.4348 201.3C48.7073 201.775 45.1918 203.303 42.2997 205.707C39.4076 208.11 37.2584 211.288 36.1035 214.87C31.6014 227.66 33.8674 237.5 35.1053 243.03C36.3431 248.56 45.2474 241.49 45.2474 241.49Z" fill="#504984"/>
<path d="M40.4561 241.23C28.7367 243.38 25.9915 253.23 27.2294 259.97C28.3474 266.04 32.0609 275.39 46.196 272.79C53.2836 271.49 56.7874 263.55 55.1802 254.79C53.5731 246.03 47.5736 239.93 40.4561 241.23Z" fill="#504984"/>
<path d="M49.6999 255.87C48.2823 248.13 42.0433 242.8 35.7244 243.95C29.4055 245.1 25.8318 252.25 27.2393 259.95C28.6469 267.65 34.5565 273.09 40.8454 271.95C47.1344 270.81 51.1174 263.59 49.6999 255.87Z" fill="#372D5B"/>
<path d="M29.0544 259.656C28.091 254.392 30.7784 249.488 35.057 248.702C39.3355 247.916 43.585 251.546 44.5485 256.81C45.5119 262.074 42.8245 266.978 38.546 267.764C34.2674 268.55 30.0179 264.92 29.0544 259.656Z" fill="#504984"/>
<path d="M75.9835 267.34C79.4673 268.5 89.9589 267.19 90.6078 266.96C91.2566 266.73 91.2866 274.87 88.8009 275.62C86.3153 276.37 81.1344 276.62 78.6488 274.98C76.1632 273.34 75.9835 267.34 75.9835 267.34Z" fill="#D65863"/>
<path d="M77.0615 269.51C77.1314 268.78 77.1813 268.19 77.2213 267.62C80.9247 268.17 87.8825 267.41 90.0088 267.08C90.0259 268.196 89.9154 269.31 89.6794 270.4C89.6095 270.4 89.6794 270.5 89.6794 270.47C87.6252 271.198 85.442 271.489 83.2694 271.323C81.0967 271.158 78.9824 270.541 77.0615 269.51Z" fill="white"/>
<path d="M73.9372 248.27C73.6677 246.83 72.7493 245.8 71.8808 245.96C71.0123 246.12 70.5132 247.41 70.7727 248.85C71.0323 250.29 71.9606 251.32 72.8291 251.16C73.6976 251 74.1967 249.7 73.9372 248.27Z" fill="#3F1751"/>
<path d="M92.225 246.16C91.9555 244.73 91.1369 243.68 90.3882 243.81C89.6395 243.94 89.2402 245.23 89.5098 246.66C89.7793 248.09 90.5879 249.15 91.3665 249.01C92.1451 248.87 92.4845 247.6 92.225 246.16Z" fill="#3F1751"/>
<path d="M63.2357 239.75C64.219 238.966 65.2872 238.295 66.4201 237.75C67.5696 237.199 68.7789 236.783 70.0238 236.51C71.2716 236.134 72.5844 236.025 73.877 236.19C75.1836 236.405 76.4021 236.988 77.3909 237.87L77.331 238.04C76.0033 238.14 74.8653 238.04 73.6974 238.04C72.5294 238.04 71.4114 237.87 70.2334 238.04C67.8482 238.241 65.5167 238.86 63.3456 239.87L63.2357 239.75Z" fill="#3F1751"/>
<path d="M95.3594 237.34C94.7578 237.224 94.1437 237.187 93.5326 237.23C92.9366 237.264 92.3433 237.334 91.7557 237.44C91.1966 237.633 90.6171 237.761 90.0287 237.82C89.7142 237.822 89.4001 237.796 89.0904 237.74C88.7457 237.685 88.41 237.584 88.0921 237.44V237.26C88.5157 236.685 89.1042 236.252 89.7792 236.02C90.4356 235.865 91.1192 235.865 91.7757 236.02C92.4515 236.061 93.1209 236.175 93.7722 236.36C94.3363 236.555 94.8706 236.827 95.3594 237.17V237.34Z" fill="#3F1751"/>
<path d="M-20.9261 401.87C-21.045 402.483 -20.9805 403.117 -20.7407 403.694C-20.501 404.27 -20.0966 404.763 -19.5784 405.11C-12.97 409.56 -4.25533 415.67 3.51102 415.43C11.9861 415.17 25.8218 413.15 26.2511 411.26C26.6803 409.37 25.3526 386.58 28.2475 374.4C31.1425 362.22 33.4185 355.87 33.4684 349.13C33.5183 342.39 19.4929 329.18 14.2621 328.85C9.03131 328.52 -2.59826 329.85 -6.56129 335C-10.5243 340.15 -11.0534 357 -14.3077 370.32C-16.9231 381.03 -19.8779 396.35 -20.9261 401.87Z" fill="#5470D3"/>
<path d="M-1.81985 331.58C-0.322483 331.12 1.17489 330.72 2.71219 330.4C4.24949 330.08 5.76682 329.79 7.30412 329.6C8.83723 329.403 10.3805 329.297 11.926 329.28C12.6946 329.28 13.4633 329.28 14.2319 329.33C14.9679 329.408 15.6938 329.562 16.3981 329.79C17.1161 330.014 17.814 330.299 18.4845 330.64C19.1707 331.001 19.8371 331.398 20.481 331.83C21.7481 332.703 22.9462 333.673 24.0647 334.73C25.2027 335.73 26.2708 336.91 27.309 338.08C28.3471 339.25 29.3055 340.46 30.3037 341.7C28.7256 338.969 26.8179 336.444 24.6237 334.18C23.5267 333.03 22.3271 331.982 21.04 331.05C20.3974 330.588 19.731 330.161 19.0435 329.77C18.3235 329.394 17.5719 329.083 16.7974 328.84C16.0148 328.595 15.2083 328.434 14.3917 328.36C13.5931 328.36 12.7945 328.3 12.0059 328.36C10.4216 328.406 8.84309 328.573 7.28416 328.86C4.14902 329.387 1.09105 330.3 -1.81985 331.58V331.58Z" fill="#314EC6"/>
</g>
<defs>
<filter id="filter0_d_242_85" x="0.490479" y="0.83252" width="405.616" height="372.167" filterUnits="userSpaceOnUse" color-interpolation-filters="sRGB">
<feFlood flood-opacity="0" result="BackgroundImageFix"/>
<feColorMatrix in="SourceAlpha" type="matrix" values="0 0 0 0 0 0 0 0 0 0 0 0 0 0 0 0 0 0 127 0" result="hardAlpha"/>
<feOffset dx="2" dy="2"/>
<feGaussianBlur stdDeviation="3"/>
<feComposite in2="hardAlpha" operator="out"/>
<feColorMatrix type="matrix" values="0 0 0 0 0 0 0 0 0 0 0 0 0 0 0 0 0 0 0.13 0"/>
<feBlend mode="normal" in2="BackgroundImageFix" result="effect1_dropShadow_242_85"/>
<feBlend mode="normal" in="SourceGraphic" in2="effect1_dropShadow_242_85" result="shape"/>
</filter>
</defs>
</svg>
