<svg width="185" height="172" viewBox="0 0 185 172" fill="none" xmlns="http://www.w3.org/2000/svg">
<path d="M156.48 101.679C165.521 63.041 141.528 24.3895 102.89 15.3484C64.252 6.30726 25.6005 30.3002 16.5593 68.9382C7.51823 107.576 31.5112 146.228 70.1492 155.269C108.787 164.31 147.439 140.317 156.48 101.679Z" fill="#5470D3"/>
<path d="M101.979 19.2432C138.466 27.7809 161.123 64.2807 152.585 100.768C144.047 137.255 107.547 159.912 71.0606 151.374C34.5736 142.836 11.9164 106.337 20.4541 69.8496C28.9919 33.3626 65.4917 10.7054 101.979 19.2432Z" fill="#5470D3" stroke="#314EC6" stroke-width="8"/>
<mask id="mask0_125_305" style="mask-type:alpha" maskUnits="userSpaceOnUse" x="14" y="-38" width="145" height="196">
<path d="M156.48 101.679C165.521 63.041 133.134 -27.9586 94.4959 -36.9998C55.8579 -46.0409 25.6005 30.3002 16.5593 68.9382C7.51823 107.576 31.5112 146.228 70.1492 155.269C108.787 164.31 147.439 140.317 156.48 101.679Z" fill="#5470D3"/>
</mask>
<g mask="url(#mask0_125_305)">
<path d="M187.556 139.52C188.946 146.52 182.466 152.75 180.436 153.91C178.406 155.07 164.776 160.53 156.596 160.72C148.416 160.91 137.596 143.6 142.026 141.66C146.456 139.72 176.566 137.52 179.866 137.52C183.166 137.52 187.556 139.52 187.556 139.52Z" fill="#FFC5C7"/>
<path d="M166.086 135.81C162.516 156.81 154.086 173.16 151.386 173.46C148.686 173.76 123.306 164.99 116.296 161.78C109.286 158.57 118.446 109.26 122.806 110.13C127.166 111 136.736 120.52 144.676 125.02C152.616 129.52 166.086 135.81 166.086 135.81Z" fill="white"/>
<path d="M124.196 144.52C126.646 148.72 146.856 159.38 157.986 163.26C155.236 169.47 152.646 173.26 151.386 173.43C149.116 173.68 130.146 167.29 120.336 163.43C121.218 157.051 122.507 150.735 124.196 144.52V144.52Z" fill="#DCEDFF"/>
<path d="M187.586 138.52C187.786 146.85 180.276 148.05 171.286 145.91C162.296 143.77 147.676 123.52 141.096 114.41C134.516 105.3 122.366 88.9799 119.846 87.5199C117.326 86.0599 111.546 85.2799 106.606 77.0599C101.666 68.8399 108.166 51.6199 110.496 49.5799C112.826 47.5399 132.866 54.3599 135.196 57.8099C137.526 61.2599 133.546 79.8099 134.196 82.1199C134.846 84.4299 151.946 103.52 159.396 108.19C166.846 112.86 187.436 132.52 187.586 138.52Z" fill="#FFC5C7"/>
<path d="M120.756 63.3401C118.406 62.1701 117.836 56.8701 119.316 57.8001C120.796 58.7301 123.386 58.7201 126.896 58.6701C128.55 58.6911 130.202 58.574 131.836 58.3201C132.047 59.7039 132.164 61.1004 132.186 62.5001C132.186 62.5001 123.116 64.5201 120.756 63.3401Z" fill="#FE8A8B"/>
<path d="M105.166 64.5199C106.586 61.8899 107.676 59.8699 107.676 59.8699L121.446 73.1399C124.111 70.8897 126.909 68.8026 129.826 66.8899L131.036 69.0499C128.806 72.8199 126.866 80.7999 126.826 82.7399C126.826 82.7399 124.706 85.0799 123.526 85.2699C123.526 85.2699 138.266 108.62 147.746 120.09C157.226 131.56 163.676 141.37 168.076 144.52C159.076 139.35 146.896 122.52 141.076 114.38C134.546 105.24 122.356 88.9499 119.836 87.4899C117.316 86.0299 111.536 85.2499 106.596 77.0299C104.676 73.7999 104.496 69.1299 105.166 64.5199Z" fill="#FE8A8B"/>
<path d="M133.836 65.8699C133.676 67.2299 119.976 79.0999 118.546 80.5199C118.072 80.6961 117.55 80.6961 117.076 80.5199C113.436 77.3199 97.5359 48.4399 97.2559 47.3999C96.9759 46.3599 107.546 36.4999 110.766 33.8399C111.183 33.6878 111.63 33.6357 112.072 33.6878C112.513 33.7399 112.936 33.8948 113.306 34.1399C116.556 38.8999 134.056 64.1199 133.836 65.8699Z" fill="#0C0835"/>
<path d="M132.366 65.8701C132.196 67.2301 118.506 79.1001 117.076 80.4701C115.646 81.8401 96.076 48.4701 95.776 47.3501C95.516 46.3501 107.266 36.6101 110.486 33.9501C110.581 33.8639 110.693 33.7986 110.814 33.7586C110.936 33.7186 111.065 33.7048 111.192 33.718C111.32 33.7312 111.443 33.7712 111.554 33.8353C111.665 33.8994 111.761 33.9862 111.836 34.0901C115.086 38.9001 132.586 64.1201 132.366 65.8701Z" fill="#252384"/>
<path d="M130.066 63.92C129.906 65.2 117.066 76.3 115.756 77.57C114.446 78.84 96.1259 47.65 95.8359 46.57C95.5459 45.49 106.576 36.52 109.596 34.06C109.684 33.9795 109.789 33.9187 109.902 33.8814C110.016 33.844 110.136 33.8311 110.255 33.8434C110.374 33.8556 110.489 33.8928 110.592 33.9526C110.696 34.0123 110.786 34.0932 110.856 34.19C113.896 38.69 130.266 62.28 130.066 63.92Z" fill="#57AFF7"/>
<path d="M121.846 47.65C119.726 46.37 117.126 42.04 116.846 40.58C116.566 39.12 116.756 37.81 117.846 37.52C118.936 37.23 122.496 41.8 124.246 43.16C125.996 44.52 128.116 47.34 127.246 49.24C126.376 51.14 122.486 50.41 122.076 50.12C121.666 49.83 121.846 47.65 121.846 47.65Z" fill="#FFC5C7"/>
<path d="M117.286 37.8999C116.616 39.5599 120.996 46.2199 124.836 48.1399L123.406 49.7699L121.926 49.4299C121.857 48.8392 121.83 48.2444 121.846 47.6499C119.736 46.3699 117.126 42.0399 116.846 40.5799C116.724 40.1277 116.7 39.6545 116.776 39.1922C116.851 38.7299 117.025 38.2893 117.286 37.8999V37.8999Z" fill="#FE8A8B"/>
<path d="M126.776 54.3801C123.136 52.3801 120.276 52.65 118.286 51.84C116.296 51.03 115.946 47.9801 117.286 47.4701C118.626 46.9601 126.856 48.2701 128.976 49.2201C131.096 50.1701 132.116 54.52 132.116 54.52L126.776 54.3801Z" fill="#FFC5C7"/>
<path d="M125.186 52.1001C127.246 52.4901 127.956 52.1001 127.956 52.1001C127.896 52.9101 128.656 53.3101 129.516 54.4601L126.776 54.3801C123.136 52.3801 120.276 52.6501 118.286 51.8401C117.873 51.6575 117.507 51.3821 117.217 51.0352C116.928 50.6883 116.722 50.2794 116.616 49.8401C117.496 51.5201 123.126 51.7201 125.186 52.1001Z" fill="#FE8A8B"/>
<path d="M135.196 57.81C133.196 60.5 123.696 59.33 121.776 59.04C119.856 58.75 118.676 57.52 118.836 56.31C119.236 53.84 131.836 54.31 132.896 54.66C133.956 55.01 135.196 57.81 135.196 57.81Z" fill="#FFC5C7"/>
<path d="M118.906 56.8999C120.216 58.1999 123.346 58.8999 126.766 59.2199C128.448 59.3753 130.139 59.4053 131.826 59.3099C128.478 59.6519 125.101 59.5611 121.776 59.0399C121.138 59.0126 120.523 58.7938 120.011 58.4121C119.499 58.0305 119.114 57.5035 118.906 56.8999V56.8999Z" fill="#FE8A8B"/>
<path d="M90.5259 95.52C110.786 105.83 114.106 105.43 122.806 110.11C131.506 114.79 128.916 164 128.366 171.59C127.816 179.18 125.676 209.35 126.876 217.52C128.076 225.69 132.536 256.04 134.526 260.71C136.516 265.38 140.326 273.25 134.446 277.92C128.566 282.59 116.106 285.8 89.0759 284.05C62.0459 282.3 32.9059 265.67 31.6759 263.33C30.4459 260.99 44.5959 218.1 45.1859 209.93C45.7045 203.825 46.7314 197.774 48.2559 191.84C49.1159 188.05 40.5159 170.25 39.1459 158.84C37.7759 147.43 25.3559 116.09 27.6759 110.34C29.9959 104.59 51.5759 98.18 66.2459 90.87C80.9159 83.56 90.5259 95.52 90.5259 95.52Z" fill="white"/>
<path d="M110.606 108.3C107.227 119.34 100.538 129.075 91.4459 136.19C80.4459 133.5 69.3159 128.67 60.3359 121.82C70.3276 129.309 81.3435 135.324 93.0459 139.68C102.744 131.891 109.04 120.64 110.606 108.3Z" fill="#DCEDFF"/>
<path d="M106.476 103.08C102.586 101.43 97.5859 99.0801 90.4759 95.5401C90.4759 95.5401 80.8559 83.5401 66.1959 90.8701C61.1059 93.4001 55.1959 95.8701 49.5359 98.1601C58.393 113.151 72.3012 124.496 88.7659 130.16C97.4094 123.256 103.616 113.766 106.476 103.08V103.08Z" fill="#FFC5C7"/>
<path d="M31.676 263.33C30.386 261 44.596 218.1 45.186 209.93C45.7046 203.825 46.7315 197.774 48.256 191.84C49.116 188.05 40.516 170.25 39.146 158.84C38.7737 156.303 38.2427 153.791 37.556 151.32L46.676 144.52C52.036 159.46 55.376 185.72 60.456 192.14C65.536 198.56 78.176 201.14 78.176 201.14C78.176 201.14 65.676 204.14 60.206 202.97C60.206 202.97 54.386 226.02 54.326 237.4C54.266 248.78 55.326 266 55.446 268.33C55.446 269.21 55.306 272.24 55.046 275.71C41.956 270.52 32.346 264.65 31.676 263.33Z" fill="#DCEDFF"/>
<path d="M68.5459 70.1399C68.3359 82.3099 67.5459 90.6799 64.8359 93.0099C64.8359 93.0099 69.4759 113.22 87.9959 111.49C94.2659 110.91 93.6659 100.41 90.5259 95.4899L92.3859 80.5599L68.5459 70.1399Z" fill="#FFC5C7"/>
<path d="M66.2458 90.8699C67.8258 87.1299 68.3758 79.8699 68.5458 70.1399L92.3858 80.6099L91.1859 90.1799C86.9659 92.0799 66.2458 90.8699 66.2458 90.8699Z" fill="#FE8A8B"/>
<path d="M41.7959 160.12C47.3759 149.12 49.6059 131.34 44.5659 121.96C39.5259 112.58 30.0259 109.21 27.6759 110.34C25.3259 111.47 19.0359 126.09 13.1059 132.84C7.17592 139.59 -8.99408 158.52 -9.48408 160.12C-9.97408 161.72 2.21592 174.57 25.1459 184.02C27.8759 185.15 41.7959 160.12 41.7959 160.12Z" fill="white"/>
<path d="M24.786 168.62L21.126 176.12C21.126 176.12 39.126 158.06 46.626 144.57C45.8053 149.966 44.1771 155.208 41.796 160.12C41.796 160.12 27.876 185.12 25.146 184.02C21.226 182.4 17.676 180.69 14.356 178.94L24.786 168.62Z" fill="#DCEDFF"/>
<path d="M93.7659 71.23C92.5259 66.23 92.5559 61.07 92.2559 55.94C92.0259 52.1 91.8359 48.59 88.3459 46.29C85.7209 44.7298 82.626 44.1555 79.6159 44.67C71.6159 45.67 69.8359 53.53 70.4559 60.96C70.9259 66.64 73.1459 72.1 75.3459 77.33C72.3459 77.2 68.3459 75.65 66.5759 73.19C67.2984 76.4061 68.9096 79.3547 71.2259 81.7C62.6759 81.52 54.6759 75.94 50.1359 68.4C45.5959 60.86 44.1359 51.66 44.6359 42.78C45.2159 32.25 48.4959 21.7 55.0059 13.59C68.1159 -2.72001 93.3559 -4.62001 108.726 9.38999C114.032 14.3327 117.844 20.6666 119.726 27.67C122.136 36.964 122.307 46.6969 120.226 56.07C119.499 59.7241 118.981 63.4168 118.676 67.13C118.556 68.32 117.106 82.23 117.946 82.13C112.526 82.46 106.296 81.37 102.626 77.23C104.266 80.07 105.686 82.81 107.336 85.66C100.516 84.52 95.4859 78.18 93.7659 71.23Z" fill="#372D5B"/>
<path d="M65.676 52.2799C63.256 50.8499 60.346 50.0799 58.106 52.3499C54.796 55.7099 59.496 71.3499 66.626 67.5299C66.626 67.5299 76.956 81.9699 84.536 86.0599C92.116 90.1499 97.536 88.0599 100.366 85.1799C103.196 82.2999 112.846 70.2999 114.586 57.6099C115.206 53.0799 114.586 44.1799 114.676 42.2899C115.106 36.4499 117.316 31.6599 112.676 27.0799C107.964 22.4245 101.685 19.6933 95.066 19.4199C90.9195 19.3242 86.8023 20.1355 83.0022 21.7972C79.2021 23.4589 75.8109 25.9308 73.066 29.0399C67.036 35.8799 65.996 43.6099 65.676 52.2799Z" fill="#FFC5C7"/>
<path d="M59.2358 56.62C59.8558 53.76 62.2958 53.2 64.1058 55.19C65.9158 57.18 66.2758 63.7 65.8058 64.66C65.3358 65.62 62.1258 65.54 61.5258 63.57C60.9258 61.6 62.7758 60.35 64.5258 60.94C64.5258 60.94 65.0258 58.06 63.5258 56.2C62.0258 54.34 60.5258 55.05 60.1558 55.53C59.7858 56.01 59.2358 56.62 59.2358 56.62Z" fill="#FE8A8B"/>
<path d="M78.9858 43.9699C79.6819 43.3266 80.413 42.7224 81.1758 42.1599C81.9608 41.592 82.7979 41.0998 83.6758 40.6899C84.5288 40.2183 85.4608 39.9065 86.4258 39.7699C87.3689 39.6602 88.3243 39.7874 89.2058 40.1399V40.2699C88.765 40.4406 88.3142 40.5842 87.8558 40.6999L86.5758 41.0599C85.7358 41.2999 84.8658 41.3799 84.0158 41.6599C83.1634 41.9345 82.3314 42.2687 81.5258 42.6599C80.6958 43.0699 79.9058 43.5399 79.0958 44.0199L78.9858 43.9699Z" fill="#3F1751"/>
<path d="M111.256 40.6899C110.478 40.2801 109.647 39.9806 108.786 39.7999C107.928 39.6165 107.053 39.5226 106.176 39.5199C105.296 39.5199 104.416 39.6799 103.546 39.6699C102.635 39.6956 101.724 39.6722 100.816 39.5999V39.4799C101.629 38.9135 102.558 38.5345 103.536 38.3699C104.481 38.2427 105.442 38.2765 106.376 38.4699C107.295 38.6045 108.195 38.8496 109.056 39.1999C109.893 39.5493 110.672 40.0248 111.366 40.6099L111.256 40.6899Z" fill="#3F1751"/>
<path d="M87.6758 49.1C87.6758 47.86 87.0258 46.92 86.2858 46.99C85.5458 47.06 84.9858 48.12 85.0158 49.36C85.0458 50.6 85.6758 51.52 86.3758 51.46C87.0758 51.4 87.6758 50.33 87.6758 49.1Z" fill="#3F1751"/>
<path d="M107.136 47.5199C107.136 46.2899 106.596 45.3299 105.996 45.3899C105.396 45.4499 104.926 46.4999 104.996 47.7299C105.066 48.9599 105.536 49.9199 106.136 49.8599C106.736 49.7999 107.166 48.7699 107.136 47.5199Z" fill="#3F1751"/>
<path d="M93.7458 61.09C94.6444 61.6621 95.6896 61.961 96.7548 61.9503C97.8199 61.9397 98.859 61.62 99.7458 61.03C99.6962 61.5022 99.5269 61.954 99.2539 62.3424C98.9809 62.7309 98.6133 63.0433 98.1859 63.25C97.2721 63.5677 96.2702 63.5138 95.3959 63.1C94.5659 62.71 94.2858 61.85 93.7458 61.09Z" fill="#FE8A8B"/>
<path d="M86.9858 68.34C91.0558 68.4 100.846 67.65 103.986 67.2C102.726 71.32 99.4258 75.3899 94.8158 75.3999C90.6758 75.3999 87.9858 71.99 86.9858 68.34Z" fill="#C31F2A"/>
<path d="M90.7258 74.0499C92.0081 73.6931 93.3635 73.6931 94.6458 74.0499C95.4344 73.5829 96.3154 73.2935 97.2273 73.2019C98.1392 73.1104 99.0602 73.2189 99.9258 73.52C98.512 74.7247 96.7231 75.4 94.8658 75.43C93.374 75.4229 91.9235 74.9393 90.7258 74.0499V74.0499Z" fill="#FB8384"/>
<path d="M101.276 70.6501C97.1649 71.834 92.7818 71.6621 88.776 70.1601C88.776 69.5501 88.696 68.9401 88.656 68.3301C92.656 68.2401 99.186 67.7501 102.656 67.3301C102.369 68.501 101.904 69.6208 101.276 70.6501V70.6501Z" fill="white"/>
<path d="M69.6759 38.85C76.3466 38.5565 82.9135 37.0908 89.0759 34.52C90.2359 31.82 90.2759 29.42 90.4559 26.52C92.1407 29.5975 93.1082 33.016 93.2859 36.52C97.1559 36.27 101.036 36.06 104.906 35.81C105.863 32.7541 106.203 29.5384 105.906 26.35C107.149 29.6229 107.972 33.0401 108.356 36.52C110.686 35.69 113.646 36.9 116.086 37.34C119.086 30.61 118.906 18.41 112.516 13.34C106.286 8.34 95.5159 7.01 87.8759 8.12C71.6759 10.4 58.9759 23.83 59.9759 40.57C60.5459 50.12 65.3359 59.15 72.2059 65.81C68.147 57.4202 67.2488 47.8484 69.6759 38.85V38.85Z" fill="#372D5B"/>
</g>
</svg>
