<svg width="143" height="190" viewBox="0 0 143 190" fill="none" xmlns="http://www.w3.org/2000/svg">
<path d="M71.4731 189.13C110.829 189.13 142.733 157.226 142.733 117.87C142.733 78.5141 110.829 46.6099 71.4731 46.6099C32.1173 46.6099 0.213135 78.5141 0.213135 117.87C0.213135 157.226 32.1173 189.13 71.4731 189.13Z" fill="white"/>
<path d="M138.733 117.87C138.733 155.017 108.62 185.13 71.4731 185.13C34.3265 185.13 4.21313 155.017 4.21313 117.87C4.21313 80.7232 34.3265 50.6099 71.4731 50.6099C108.62 50.6099 138.733 80.7232 138.733 117.87Z" fill="white" stroke="#F4CD30" stroke-width="8"/>
<mask id="mask0_125_244" style="mask-type:alpha" maskUnits="userSpaceOnUse" x="0" y="0" width="143" height="190">
<path d="M71.4731 189.13C110.829 189.13 142.733 157.226 142.733 117.87C142.733 78.5141 128.26 0.459961 88.9037 0.459961C49.5479 0.459961 0.213135 78.5141 0.213135 117.87C0.213135 157.226 32.1173 189.13 71.4731 189.13Z" fill="#CE1414"/>
</mask>
<g mask="url(#mask0_125_244)">
<path d="M-12.7868 179.81C-19.4268 185.28 -26.3268 195.1 -29.7068 196.24C-33.0868 197.38 -38.3568 197.03 -46.1168 211.85C-53.8768 226.67 -28.8368 229.04 -28.8368 229.04C-28.8368 229.04 -17.1868 224.92 -10.2468 211.04L2.02318 203.61L-12.7868 179.81Z" fill="#F6A397"/>
<path d="M34.463 130.33C25.893 134.47 20.653 137.65 15.523 144.47C10.393 151.29 -18.077 173.96 -20.027 176.09C-21.977 178.22 -11.917 206.45 -1.27704 214.87C-1.27704 214.87 20.273 197.61 31.963 191.73C43.653 185.85 45.213 157.62 42.133 147.48C40.3188 141.459 37.7412 135.696 34.463 130.33V130.33Z" fill="#5470D3"/>
<path d="M25.083 179.92L27.8929 164.59C27.8929 164.59 30.0329 164.15 30.6429 169.59C30.8193 171.685 30.5396 173.794 29.8229 175.77L42.8229 169.25C41.5329 178.98 38.1829 188.51 31.9329 191.66C20.2429 197.54 -1.30705 214.8 -1.30705 214.8C-4.05705 212.63 -6.75705 209.13 -9.22705 205.11C-0.62705 199.25 15.673 187.84 25.083 179.92Z" fill="#314EC6"/>
<path d="M153.303 163.46C147.303 152.19 144.863 150.7 137.713 144.56C130.563 138.42 102.353 121 96.3732 118.33C90.3932 115.66 62.9932 122.82 54.0232 125.05C45.0532 127.28 33.8332 129.05 31.3732 132.38C23.1132 143.53 31.8332 163.08 25.2332 199.47C21.7732 218.53 18.2332 262.17 18.2332 262.17C18.2332 262.17 113.573 279.83 115.233 278.07C116.893 276.31 132.813 208.5 137.053 194.79C141.293 181.08 153.303 163.46 153.303 163.46Z" fill="#5470D3"/>
<path d="M28.213 151.66C27.9521 149.243 27.8752 146.809 27.983 144.38C28.0543 141.95 28.315 139.529 28.763 137.14C29.0258 139.557 29.0993 141.991 28.983 144.42C28.9201 146.85 28.6626 149.271 28.213 151.66Z" fill="#314EC6"/>
<path d="M66.4931 143.86C63.0631 141.81 53.8931 142.61 52.1931 142.86C50.4931 143.11 54.2831 136.76 55.3731 136.09C56.4631 135.42 58.3731 133.73 61.0531 135.09C63.7331 136.45 65.5831 140.25 65.8031 141.41C65.9636 142.245 66.1945 143.064 66.4931 143.86Z" fill="#314EC6"/>
<path d="M96.153 155.19C94.853 154.88 87.833 149.95 86.153 148.74C84.473 147.53 76.213 145.59 70.373 146.13C70.373 146.13 82.453 140.84 88.703 142.05C94.953 143.26 96.913 145.95 97.043 148.05C96.9528 150.451 96.6551 152.84 96.153 155.19V155.19Z" fill="#314EC6"/>
<path d="M36.4632 249.68C37.6732 248.87 99.5832 262.28 102.033 256.01C104.483 249.74 107.503 238.01 107.503 238.01C99.2732 240.64 88.6932 237.01 88.6932 237.01C96.3932 236.01 109.083 226.01 110.223 222.57C113.753 212.05 113.433 181.23 113.433 181.23L119.223 173.5L124.673 171.66C130.523 176.3 135.587 181.851 139.673 188.1C138.719 190.291 137.881 192.531 137.163 194.81C133.163 207.74 118.823 268.74 115.773 277.15C96.3132 274.33 61.1032 269.21 37.5532 265.73C26.2132 263.73 18.2632 262.2 18.2632 262.2C18.2632 262.2 19.1432 256.54 20.2632 248.4C26.8832 249.21 35.7132 250.19 36.4632 249.68Z" fill="#314EC6"/>
<path d="M68.5131 146.11C75.3831 146.53 87.2531 142.69 91.1431 145.47C95.0331 148.25 95.0931 153.57 95.8031 154.61C96.5131 155.65 101.083 151.95 103.053 141.19C105.023 130.43 107.373 119.46 99.7231 116.51C92.0731 113.56 70.1231 117.51 65.4231 119.93C61.7602 121.661 58.7167 124.475 56.7031 127.99C55.0131 130.83 49.7631 142.54 51.1131 142.92C52.4631 143.3 57.8231 136 60.7431 136.28C63.6631 136.56 66.6531 146 68.5131 146.11Z" fill="#5470D3"/>
<path d="M66.4631 135.77C65.4631 131.39 64.2631 127.48 64.8431 124.67C65.4231 121.86 66.4031 120.04 69.6931 119.74C72.9831 119.44 73.9931 121.37 73.3931 125.66C72.7931 129.95 66.4631 135.77 66.4631 135.77Z" fill="#314EC6"/>
<path d="M92.3831 132.69C100.013 127.95 101.973 121.45 101.613 119.96C101.253 118.47 98.7231 116.96 98.7231 116.96C98.7231 116.96 96.8731 121.08 97.3031 122.26C97.7331 123.44 92.3831 132.69 92.3831 132.69Z" fill="#314EC6"/>
<path d="M79.343 145.12C82.793 144.36 86.393 143.82 90.003 144.63C90.96 144.826 91.8351 145.307 92.513 146.01C93.093 146.81 93.513 147.52 94.003 148.31C94.8629 149.892 95.5117 151.58 95.933 153.33C95.9984 153.659 96.135 153.969 96.333 154.24C96.333 154.24 96.333 154.24 96.473 154.24C96.6275 154.157 96.7718 154.056 96.903 153.94C97.5181 153.35 98.0772 152.704 98.573 152.01C99.6004 150.616 100.419 149.08 101.003 147.45C101.634 145.817 102.165 144.147 102.593 142.45C103.063 140.74 103.433 139.01 103.773 137.27C103.52 140.827 102.849 144.341 101.773 147.74C101.231 149.478 100.421 151.121 99.373 152.61C98.8447 153.365 98.2453 154.069 97.583 154.71C97.3837 154.888 97.1618 155.04 96.923 155.16C96.764 155.238 96.5902 155.283 96.413 155.29C96.1955 155.298 95.9813 155.235 95.803 155.11C95.5362 154.911 95.3316 154.641 95.213 154.33C95.1215 154.109 95.0447 153.881 94.983 153.65C94.61 151.956 94.0149 150.318 93.213 148.78C92.8035 148.025 92.3562 147.29 91.873 146.58C91.3315 145.997 90.6393 145.575 89.873 145.36C88.1918 144.909 86.4524 144.714 84.713 144.78C82.9177 144.78 81.1241 144.894 79.343 145.12V145.12Z" fill="#314EC6"/>
<path d="M64.3432 140.05C63.7523 139.272 63.1144 138.53 62.4332 137.83C62.1079 137.491 61.7495 137.187 61.3632 136.92C61.1902 136.804 61.0017 136.713 60.8032 136.65C60.7268 136.641 60.6496 136.641 60.5732 136.65C60.5032 136.65 60.4732 136.65 60.3332 136.72C58.5769 137.45 56.9929 138.54 55.6832 139.92C55.0032 140.58 54.3732 141.36 53.5832 142.02C53.1898 142.369 52.7568 142.671 52.2932 142.92C52.0083 143.085 51.6821 143.165 51.3532 143.15C51.2386 143.142 51.1269 143.111 51.0253 143.058C50.9236 143.004 50.8343 142.93 50.7632 142.84C50.6456 142.686 50.573 142.503 50.5532 142.31C50.5138 141.767 50.5887 141.222 50.7732 140.71C50.9232 140.23 51.1032 139.71 51.2932 139.3C51.7039 138.4 52.1612 137.522 52.6632 136.67C52.3532 137.61 52.0132 138.53 51.7632 139.47C51.6198 139.93 51.4996 140.397 51.4032 140.87C51.3023 141.295 51.2719 141.735 51.3132 142.17C51.3234 142.225 51.3475 142.277 51.3832 142.32V142.32C51.5462 142.294 51.7026 142.236 51.8432 142.15C52.2303 141.907 52.5921 141.625 52.9232 141.31C53.6132 140.69 54.2232 139.94 54.9232 139.22C55.6351 138.502 56.4155 137.856 57.2532 137.29C58.1062 136.733 59.0314 136.296 60.0032 135.99C60.1583 135.938 60.3198 135.908 60.4832 135.9C60.646 135.905 60.8074 135.932 60.9632 135.98C61.2264 136.086 61.4725 136.231 61.6932 136.41C62.0813 136.746 62.4332 137.121 62.7432 137.53C63.3549 138.317 63.8907 139.161 64.3432 140.05Z" fill="#314EC6"/>
<path d="M70.0232 111.15C69.5532 113.8 69.1732 116.46 68.9632 119.15C68.4532 125.73 66.2332 134.15 66.4632 135.78C66.7032 137.64 68.9432 144.52 68.9432 144.52C68.9432 144.52 75.4532 142.86 78.5032 140.32C81.5532 137.78 84.8432 138.22 90.0332 134.59C95.2232 130.96 99.4932 124.47 99.5932 118.44C99.5932 117.66 100.213 110.03 101.463 102.24C102.713 94.4499 95.6432 87.0399 87.8832 85.6199C80.1232 84.1999 73.3632 94.8599 71.7032 102.62C71.0132 105.75 70.4532 108.73 70.0232 111.15Z" fill="#F6A397"/>
<path d="M101.463 102.23C100.213 110.02 99.6031 117.65 99.5931 118.43C99.5347 120.363 99.1318 122.269 98.4031 124.06C96.6231 124.06 74.4031 120.54 69.1931 116.83C69.3998 114.93 69.6764 113.037 70.0231 111.15C70.4531 108.73 71.0231 105.75 71.7031 102.58C72.5413 98.9077 74.0719 95.4289 76.2131 92.33L95.6131 89.21C99.6431 92.41 102.263 97.23 101.463 102.23Z" fill="#D65863"/>
<path d="M64.9331 62.1301C53.1931 59.9801 47.1431 68.2001 45.9331 74.9601C44.8231 81.0201 44.9831 91.0901 59.1831 93.6901C66.2731 94.9901 72.3731 88.8101 73.9731 80.0901C75.5731 71.3701 72.0331 63.4301 64.9331 62.1301Z" fill="#504984"/>
<path d="M63.7031 65.9C54.8431 64.33 50.2731 70.48 49.3331 75.59C48.4931 80.17 48.6231 87.77 59.3331 89.73C64.6831 90.73 69.3331 86.05 70.5031 79.47C71.6731 72.89 69.0631 66.88 63.7031 65.9Z" fill="#372D5B"/>
<path d="M49.143 64.7398C49.083 68.9898 50.833 70.9298 50.723 76.6498C50.613 82.3698 46.723 89.9698 49.043 97.6498C51.363 105.33 55.533 115.65 58.843 116.65C62.153 117.65 90.063 118.05 102.523 101.56C106.103 96.8298 115.453 77.4098 112.943 64.0498C110.433 50.6898 104.733 37.8098 86.773 34.1598C68.813 30.5098 49.463 42.2698 49.143 64.7398Z" fill="#F6A397"/>
<path d="M60.0931 89.9999C60.5508 90.1121 61.0274 90.1237 61.4901 90.0339C61.9528 89.9441 62.3905 89.7551 62.7731 89.4799C63.0315 89.2396 63.2376 88.9487 63.3787 88.6252C63.5198 88.3018 63.5928 87.9527 63.5931 87.5999C62.8158 88.004 61.9579 88.229 61.0823 88.2584C60.2068 88.2878 59.3357 88.1209 58.5331 87.7699C58.0831 89.0199 58.9731 89.7599 60.0931 89.9999Z" fill="#D65863"/>
<path d="M96.1131 73.3299C96.1566 70.6794 95.3468 68.0851 93.8031 65.9299C93.8031 65.9299 87.4331 61.8299 82.2131 60.3299C78.6432 59.2729 75.1624 57.9354 71.8031 56.3299C71.8031 56.3299 72.7031 60.9099 75.2331 63.2599C75.2331 63.2599 62.6131 60.2599 59.2331 55.7799C59.2331 55.7799 59.4431 59.0299 59.8331 61.2599C59.8331 61.2599 53.7131 59.4699 52.2231 56.6399C52.2231 56.6399 49.6631 61.7899 49.1131 64.7899C49.1131 64.7899 43.4931 53.1599 46.8931 45.3599C50.2931 37.5599 53.4631 34.9199 53.4631 34.9199C50.6668 34.6678 47.9029 34.1351 45.2131 33.3299C45.2131 33.3299 53.2131 28.5299 59.2131 25.4999C65.2131 22.4699 80.7731 25.1499 80.7731 25.1499C80.7731 25.1499 80.3231 20.7699 82.9131 14.4399C82.9131 14.4399 87.7931 25.4399 94.3131 29.7399C100.833 34.0399 99.9231 33.5899 107.063 36.8599C114.203 40.1299 120.453 46.2199 122.703 50.7899C124.953 55.3599 127.443 60.1299 129.273 61.1399C129.273 61.1399 124.713 59.6299 122.723 57.2499C122.723 57.2499 125.003 66.8299 117.723 77.2499C110.443 87.6699 98.1431 82.0299 96.1031 79.0499C95.5195 78.21 95.2076 77.2112 95.2094 76.1884C95.2112 75.1656 95.5266 74.1679 96.1131 73.3299V73.3299Z" fill="#BA6454"/>
<path d="M96.103 79.0499C95.5224 78.2129 95.2113 77.2186 95.2113 76.1999C95.2113 75.1813 95.5224 74.1869 96.103 73.3499C96.1327 71.2262 95.6198 69.13 94.613 67.2599C98.5637 56.1816 99.9318 44.3474 98.613 32.6599C100.389 33.809 102.255 34.8123 104.193 35.6599C106.649 41.5388 108.235 47.7439 108.903 54.0799C109.783 62.0799 109.393 70.3999 105.903 77.6099C104.992 79.472 103.861 81.2179 102.533 82.8099C99.423 81.8999 96.923 80.2499 96.103 79.0499Z" fill="#874438"/>
<path d="M101.413 69.95C101.413 69.95 107.533 41.6 94.2131 29.76C97.9472 30.2349 101.469 31.7633 104.366 34.1665C107.263 36.5696 109.416 39.7481 110.573 43.33C115.083 56.12 112.813 65.96 111.573 71.49C110.333 77.02 101.413 69.95 101.413 69.95Z" fill="#504984"/>
<path d="M106.213 69.69C117.953 71.84 120.703 81.69 119.463 88.43C118.343 94.5 114.623 103.85 100.463 101.25C93.363 99.95 89.853 92.01 91.463 83.25C93.073 74.49 99.083 68.39 106.213 69.69Z" fill="#504984"/>
<path d="M96.953 84.3299C98.373 76.5899 104.623 71.2599 110.953 72.4099C117.283 73.5599 120.863 80.7099 119.453 88.4099C118.043 96.1099 112.123 101.55 105.823 100.41C99.523 99.2699 95.533 92.0499 96.953 84.3299Z" fill="#372D5B"/>
<path d="M117.635 88.116C118.6 82.8521 115.908 77.9479 111.621 77.162C107.335 76.3761 103.078 80.0063 102.113 85.2702C101.148 90.534 103.84 95.4383 108.126 96.2242C112.412 97.0101 116.669 93.3799 117.635 88.116Z" fill="#504984"/>
<path d="M70.623 95.7998C67.133 96.9598 56.623 95.6498 55.973 95.4198C55.323 95.1898 55.293 103.33 57.783 104.08C60.273 104.83 65.463 105.08 67.953 103.44C70.443 101.8 70.623 95.7998 70.623 95.7998Z" fill="#D65863"/>
<path d="M69.543 97.97C69.473 97.24 69.423 96.65 69.383 96.08C65.673 96.63 58.703 95.87 56.573 95.54C56.5559 96.6557 56.6666 97.7696 56.903 98.86C56.973 98.86 56.903 98.96 56.903 98.93C58.9608 99.658 61.1478 99.9487 63.3243 99.7834C65.5008 99.6181 67.6188 99.0005 69.543 97.97Z" fill="white"/>
<path d="M72.6731 76.7299C72.9431 75.2899 73.863 74.2599 74.733 74.4199C75.603 74.5799 76.103 75.87 75.843 77.31C75.583 78.75 74.6531 79.7799 73.7831 79.6199C72.9131 79.4599 72.4131 78.1599 72.6731 76.7299Z" fill="#3F1751"/>
<path d="M54.353 74.6199C54.623 73.1899 55.443 72.1399 56.193 72.2699C56.943 72.3999 57.343 73.6899 57.073 75.1199C56.803 76.5499 55.993 77.6099 55.213 77.4699C54.433 77.3299 54.093 76.0599 54.353 74.6199Z" fill="#3F1751"/>
<path d="M83.3931 68.21C82.4081 67.4259 81.338 66.755 80.2031 66.21C79.0517 65.6588 77.8403 65.2427 76.5931 64.97C75.3431 64.5939 74.028 64.4849 72.7331 64.65C71.4243 64.8652 70.2036 65.4478 69.2131 66.33L69.2731 66.5C70.6031 66.6 71.7431 66.5 72.9131 66.5C74.0831 66.5 75.2031 66.33 76.3831 66.5C78.7726 66.7009 81.1081 67.3204 83.2831 68.33L83.3931 68.21Z" fill="#3F1751"/>
<path d="M51.2131 65.8C51.8158 65.6841 52.4309 65.6471 53.0431 65.69C53.6401 65.7243 54.2346 65.7944 54.8231 65.9C55.3832 66.0931 55.9637 66.2206 56.5531 66.28C56.8683 66.2823 57.1829 66.2556 57.4931 66.2C57.8384 66.1453 58.1748 66.0444 58.4931 65.9V65.72C58.0688 65.1447 57.4793 64.7121 56.8031 64.48C56.1455 64.3247 55.4608 64.3247 54.8031 64.48C54.1261 64.5206 53.4555 64.6346 52.8031 64.82C52.238 65.0146 51.7028 65.2872 51.2131 65.63V65.8Z" fill="#3F1751"/>
<path d="M167.703 230.33C167.822 230.943 167.758 231.577 167.517 232.154C167.277 232.73 166.872 233.223 166.353 233.57C159.733 238.02 151.003 244.13 143.223 243.89C134.733 243.63 120.873 241.61 120.443 239.72C120.013 237.83 121.343 215.04 118.443 202.86C115.543 190.68 113.263 184.33 113.213 177.59C113.163 170.85 127.213 157.64 132.453 157.31C137.693 156.98 149.343 158.31 153.313 163.46C157.283 168.61 157.813 185.46 161.073 198.78C163.693 209.49 166.653 224.81 167.703 230.33Z" fill="#5470D3"/>
<path d="M148.563 160.04C147.063 159.58 145.563 159.18 144.023 158.86C142.483 158.54 140.963 158.25 139.423 158.06C137.887 157.863 136.341 157.757 134.793 157.74C134.023 157.74 133.253 157.74 132.483 157.79C131.746 157.868 131.019 158.022 130.313 158.25C129.594 158.474 128.895 158.759 128.223 159.1C127.536 159.461 126.868 159.858 126.223 160.29C124.954 161.163 123.753 162.132 122.633 163.19C121.493 164.19 120.423 165.37 119.383 166.54C118.343 167.71 117.383 168.92 116.383 170.16C117.964 167.429 119.875 164.904 122.073 162.64C123.172 161.49 124.374 160.442 125.663 159.51C126.307 159.048 126.974 158.621 127.663 158.23C128.384 157.854 129.137 157.543 129.913 157.3C130.697 157.055 131.505 156.894 132.323 156.82C133.123 156.82 133.923 156.76 134.713 156.82C136.3 156.866 137.881 157.033 139.443 157.32C142.584 157.846 145.647 158.76 148.563 160.04V160.04Z" fill="#314EC6"/>
</g>
</svg>
