<svg width="184" height="172" viewBox="0 0 184 172" fill="none" xmlns="http://www.w3.org/2000/svg">
<g filter="url(#filter0_d_125_306)">
<path d="M27.5679 101.47C18.5202 62.8315 42.5306 24.18 81.1966 15.1389C119.863 6.09779 158.542 30.0908 167.59 68.7287C176.638 107.367 152.627 146.018 113.961 155.059C75.2952 164.1 36.6156 140.107 27.5679 101.47Z" fill="#5470D3"/>
<path d="M82.1086 19.0336C45.5914 27.5722 22.9194 64.0742 31.4629 100.559C40.0063 137.043 76.5319 159.703 113.049 151.165C149.566 142.626 172.238 106.124 163.695 69.6395C155.152 33.1549 118.626 10.4949 82.1086 19.0336Z" fill="#5470D3" stroke="#314EC6" stroke-width="8"/>
<mask id="mask0_125_306" style="mask-type:alpha" maskUnits="userSpaceOnUse" x="26" y="-38" width="144" height="195">
<path d="M27.5679 101.47C18.5202 62.8315 50.9308 -28.1681 89.5968 -37.2092C128.263 -46.2503 158.542 30.0908 167.59 68.7287C176.638 107.367 152.627 146.018 113.961 155.059C75.2952 164.1 36.6156 140.107 27.5679 101.47Z" fill="#5470D3"/>
</mask>
<g mask="url(#mask0_125_306)">
<path d="M-3.531 139.311C-4.92201 146.311 1.56271 152.541 3.59418 153.701C5.62565 154.861 19.2655 160.321 27.4515 160.511C35.6374 160.701 46.4653 143.391 42.0321 141.451C37.5988 139.511 7.46698 137.311 4.16459 137.311C0.862191 137.311 -3.531 139.311 -3.531 139.311Z" fill="#FFC5C7"/>
<path d="M17.9547 135.601C21.5273 156.601 29.9634 172.951 32.6654 173.251C35.3674 173.551 60.7658 164.781 67.7809 161.571C74.796 158.361 65.6293 109.051 61.2661 109.921C56.903 110.791 47.326 120.311 39.3803 124.811C31.4345 129.311 17.9547 135.601 17.9547 135.601Z" fill="white"/>
<path d="M59.8752 144.311C57.4235 148.511 37.1988 159.171 26.0607 163.051C28.8127 169.261 31.4046 173.051 32.6655 173.221C34.9371 173.471 53.9209 167.081 63.738 163.221C62.8553 156.841 61.5651 150.525 59.8752 144.311V144.311Z" fill="#DCEDFF"/>
<path d="M-3.56072 138.31C-3.76087 146.64 3.75458 147.84 12.7511 145.7C21.7476 143.56 36.3782 123.31 42.963 114.2C49.5478 105.09 61.7066 88.7704 64.2284 87.3104C66.7503 85.8504 72.5345 85.0704 77.478 76.8504C82.4216 68.6304 75.9169 51.4104 73.5852 49.3704C71.2535 47.3304 51.199 54.1504 48.8673 57.6004C46.5356 61.0504 50.5185 79.6004 49.868 81.9104C49.2176 84.2204 32.1051 103.31 24.6497 107.98C17.1943 112.65 -3.41061 132.31 -3.56072 138.31Z" fill="#FFC5C7"/>
<path d="M63.3176 63.1306C65.6693 61.9606 66.2397 56.6606 64.7586 57.5906C63.2775 58.5206 60.6856 58.5106 57.1731 58.4606C55.5184 58.4816 53.8647 58.3646 52.2295 58.1106C52.0186 59.4944 51.9016 60.891 51.8793 62.2906C51.8793 62.2906 60.9558 64.3106 63.3176 63.1306Z" fill="#FE8A8B"/>
<path d="M78.919 64.3104C77.4979 61.6804 76.4072 59.6604 76.4072 59.6604L62.6272 72.9304C59.9603 70.6803 57.1598 68.5931 54.2411 66.6804L53.0302 68.8404C55.2618 72.6104 57.2032 80.5904 57.2433 82.5304C57.2433 82.5304 59.3648 84.8704 60.5457 85.0604C60.5457 85.0604 45.7949 108.41 36.3081 119.88C26.8212 131.35 20.3665 141.16 15.9633 144.31C24.9699 139.14 37.1587 122.31 42.9829 114.17C49.5176 105.03 61.7165 88.7404 64.2383 87.2804C66.7602 85.8204 72.5444 85.0404 77.4879 76.8204C79.4093 73.5904 79.5895 68.9204 78.919 64.3104Z" fill="#FE8A8B"/>
<path d="M50.2281 65.6605C50.3882 67.0205 64.0981 78.8905 65.5292 80.3105C66.0037 80.4867 66.5257 80.4867 67.0002 80.3105C70.6429 77.1105 86.5544 48.2305 86.8346 47.1905C87.1148 46.1505 76.5372 36.2905 73.3148 33.6305C72.8972 33.4783 72.4496 33.4262 72.0082 33.4783C71.5667 33.5304 71.1437 33.6853 70.773 33.9305C67.5206 38.6905 50.0079 63.9105 50.2281 65.6605Z" fill="#0C0835"/>
<path d="M51.6993 65.6606C51.8694 67.0206 65.5693 78.8906 67.0004 80.2606C68.4314 81.6306 88.0156 48.2606 88.3158 47.1406C88.576 46.1406 76.8175 36.4006 73.5951 33.7406C73.5003 33.6544 73.3883 33.5891 73.2665 33.5491C73.1447 33.5091 73.0158 33.4953 72.8883 33.5085C72.7608 33.5217 72.6375 33.5617 72.5265 33.6258C72.4155 33.69 72.3193 33.7768 72.2442 33.8806C68.9918 38.6906 51.4791 63.9106 51.6993 65.6606Z" fill="#252384"/>
<path d="M54.001 63.7105C54.1611 64.9905 67.0105 76.0905 68.3214 77.3605C69.6324 78.6305 87.9656 47.4405 88.2559 46.3605C88.5461 45.2805 77.5081 36.3105 74.4859 33.8505C74.3974 33.7701 74.2929 33.7092 74.1792 33.6719C74.0656 33.6346 73.9453 33.6216 73.8263 33.6339C73.7073 33.6462 73.5923 33.6834 73.4887 33.7431C73.385 33.8028 73.2952 33.8837 73.225 33.9805C70.1828 38.4805 53.8009 62.0705 54.001 63.7105Z" fill="#57AFF7"/>
<path d="M62.2269 47.4406C64.3484 46.1606 66.9503 41.8306 67.2305 40.3706C67.5107 38.9106 67.3206 37.6006 66.2298 37.3106C65.139 37.0206 61.5764 41.5906 59.8252 42.9506C58.0739 44.3106 55.9523 47.1306 56.823 49.0306C57.6936 50.9306 61.5864 50.2006 61.9967 49.9106C62.407 49.6206 62.2269 47.4406 62.2269 47.4406Z" fill="#FFC5C7"/>
<path d="M66.7903 37.6904C67.4608 39.3504 63.0776 46.0104 59.2349 47.9304L60.6659 49.5604L62.147 49.2204C62.2161 48.6298 62.2429 48.0349 62.227 47.4404C64.3386 46.1604 66.9505 41.8304 67.2307 40.3704C67.353 39.9182 67.3771 39.445 67.3011 38.9827C67.2252 38.5205 67.051 38.0798 66.7903 37.6904V37.6904Z" fill="#FE8A8B"/>
<path d="M57.2933 54.1706C60.936 52.1706 63.7981 52.4406 65.7895 51.6306C67.781 50.8206 68.1312 47.7706 66.7902 47.2606C65.4493 46.7506 57.2133 48.0606 55.0917 49.0106C52.9702 49.9606 51.9495 54.3106 51.9495 54.3106L57.2933 54.1706Z" fill="#FFC5C7"/>
<path d="M58.8845 51.8906C56.823 52.2806 56.1125 51.8906 56.1125 51.8906C56.1725 52.7006 55.412 53.1006 54.5513 54.2506L57.2933 54.1706C60.936 52.1706 63.798 52.4406 65.7895 51.6306C66.2031 51.448 66.5691 51.1726 66.8589 50.8257C67.1488 50.4789 67.3547 50.0699 67.4607 49.6306C66.5801 51.3106 60.946 51.5106 58.8845 51.8906Z" fill="#FE8A8B"/>
<path d="M48.8671 57.6006C50.8685 60.2906 60.3754 59.1206 62.2968 58.8306C64.2182 58.5406 65.3991 57.3106 65.2389 56.1006C64.8387 53.6306 52.2295 54.1006 51.1687 54.4506C50.108 54.8006 48.8671 57.6006 48.8671 57.6006Z" fill="#FFC5C7"/>
<path d="M65.1689 56.6904C63.858 57.9904 60.7257 58.6904 57.3032 59.0104C55.6199 59.1658 53.9274 59.1959 52.2396 59.1004C55.5897 59.4424 58.97 59.3516 62.2969 58.8304C62.9353 58.8031 63.5506 58.5843 64.0629 58.2027C64.5752 57.821 64.9606 57.294 65.1689 56.6904V56.6904Z" fill="#FE8A8B"/>
<path d="M93.5696 95.3105C73.2949 105.621 69.9725 105.221 61.2662 109.901C52.5599 114.581 55.1518 163.791 55.7022 171.381C56.2526 178.971 58.3941 209.141 57.1933 217.311C55.9924 225.481 51.5292 255.831 49.5377 260.501C47.5463 265.171 43.7335 273.041 49.6178 277.711C55.502 282.381 67.9711 285.591 95.0207 283.841C122.07 282.091 151.231 265.461 152.462 263.121C153.693 260.781 139.533 217.891 138.943 209.721C138.424 203.616 137.396 197.565 135.87 191.631C135.01 187.841 143.616 170.041 144.987 158.631C146.358 147.221 158.787 115.881 156.465 110.131C154.144 104.381 132.548 97.9705 117.867 90.6605C103.187 83.3505 93.5696 95.3105 93.5696 95.3105Z" fill="white"/>
<path d="M73.475 108.091C76.8568 119.13 83.5498 128.866 92.6489 135.981C103.657 133.291 114.795 128.461 123.781 121.611C113.783 129.1 102.759 135.115 91.0478 139.471C81.3424 131.681 75.0423 120.431 73.475 108.091Z" fill="#DCEDFF"/>
<path d="M77.608 102.871C81.5009 101.221 86.5045 98.8706 93.6196 95.3306C93.6196 95.3306 103.247 83.3306 117.917 90.6606C123.011 93.1906 128.925 95.6606 134.589 97.9506C125.726 112.941 111.808 124.286 95.3309 129.951C86.6811 123.047 80.4704 113.557 77.608 102.871V102.871Z" fill="#FFC5C7"/>
<path d="M152.462 263.121C153.753 260.791 139.533 217.891 138.943 209.721C138.424 203.616 137.396 197.565 135.87 191.631C135.01 187.841 143.616 170.041 144.987 158.631C145.36 156.093 145.891 153.582 146.578 151.111L137.451 144.311C132.088 159.251 128.745 185.511 123.661 191.931C118.578 198.351 105.929 200.931 105.929 200.931C105.929 200.931 118.438 203.931 123.912 202.761C123.912 202.761 129.736 225.811 129.796 237.191C129.856 248.571 128.795 265.791 128.675 268.121C128.675 269.001 128.815 272.031 129.075 275.501C142.175 270.311 151.792 264.441 152.462 263.121Z" fill="#DCEDFF"/>
<path d="M115.566 69.9304C115.776 82.1004 116.566 90.4704 119.278 92.8004C119.278 92.8004 114.635 113.01 96.1015 111.28C89.827 110.7 90.4274 100.2 93.5697 95.2804L91.7083 80.3504L115.566 69.9304Z" fill="#FFC5C7"/>
<path d="M117.867 90.6604C116.286 86.9204 115.736 79.6604 115.566 69.9304L91.7085 80.4004L92.9093 89.9704C97.1324 91.8704 117.867 90.6604 117.867 90.6604Z" fill="#FE8A8B"/>
<path d="M142.335 159.911C136.751 148.911 134.519 131.131 139.563 121.751C144.607 112.371 154.114 109.001 156.465 110.131C158.817 111.261 165.112 125.881 171.046 132.631C176.98 139.381 193.162 158.311 193.652 159.911C194.143 161.511 181.944 174.361 158.997 183.811C156.265 184.941 142.335 159.911 142.335 159.911Z" fill="white"/>
<path d="M159.357 168.411L163.02 175.911C163.02 175.911 145.007 157.851 137.502 144.361C138.323 149.757 139.952 154.999 142.335 159.911C142.335 159.911 156.265 184.911 158.997 183.811C162.92 182.191 166.473 180.481 169.795 178.731L159.357 168.411Z" fill="#DCEDFF"/>
<path d="M90.3272 71.0205C91.5681 66.0205 91.5381 60.8605 91.8383 55.7305C92.0685 51.8905 92.2586 48.3805 95.7512 46.0805C98.3782 44.5204 101.475 43.9461 104.488 44.4605C112.493 45.4605 114.275 53.3205 113.654 60.7505C113.184 66.4305 110.962 71.8905 108.761 77.1205C111.763 76.9905 115.766 75.4405 117.537 72.9805C116.814 76.1967 115.202 79.1453 112.884 81.4905C121.44 81.3105 129.446 75.7305 133.989 68.1905C138.532 60.6505 139.993 51.4505 139.493 42.5705C138.912 32.0405 135.63 21.4905 129.115 13.3805C115.996 -2.92948 90.7375 -4.82948 75.3564 9.18052C70.046 14.1232 66.2318 20.4571 64.3484 27.4605C61.937 36.7545 61.7655 46.4875 63.848 55.8605C64.5756 59.5146 65.0935 63.2073 65.3992 66.9205C65.5192 68.1105 66.9703 82.0205 66.1297 81.9205C71.5536 82.2505 77.7882 81.1605 81.4608 77.0205C79.8196 79.8605 78.3986 82.6005 76.7474 85.4505C83.5723 84.3105 88.606 77.9705 90.3272 71.0205Z" fill="#372D5B"/>
<path d="M118.438 52.0705C120.859 50.6405 123.771 49.8705 126.013 52.1405C129.326 55.5005 124.622 71.1405 117.487 67.3205C117.487 67.3205 107.149 81.7605 99.5639 85.8505C91.9784 89.9405 86.5545 87.8505 83.7225 84.9705C80.8904 82.0905 71.2334 70.0905 69.4921 57.4005C68.8717 52.8705 69.4921 43.9705 69.4021 42.0805C68.9718 36.2405 66.7602 31.4505 71.4035 26.8705C76.1194 22.215 82.4029 19.4838 89.0263 19.2105C93.1757 19.1147 97.296 19.926 101.099 21.5877C104.902 23.2494 108.295 25.7213 111.042 28.8305C117.077 35.6705 118.117 43.4005 118.438 52.0705Z" fill="#FFC5C7"/>
<path d="M124.882 56.4106C124.262 53.5506 121.82 52.9906 120.009 54.9806C118.197 56.9706 117.837 63.4906 118.308 64.4506C118.778 65.4106 121.99 65.3306 122.591 63.3606C123.191 61.3906 121.34 60.1406 119.588 60.7306C119.588 60.7306 119.088 57.8506 120.589 55.9906C122.09 54.1306 123.591 54.8406 123.962 55.3206C124.332 55.8006 124.882 56.4106 124.882 56.4106Z" fill="#FE8A8B"/>
<path d="M105.118 43.7605C104.422 43.1171 103.69 42.5129 102.927 41.9505C102.141 41.3826 101.303 40.8904 100.425 40.4805C99.5712 40.0088 98.6385 39.697 97.6728 39.5605C96.7291 39.4508 95.7729 39.5779 94.8907 39.9305V40.0605C95.3319 40.2311 95.7831 40.3747 96.2417 40.4905L97.5227 40.8505C98.3633 41.0905 99.2339 41.1705 100.085 41.4505C100.938 41.725 101.77 42.0592 102.576 42.4505C103.407 42.8605 104.197 43.3305 105.008 43.8105L105.118 43.7605Z" fill="#3F1751"/>
<path d="M72.8246 40.4804C73.6033 40.0706 74.4352 39.7711 75.2964 39.5904C76.155 39.407 77.0303 39.3132 77.9083 39.3104C78.789 39.3104 79.6696 39.4704 80.5402 39.4604C81.4515 39.4861 82.3635 39.4627 83.2722 39.3904V39.2704C82.4581 38.7041 81.5285 38.325 80.5502 38.1604C79.604 38.0332 78.6431 38.067 77.7082 38.2604C76.7881 38.395 75.8875 38.6401 75.0262 38.9904C74.1882 39.3398 73.4086 39.8153 72.7146 40.4004L72.8246 40.4804Z" fill="#3F1751"/>
<path d="M96.4219 48.8905C96.4219 47.6505 97.0723 46.7105 97.8129 46.7805C98.5534 46.8505 99.1138 47.9105 99.0838 49.1505C99.0538 50.3905 98.4233 51.3105 97.7228 51.2505C97.0223 51.1905 96.4219 50.1205 96.4219 48.8905Z" fill="#3F1751"/>
<path d="M76.9475 47.3104C76.9475 46.0804 77.4879 45.1204 78.0883 45.1804C78.6887 45.2404 79.1591 46.2904 79.089 47.5204C79.019 48.7504 78.5486 49.7104 77.9482 49.6504C77.3478 49.5904 76.9174 48.5604 76.9475 47.3104Z" fill="#3F1751"/>
<path d="M90.3474 60.8806C89.4483 61.4526 88.4022 61.7515 87.3363 61.7408C86.2704 61.7302 85.2306 61.4105 84.3431 60.8206C84.3927 61.2928 84.5622 61.7445 84.8354 62.133C85.1086 62.5215 85.4764 62.8338 85.9042 63.0406C86.8186 63.3582 87.8212 63.3043 88.6962 62.8906C89.5268 62.5006 89.807 61.6406 90.3474 60.8806Z" fill="#FE8A8B"/>
<path d="M97.1123 68.1305C93.0394 68.1905 83.2422 67.4405 80.1 66.9905C81.3609 71.1105 84.6633 75.1805 89.2766 75.1905C93.4196 75.1905 96.1116 71.7805 97.1123 68.1305Z" fill="#C31F2A"/>
<path d="M93.3696 73.8405C92.0864 73.4836 90.73 73.4836 89.4468 73.8405C88.6577 73.3734 87.776 73.084 86.8634 72.9924C85.9508 72.9009 85.0292 73.0094 84.163 73.3105C85.5778 74.5153 87.368 75.1906 89.2266 75.2205C90.7195 75.2134 92.1711 74.7299 93.3696 73.8405V73.8405Z" fill="#FB8384"/>
<path d="M82.8118 70.4406C86.9258 71.6245 91.3121 71.4527 95.3208 69.9506C95.3208 69.3406 95.4009 68.7306 95.4409 68.1206C91.438 68.0306 84.9033 67.5406 81.4308 67.1206C81.7178 68.2916 82.1836 69.4114 82.8118 70.4406V70.4406Z" fill="white"/>
<path d="M114.435 38.6405C107.759 38.3471 101.187 36.8814 95.0206 34.3105C93.8598 31.6105 93.8197 29.2105 93.6396 26.3105C91.9536 29.388 90.9854 32.8065 90.8076 36.3105C86.9347 36.0605 83.0519 35.8505 79.1791 35.6005C78.2215 32.5446 77.8813 29.329 78.1784 26.1405C76.9344 29.4134 76.1106 32.8306 75.7266 36.3105C73.3949 35.4805 70.4328 36.6905 67.991 37.1305C64.9888 30.4005 65.169 18.2005 71.5636 13.1305C77.7981 8.13053 88.5759 6.80053 96.2215 7.91053C112.433 10.1905 125.142 23.6205 124.142 40.3605C123.571 49.9105 118.778 58.9405 111.903 65.6005C115.965 57.2108 116.864 47.639 114.435 38.6405V38.6405Z" fill="#372D5B"/>
</g>
</g>
<defs>
<filter id="filter0_d_125_306" x="21.6606" y="-0.204346" width="151.836" height="165.17" filterUnits="userSpaceOnUse" color-interpolation-filters="sRGB">
<feFlood flood-opacity="0" result="BackgroundImageFix"/>
<feColorMatrix in="SourceAlpha" type="matrix" values="0 0 0 0 0 0 0 0 0 0 0 0 0 0 0 0 0 0 127 0" result="hardAlpha"/>
<feOffset dy="4"/>
<feGaussianBlur stdDeviation="2"/>
<feComposite in2="hardAlpha" operator="out"/>
<feColorMatrix type="matrix" values="0 0 0 0 0 0 0 0 0 0 0 0 0 0 0 0 0 0 0.25 0"/>
<feBlend mode="normal" in2="BackgroundImageFix" result="effect1_dropShadow_125_306"/>
<feBlend mode="normal" in="SourceGraphic" in2="effect1_dropShadow_125_306" result="shape"/>
</filter>
</defs>
</svg>
