<svg width="31" height="30" viewBox="0 0 31 30" fill="none" xmlns="http://www.w3.org/2000/svg">
<path fill-rule="evenodd" clip-rule="evenodd" d="M15.0762 0C6.78867 0 0.0761719 6.7125 0.0761719 15C0.0761719 21.6375 4.36992 27.2437 10.3324 29.2313C11.0824 29.3625 11.3637 28.9125 11.3637 28.5187C11.3637 28.1625 11.3449 26.9813 11.3449 25.725C7.57617 26.4188 6.60117 24.8062 6.30117 23.9625C6.13242 23.5312 5.40117 22.2 4.76367 21.8438C4.23867 21.5625 3.48867 20.8687 4.74492 20.85C5.92617 20.8312 6.76992 21.9375 7.05117 22.3875C8.40117 24.6562 10.5574 24.0188 11.4199 23.625C11.5512 22.65 11.9449 21.9937 12.3762 21.6187C9.03867 21.2437 5.55117 19.95 5.55117 14.2125C5.55117 12.5813 6.13242 11.2312 7.08867 10.1812C6.93867 9.80625 6.41367 8.26875 7.23867 6.20625C7.23867 6.20625 8.49492 5.8125 11.3637 7.74375C12.5637 7.40625 13.8387 7.2375 15.1137 7.2375C16.3887 7.2375 17.6637 7.40625 18.8637 7.74375C21.7324 5.79375 22.9887 6.20625 22.9887 6.20625C23.8137 8.26875 23.2887 9.80625 23.1387 10.1812C24.0949 11.2312 24.6762 12.5625 24.6762 14.2125C24.6762 19.9688 21.1699 21.2437 17.8324 21.6187C18.3762 22.0875 18.8449 22.9875 18.8449 24.3938C18.8449 26.4 18.8262 28.0125 18.8262 28.5187C18.8262 28.9125 19.1074 29.3813 19.8574 29.2313C25.7824 27.2437 30.0762 21.6187 30.0762 15C30.0762 6.7125 23.3637 0 15.0762 0Z" fill="#1B1F23"/>
</svg>
