<svg width="19" height="18" viewBox="0 0 19 18" fill="none" xmlns="http://www.w3.org/2000/svg">
<g clip-path="url(#clip0_93_45)">
<path d="M17.8353 9.2025C17.8353 8.61 17.7828 8.0475 17.6928 7.5H9.21777V10.8825H14.0703C13.8528 11.9925 13.2153 12.93 12.2703 13.5675V15.8175H15.1653C16.8603 14.25 17.8353 11.94 17.8353 9.2025Z" fill="#4285F4"/>
<path d="M9.21777 18C11.6478 18 13.6803 17.19 15.1653 15.8175L12.2703 13.5675C11.4603 14.1075 10.4328 14.4375 9.21777 14.4375C6.87027 14.4375 4.88277 12.855 4.17027 10.7175H1.18527V13.035C2.66277 15.975 5.70027 18 9.21777 18Z" fill="#34A853"/>
<path d="M4.17027 10.7175C3.98277 10.1775 3.88527 9.59999 3.88527 8.99999C3.88527 8.39999 3.99027 7.8225 4.17027 7.2825V4.965H1.18527C0.570273 6.18 0.217773 7.54499 0.217773 8.99999C0.217773 10.455 0.570273 11.82 1.18527 13.035L4.17027 10.7175Z" fill="#FBBC05"/>
<path d="M9.21777 3.5625C10.5453 3.5625 11.7303 4.02 12.6678 4.9125L15.2328 2.3475C13.6803 0.892501 11.6478 0 9.21777 0C5.70027 0 2.66277 2.025 1.18527 4.965L4.17027 7.2825C4.88277 5.145 6.87027 3.5625 9.21777 3.5625Z" fill="#EA4335"/>
</g>
<defs>
<clipPath id="clip0_93_45">
<rect width="18" height="18" fill="white" transform="translate(0.0265198)"/>
</clipPath>
</defs>
</svg>
