<svg width="30" height="30" viewBox="0 0 30 30" fill="none" xmlns="http://www.w3.org/2000/svg">
<path d="M15.3761 0.899902C7.42307 0.899902 0.976074 7.3469 0.976074 15.2999C0.976074 23.2529 7.42307 29.6999 15.3761 29.6999C23.3291 29.6999 29.7761 23.2529 29.7761 15.2999C29.7761 7.3469 23.3291 0.899902 15.3761 0.899902ZM11.8511 21.2669H8.93507V11.8859H11.8511V21.2669ZM10.3751 10.7339C9.45407 10.7339 8.85708 10.0799 8.85708 9.2729C8.85708 8.4479 9.46908 7.8149 10.4111 7.8149C11.3531 7.8149 11.9291 8.4479 11.9471 9.2729C11.9501 10.0829 11.3531 10.7339 10.3751 10.7339ZM22.4981 21.2669H19.5821V16.0679C19.5821 14.8589 19.1591 14.0339 18.1031 14.0339C17.2991 14.0339 16.8191 14.5919 16.6061 15.1259C16.5281 15.3149 16.5101 15.5849 16.5101 15.8549V21.2639H13.5911V14.8739C13.5911 13.7039 13.5551 12.7229 13.5131 11.8799H16.0451L16.1801 13.1819H16.2371C16.6211 12.5699 17.5631 11.6669 19.1351 11.6669C21.0521 11.6669 22.4921 12.9509 22.4921 15.7139V21.2669H22.4981Z" fill="white"/>
</svg>
