<svg width="162" height="69" viewBox="0 0 162 69" fill="none" xmlns="http://www.w3.org/2000/svg">
<path d="M151.8 62.2851C151.8 62.2851 147.306 63.4673 139.913 64.7629C144.004 54.5493 144.76 37.4492 130.473 35.3067C125.888 34.6186 120.895 36.0226 118.099 39.8615C116.244 42.4023 115.405 45.5884 115.16 48.6837C115.081 49.5216 115.065 50.3641 115.112 51.2044L130.571 49.8987C119.344 54.0098 117.625 63.8378 117.378 67.5432C113.277 67.8305 108.957 68.0221 104.495 68.0473C104.591 68.0473 104.387 53.4906 104.407 52.0866C104.526 43.8567 106.882 36.1612 113.466 30.8099C122.931 23.1194 138.169 25.2267 146.623 33.3986C154.248 40.7664 155.193 52.6487 151.8 62.2851Z" fill="url(#paint0_linear_361_870)"/>
<path d="M158.165 58.9327C159.528 53.7796 159.503 48.3574 158.091 43.2173C156.68 38.0771 153.933 33.4023 150.129 29.6681C146.949 26.5375 143.151 24.1038 138.978 22.5221C132.996 20.2535 126.122 20.1476 119.788 21.4861L119.491 17.8715L116.852 22.2171C116.559 22.3002 116.267 22.391 115.974 22.4691C113.574 23.209 111.254 24.1894 109.05 25.3956C108.798 25.5367 106.638 26.5399 106.638 26.8903V0.703399C109.749 0.222559 112.894 -0.00839776 116.042 0.0127434V4.74146L119.675 0.106007C130.581 0.675672 145.637 4.16676 153.955 17.8387C167.97 40.9278 158.165 58.9327 158.165 58.9327Z" fill="url(#paint1_linear_361_870)"/>
<path d="M158.165 58.9327C159.528 53.7796 159.503 48.3574 158.091 43.2172C156.68 38.0771 153.933 33.4023 150.129 29.668C146.949 26.5375 143.151 24.1038 138.978 22.522C132.996 20.2534 126.122 20.1476 119.788 21.486L119.491 17.8714L116.852 22.217C116.559 22.3002 116.267 22.391 115.974 22.4691C113.574 23.209 111.254 24.1894 109.05 25.3956C108.798 25.5367 106.638 26.5399 106.638 26.8903V12.51C110.89 11.3808 130.468 6.98733 144.256 17.2993C159.803 28.9471 163.41 41.2403 158.165 58.9327Z" fill="url(#paint2_linear_361_870)"/>
<path d="M99.7945 39.4154H0.952637V68.0524H99.7945V39.4154Z" fill="#E57452"/>
<path d="M26.6354 35.4151H20.0314L18.3022 30.4016H9.12455L7.39791 35.4151H0.952637L10.1126 10.6146H17.4754L26.6354 35.4151ZM16.7646 25.8543L13.7146 16.9691L10.6621 25.8543H16.7646Z" fill="url(#paint3_linear_361_870)"/>
<path d="M43.1229 28.1355C43.1316 29.1828 42.9346 30.2216 42.5431 31.1931C42.1682 32.1232 41.5741 32.9491 40.8115 33.6003C39.9495 34.3274 38.9537 34.8789 37.8799 35.2236C36.5034 35.6427 35.0687 35.8393 33.6302 35.8058C32.4858 35.8058 31.4086 35.7638 30.3987 35.6798C29.5045 35.6123 28.615 35.4937 27.7344 35.3244V30.3083H28.3343C28.8661 30.51 29.4232 30.694 30.0004 30.8679C30.7226 31.0554 31.4677 31.1403 32.2136 31.12C33.3814 31.12 34.2788 30.9645 34.9056 30.6536C35.4875 30.3861 35.9599 29.927 36.2441 29.353C36.5053 28.79 36.6526 28.1809 36.6776 27.5608C36.7112 26.9105 36.728 26.0795 36.728 25.0679V15.1794H31.049V10.6146H43.1229V28.1355Z" fill="url(#paint4_linear_361_870)"/>
<path d="M72.0549 35.4151H65.4483L63.7166 30.4016H54.544L52.8173 35.4151H46.3721L55.5321 10.6146H62.8949L72.0549 35.4151ZM62.184 25.8543L59.1341 16.9691L56.0816 25.8543H62.184Z" fill="url(#paint5_linear_361_870)"/>
<path d="M98.1032 35.4151H90.7001L85.3639 27.2735L79.9218 35.4151H72.864L81.6585 22.9203L73.043 10.6146H80.4259L85.5832 18.3353L90.8765 10.6146H97.962L89.3162 22.6607L98.1032 35.4151Z" fill="url(#paint6_linear_361_870)"/>
<path d="M9.31102 57.4556C9.11857 57.5058 8.9233 57.5446 8.72623 57.5715C8.54018 57.6 8.35234 57.6152 8.16413 57.6169C7.92549 57.6341 7.68588 57.6017 7.46033 57.5219C7.23478 57.4421 7.02815 57.3165 6.8534 57.1531C6.55428 56.8439 6.40473 56.3474 6.40473 55.6634V52.6664H5.76196V51.8699H6.40473V50.2491H7.35249V51.8699H9.31102V52.6664H7.35249V55.2349C7.35249 55.5298 7.35249 55.7617 7.37265 55.9281C7.38481 56.092 7.433 56.2512 7.51381 56.3944C7.58042 56.5235 7.68758 56.6271 7.8188 56.6893C8.00711 56.7633 8.20912 56.796 8.41115 56.7851C8.5756 56.7839 8.73918 56.761 8.89764 56.717C9.02402 56.6853 9.14856 56.6466 9.27069 56.6011H9.32111L9.31102 57.4556Z" fill="white"/>
<path d="M15.1692 57.506H14.2214V54.2973C14.2224 54.0529 14.2072 53.8087 14.176 53.5663C14.159 53.3788 14.1014 53.1973 14.0071 53.0344C13.9236 52.8927 13.7962 52.7821 13.6442 52.7193C13.4482 52.6439 13.239 52.6088 13.0291 52.616C12.7479 52.6206 12.4711 52.6859 12.2175 52.8076C11.9284 52.9391 11.6553 53.1031 11.4033 53.2966V57.506H10.4556V49.6542H11.4033V52.495C11.6806 52.26 11.9905 52.0664 12.3234 51.9203C12.6296 51.784 12.9611 51.7136 13.2963 51.7136C13.5549 51.6959 13.8142 51.736 14.0553 51.8311C14.2964 51.9261 14.5133 52.0737 14.6902 52.2631C15.0104 52.6286 15.1692 53.1579 15.1692 53.8461V57.506Z" fill="white"/>
<path d="M21.7127 54.7863H17.5612C17.555 55.0951 17.6081 55.4023 17.7175 55.6912C17.8099 55.9321 17.9565 56.1486 18.146 56.3238C18.3258 56.4877 18.5378 56.6122 18.7686 56.6893C19.0258 56.7724 19.2948 56.8133 19.5651 56.8103C19.962 56.8072 20.3546 56.7285 20.7221 56.5784C21.0223 56.4765 21.3027 56.3239 21.5514 56.1272H21.6018V57.1632C21.2803 57.2976 20.9502 57.4104 20.6137 57.501C20.2718 57.5929 19.9191 57.6387 19.5651 57.6371C18.6299 57.6371 17.8989 57.385 17.3747 56.8809C16.8504 56.3768 16.5857 55.6534 16.5857 54.7232C16.5857 53.7931 16.8378 53.0697 17.3419 52.5278C17.5953 52.2578 17.9038 52.0456 18.2466 51.9055C18.5893 51.7655 18.9582 51.7009 19.3281 51.7161C19.6528 51.694 19.9784 51.742 20.2828 51.8568C20.5872 51.9716 20.8634 52.1506 21.0926 52.3816C21.506 52.8252 21.7102 53.4554 21.7102 54.2746L21.7127 54.7863ZM20.7901 54.0578C20.8138 53.6395 20.6798 53.2276 20.4145 52.9033C20.2668 52.7587 20.0898 52.6475 19.8954 52.577C19.7011 52.5066 19.4939 52.4786 19.2878 52.495C19.0653 52.4839 18.8428 52.5182 18.634 52.5958C18.4251 52.6733 18.2342 52.7926 18.0729 52.9462C17.7763 53.2448 17.5973 53.6404 17.5687 54.0603L20.7901 54.0578Z" fill="white"/>
<path d="M29.819 50.5717H29.7686C29.6627 50.5414 29.5165 50.5112 29.3577 50.4784C29.2117 50.4483 29.0632 50.4322 28.9141 50.4305C28.5954 50.4025 28.2782 50.4991 28.0294 50.7002C27.8454 50.8817 27.7546 51.2044 27.7546 51.6783V51.8698H29.4636V52.6663H27.7849V57.506H26.8346V52.6663H26.1943V51.8698H26.8346V51.6858C26.7984 51.126 26.9789 50.5736 27.3387 50.1432C27.5273 49.9567 27.7534 49.8124 28.0019 49.7198C28.2505 49.6273 28.5159 49.5886 28.7805 49.6063C28.9717 49.6051 29.1627 49.6152 29.3527 49.6365C29.5241 49.6567 29.6804 49.6794 29.8215 49.7071L29.819 50.5717Z" fill="white"/>
<path d="M35.0923 57.506H34.142V56.8809C33.8595 57.1088 33.5517 57.3033 33.2245 57.4607C32.9203 57.5972 32.5901 57.666 32.2566 57.6623C32.0005 57.6769 31.7443 57.636 31.5055 57.5425C31.2667 57.4489 31.0509 57.305 30.8728 57.1204C30.5426 56.7574 30.3687 56.2281 30.3687 55.5273V51.8699H31.3164V55.0786C31.315 55.3237 31.3285 55.5687 31.3567 55.8122C31.378 55.9959 31.4363 56.1734 31.5281 56.3339C31.6109 56.4749 31.7338 56.5881 31.881 56.6591C32.0829 56.7353 32.2982 56.7696 32.5137 56.7599C32.7923 56.7515 33.0661 56.6854 33.3178 56.5658C33.6092 56.4387 33.8829 56.2744 34.132 56.0768V51.8699H35.0822L35.0923 57.506Z" fill="white"/>
<path d="M39.8839 57.4556C39.6924 57.5061 39.4979 57.5448 39.3017 57.5715C39.1156 57.5999 38.9278 57.6151 38.7396 57.6169C38.5009 57.6341 38.2613 57.6017 38.0358 57.5219C37.8102 57.4421 37.6036 57.3165 37.4288 57.1531C37.1297 56.8439 36.9793 56.3474 36.9776 55.6634V52.6664H36.3374V51.8699H36.9776V50.2491H37.9279V51.8699H39.8839V52.6664H37.9279V55.2349C37.9279 55.5298 37.9279 55.7617 37.9481 55.9281C37.9602 56.092 38.0084 56.2512 38.0892 56.3944C38.1559 56.5235 38.263 56.6271 38.3942 56.6893C38.5825 56.7633 38.7846 56.796 38.9866 56.7851C39.1502 56.7841 39.313 56.7612 39.4706 56.717C39.5938 56.6857 39.715 56.647 39.8335 56.6011H39.8839V57.4556Z" fill="white"/>
<path d="M45.7039 57.506H44.7536V56.8809C44.4715 57.1094 44.1636 57.3039 43.8361 57.4607C43.5319 57.5972 43.2016 57.666 42.8682 57.6623C42.6121 57.6769 42.3559 57.636 42.1171 57.5425C41.8783 57.4489 41.6624 57.305 41.4844 57.1204C41.1541 56.7574 40.9802 56.2281 40.9802 55.5273V51.8699H41.928V55.0786C41.9266 55.3237 41.94 55.5687 41.9683 55.8122C41.9896 55.9959 42.0479 56.1734 42.1397 56.3339C42.2228 56.4756 42.3467 56.5889 42.4951 56.6591C42.696 56.7356 42.9105 56.7699 43.1253 56.7599C43.4038 56.7515 43.6776 56.6854 43.9294 56.5658C44.2208 56.4387 44.4944 56.2744 44.7435 56.0768V51.8699H45.6938L45.7039 57.506Z" fill="white"/>
<path d="M51.0881 52.9033H51.0377C50.9023 52.8713 50.7651 52.8469 50.6269 52.8302C50.4695 52.8138 50.3112 52.8063 50.153 52.8075C49.8597 52.8081 49.5703 52.8745 49.3061 53.0016C49.0247 53.1375 48.7606 53.3068 48.5196 53.5057V57.5085H47.5693V51.8698H48.5196V52.6941C48.8226 52.438 49.1572 52.222 49.5153 52.0513C49.7929 51.9274 50.0934 51.863 50.3975 51.8623C50.5169 51.8596 50.6365 51.8639 50.7554 51.8749C50.8285 51.8749 50.9394 51.8976 51.0881 51.9228V52.9033Z" fill="white"/>
<path d="M56.6991 54.7862H52.5451C52.539 55.0951 52.592 55.4023 52.7014 55.6912C52.791 55.927 52.9321 56.1399 53.1143 56.3143C53.2966 56.4887 53.5155 56.6203 53.755 56.6994C54.0113 56.7827 54.2795 56.8236 54.549 56.8204C54.9467 56.817 55.3401 56.7383 55.7085 56.5885C56.0084 56.4859 56.2888 56.3334 56.5378 56.1373H56.5882V57.1733C56.2699 57.3069 55.9432 57.4197 55.6102 57.5111C55.2675 57.6029 54.914 57.6487 54.5591 57.6472C53.624 57.6472 52.8955 57.3951 52.3687 56.891C51.8419 56.3869 51.5822 55.6634 51.5822 54.7333C51.5409 53.9312 51.812 53.1443 52.3384 52.5378C52.592 52.2681 52.9006 52.0561 53.2433 51.9161C53.586 51.776 53.9548 51.7113 54.3247 51.7262C54.6492 51.7051 54.9745 51.7535 55.2788 51.8683C55.5831 51.9831 55.8594 52.1615 56.0891 52.3916C56.4992 52.8353 56.705 53.4663 56.7067 54.2846L56.6991 54.7862ZM55.7766 54.0578C55.7996 53.6392 55.6647 53.2272 55.3985 52.9033C55.2508 52.7587 55.0737 52.6475 54.8794 52.577C54.685 52.5066 54.4778 52.4786 54.2718 52.495C54.0498 52.4838 53.8279 52.5178 53.6195 52.5949C53.4111 52.672 53.2205 52.7907 53.0593 52.9437C52.762 53.2418 52.5828 53.6376 52.5552 54.0578H55.7766Z" fill="white"/>
<path d="M62.789 50.9296H61.7202V49.9466H62.789V50.9296ZM62.7285 57.511H61.7807V51.8698H62.7285V57.511Z" fill="white"/>
<path d="M68.6344 55.8802C68.6362 56.1262 68.5791 56.369 68.4676 56.5883C68.3562 56.8076 68.1939 56.997 67.9941 57.1405C67.4864 57.499 66.873 57.6766 66.2523 57.6447C65.8642 57.6482 65.4774 57.5982 65.1029 57.4959C64.8021 57.4142 64.5094 57.3054 64.2283 57.1708V56.1045H64.2787C64.5852 56.3342 64.9253 56.5153 65.2869 56.6414C65.6245 56.7699 65.982 56.8382 66.3431 56.8431C66.6809 56.86 67.0175 56.7906 67.3211 56.6414C67.4339 56.5791 67.5269 56.4862 67.5893 56.3734C67.6517 56.2606 67.6811 56.1324 67.674 56.0037C67.6808 55.9108 67.6672 55.8175 67.6341 55.7304C67.601 55.6433 67.5492 55.5645 67.4824 55.4996C67.2606 55.3489 67.007 55.2514 66.7413 55.2148C66.6052 55.1845 66.4313 55.1492 66.2145 55.1089C65.9978 55.0686 65.7986 55.0257 65.6197 54.9778C65.218 54.8988 64.8508 54.6971 64.5686 54.4006C64.3579 54.1344 64.248 53.8023 64.2585 53.4629C64.2572 53.2365 64.3063 53.0127 64.4022 52.8075C64.5051 52.5944 64.6541 52.4067 64.8383 52.258C65.0505 52.0866 65.2947 51.9589 65.5566 51.8825C65.8735 51.786 66.2034 51.7393 66.5347 51.7438C66.8744 51.7455 67.2128 51.7869 67.5429 51.8674C67.8414 51.9319 68.1309 52.0326 68.405 52.1673V53.1756H68.352C68.0819 52.9824 67.7846 52.8304 67.4698 52.7244C67.1466 52.6061 66.8057 52.5439 66.4616 52.5404C66.1561 52.5301 65.8531 52.5987 65.5819 52.7395C65.4719 52.7938 65.3798 52.8784 65.3164 52.9834C65.2529 53.0883 65.2209 53.2092 65.2239 53.3318C65.2171 53.43 65.2332 53.5285 65.2708 53.6194C65.3084 53.7104 65.3666 53.7914 65.4407 53.8561C65.6455 54.0024 65.8808 54.1007 66.1288 54.1435C66.3028 54.1863 66.4994 54.2267 66.7161 54.267C66.9329 54.3073 67.1144 54.3426 67.2581 54.3779C67.6375 54.4492 67.9879 54.6296 68.2663 54.8972C68.3895 55.0287 68.4854 55.1832 68.5485 55.3519C68.6117 55.5206 68.6409 55.7002 68.6344 55.8802Z" fill="white"/>
<path d="M78.4271 54.6904C78.4271 55.6079 78.1919 56.333 77.7214 56.8657C77.4744 57.1163 77.1801 57.3153 76.8556 57.4511C76.531 57.5869 76.1827 57.6569 75.8309 57.6569C75.4791 57.6569 75.1308 57.5869 74.8062 57.4511C74.4817 57.3153 74.1874 57.1163 73.9404 56.8657C73.4682 56.333 73.2329 55.6079 73.2346 54.6904C73.2346 53.7704 73.469 53.047 73.9404 52.5126C74.1868 52.2611 74.481 52.0613 74.8056 51.9249C75.1302 51.7885 75.4788 51.7182 75.8309 51.7182C76.183 51.7182 76.5316 51.7885 76.8562 51.9249C77.1808 52.0613 77.4749 52.2611 77.7214 52.5126C78.1927 53.047 78.4271 53.7704 78.4271 54.6904ZM77.4491 54.6904C77.4491 53.9594 77.3063 53.4167 77.0206 53.0621C76.8698 52.8947 76.6856 52.7609 76.4797 52.6693C76.2739 52.5777 76.0511 52.5304 75.8258 52.5304C75.6006 52.5304 75.3778 52.5777 75.172 52.6693C74.9661 52.7609 74.7819 52.8947 74.6311 53.0621C74.3471 53.4167 74.2051 53.9594 74.2051 54.6904C74.2051 55.3962 74.3487 55.9331 74.6336 56.2961C74.7812 56.4677 74.9642 56.6054 75.17 56.6998C75.3757 56.7942 75.5995 56.8431 75.8258 56.8431C76.0522 56.8431 76.276 56.7942 76.4817 56.6998C76.6875 56.6054 76.8704 56.4677 77.0181 56.2961C77.3055 55.9398 77.4491 55.4046 77.4491 54.6904Z" fill="white"/>
<path d="M84.5698 57.506H83.6296V56.8809C83.3475 57.1094 83.0395 57.3039 82.7121 57.4607C82.4079 57.5972 82.0776 57.666 81.7442 57.6623C81.4881 57.6769 81.2319 57.636 80.9931 57.5425C80.7542 57.4489 80.5384 57.305 80.3603 57.1204C80.0301 56.7574 79.8562 56.2281 79.8562 55.5273V51.8699H80.804V55.0786C80.8025 55.3237 80.816 55.5687 80.8443 55.8122C80.8656 55.9959 80.9239 56.1734 81.0157 56.3339C81.0985 56.4749 81.2213 56.5881 81.3686 56.6591C81.5704 56.7353 81.7857 56.7696 82.0013 56.7599C82.2798 56.7515 82.5536 56.6854 82.8054 56.5658C83.097 56.4393 83.3708 56.2749 83.6195 56.0768V51.8699H84.5698V57.506Z" fill="white"/>
<path d="M89.9541 52.9033H89.9037C89.7682 52.8713 89.6311 52.8469 89.4928 52.8302C89.3354 52.8139 89.1772 52.8063 89.019 52.8075C88.7257 52.8081 88.4363 52.8745 88.172 53.0016C87.8906 53.1375 87.6266 53.3068 87.3856 53.5057V57.5085H86.4353V51.8698H87.3856V52.6941C87.6925 52.4371 88.0314 52.2211 88.3938 52.0513C88.6715 51.9274 88.972 51.863 89.2761 51.8623C89.3955 51.8596 89.515 51.8639 89.634 51.8749C89.7071 51.8749 89.818 51.8976 89.9667 51.9228L89.9541 52.9033Z" fill="white"/>
<path d="M94.8743 55.8802C94.8762 56.1261 94.819 56.369 94.7076 56.5883C94.5962 56.8076 94.4338 56.9969 94.2341 57.1405C93.7264 57.499 93.113 57.6765 92.4923 57.6446C92.1042 57.6482 91.7174 57.5981 91.3429 57.4959C91.0421 57.4142 90.7494 57.3053 90.4683 57.1707V56.1045H90.5187C90.8252 56.3341 91.1653 56.5152 91.5269 56.6414C91.8645 56.7699 92.2219 56.8381 92.5831 56.8431C92.9209 56.86 93.2575 56.7906 93.5611 56.6414C93.6743 56.5795 93.7676 56.4867 93.8301 56.3738C93.8926 56.2608 93.9217 56.1325 93.914 56.0037C93.9208 55.9108 93.9072 55.8175 93.8741 55.7304C93.841 55.6433 93.7892 55.5645 93.7224 55.4995C93.503 55.3465 93.251 55.2464 92.9864 55.2072C92.8528 55.1769 92.6763 55.1416 92.4596 55.1013C92.2428 55.061 92.0437 55.0181 91.8672 54.9702C91.4647 54.8917 91.0965 54.6899 90.8136 54.393C90.6029 54.1268 90.4931 53.7947 90.5035 53.4553C90.5023 53.2289 90.5514 53.0051 90.6472 52.7999C90.7502 52.5868 90.8991 52.3991 91.0833 52.2504C91.2961 52.0784 91.5413 51.9507 91.8042 51.8749C92.1202 51.7782 92.4493 51.7315 92.7797 51.7362C93.1237 51.7369 93.4663 51.7783 93.8005 51.8597C94.099 51.9243 94.3885 52.025 94.6626 52.1597V53.168H94.6122C94.336 52.9749 94.0327 52.8237 93.7123 52.7193C93.3892 52.601 93.0482 52.5388 92.7041 52.5353C92.3994 52.5248 92.0972 52.5934 91.8269 52.7344C91.7309 52.7875 91.6488 52.8623 91.5872 52.953C91.5256 53.0437 91.4862 53.1476 91.4722 53.2563C91.4582 53.3651 91.47 53.4756 91.5067 53.5789C91.5434 53.6822 91.6038 53.7754 91.6832 53.851C91.8883 53.9969 92.1234 54.0951 92.3713 54.1384C92.5453 54.1813 92.7419 54.2216 92.9587 54.2619C93.1754 54.3022 93.3569 54.3375 93.5006 54.3728C93.8839 54.4436 94.2385 54.624 94.5214 54.8921C94.7652 55.1618 94.8921 55.5171 94.8743 55.8802Z" fill="white"/>
<defs>
<linearGradient id="paint0_linear_361_870" x1="129.036" y1="71.2233" x2="129.036" y2="25.7837" gradientUnits="userSpaceOnUse">
<stop offset="0.39" stop-color="#1D1C19"/>
<stop offset="0.56" stop-color="#41403E"/>
<stop offset="0.87" stop-color="#434240"/>
</linearGradient>
<linearGradient id="paint1_linear_361_870" x1="106.638" y1="29.4715" x2="184.218" y2="29.4715" gradientUnits="userSpaceOnUse">
<stop stop-color="#C26938"/>
<stop offset="1" stop-color="#B75A47"/>
</linearGradient>
<linearGradient id="paint2_linear_361_870" x1="106.638" y1="34.7723" x2="197.613" y2="34.7723" gradientUnits="userSpaceOnUse">
<stop stop-color="#C26938"/>
<stop offset="1" stop-color="#4C2922"/>
</linearGradient>
<linearGradient id="paint3_linear_361_870" x1="13.7928" y1="38.4374" x2="13.7928" y2="11.2145" gradientUnits="userSpaceOnUse">
<stop offset="0.39" stop-color="#1D1C19"/>
<stop offset="0.56" stop-color="#41403E"/>
<stop offset="0.87" stop-color="#434240"/>
</linearGradient>
<linearGradient id="paint4_linear_361_870" x1="35.4299" y1="38.4374" x2="35.4299" y2="11.2145" gradientUnits="userSpaceOnUse">
<stop offset="0.39" stop-color="#1D1C19"/>
<stop offset="0.56" stop-color="#41403E"/>
<stop offset="0.87" stop-color="#434240"/>
</linearGradient>
<linearGradient id="paint5_linear_361_870" x1="59.2122" y1="38.4374" x2="59.2122" y2="11.2145" gradientUnits="userSpaceOnUse">
<stop offset="0.39" stop-color="#1D1C19"/>
<stop offset="0.56" stop-color="#41403E"/>
<stop offset="0.87" stop-color="#434240"/>
</linearGradient>
<linearGradient id="paint6_linear_361_870" x1="85.4773" y1="38.4374" x2="85.4773" y2="11.2145" gradientUnits="userSpaceOnUse">
<stop offset="0.39" stop-color="#1D1C19"/>
<stop offset="0.56" stop-color="#41403E"/>
<stop offset="0.87" stop-color="#434240"/>
</linearGradient>
</defs>
</svg>
