<svg width="136" height="32" viewBox="0 0 136 32" fill="none" xmlns="http://www.w3.org/2000/svg">
<path d="M130.803 29.3651C130.803 29.3651 128.748 29.9057 125.368 30.4981C127.238 25.8278 127.584 18.0086 121.051 17.0289C118.954 16.7142 116.671 17.3562 115.393 19.1116C114.545 20.2734 114.161 21.7303 114.049 23.1457C114.013 23.5288 114.005 23.9141 114.027 24.2983L121.096 23.7013C115.962 25.5812 115.176 30.0751 115.063 31.7695C113.188 31.9009 111.212 31.9885 109.172 32C109.216 32 109.123 25.3437 109.132 24.7017C109.186 20.9385 110.264 17.4196 113.274 14.9726C117.602 11.4561 124.57 12.4196 128.436 16.1564C131.922 19.5254 132.355 24.9588 130.803 29.3651Z" fill="url(#paint0_linear_742_1409)"/>
<path d="M133.714 27.8322C134.337 25.4759 134.326 22.9965 133.68 20.6461C133.035 18.2957 131.779 16.1581 130.039 14.4505C128.585 13.019 126.848 11.9062 124.94 11.1829C122.205 10.1456 119.062 10.0972 116.165 10.7092L116.029 9.05636L114.823 11.0434C114.689 11.0815 114.555 11.123 114.422 11.1587C113.324 11.497 112.263 11.9453 111.255 12.4969C111.14 12.5614 110.152 13.0201 110.152 13.1804V1.20601C111.575 0.986137 113.013 0.880528 114.453 0.890195V3.05247L116.114 0.932842C121.101 1.19333 127.985 2.78968 131.789 9.04138C138.197 19.5992 133.714 27.8322 133.714 27.8322Z" fill="url(#paint1_linear_742_1409)"/>
<path d="M133.714 27.8322C134.337 25.4759 134.326 22.9965 133.68 20.6461C133.035 18.2957 131.779 16.1581 130.039 14.4505C128.585 13.019 126.848 11.9062 124.94 11.1829C122.205 10.1456 119.062 10.0972 116.165 10.7092L116.029 9.05637L114.823 11.0435C114.689 11.0815 114.555 11.123 114.422 11.1587C113.324 11.497 112.263 11.9454 111.255 12.4969C111.14 12.5614 110.152 13.0202 110.152 13.1804V6.6048C112.097 6.08843 121.049 4.07945 127.354 8.79473C134.463 14.1209 136.112 19.7421 133.714 27.8322Z" fill="url(#paint2_linear_742_1409)"/>
<path d="M27.4055 31.5889H20.5217L18.7193 26.3631H9.15301L7.35325 31.5889H0.63501L10.1829 5.73804H17.8576L27.4055 31.5889ZM17.1166 21.6232L13.9375 12.3617L10.7557 21.6232H17.1166Z" fill="url(#paint3_linear_742_1409)"/>
<path d="M44.5915 24.001C44.6005 25.0927 44.3952 26.1755 43.9872 27.1881C43.5964 28.1576 42.9772 29.0184 42.1822 29.6972C41.2838 30.4552 40.2457 31.03 39.1265 31.3892C37.6917 31.8261 36.1962 32.031 34.6967 31.9962C33.5039 31.9962 32.3811 31.9524 31.3284 31.8648C30.3964 31.7945 29.4691 31.6708 28.5513 31.4943V26.2658H29.1766C29.731 26.476 30.3116 26.6678 30.9133 26.8491C31.6661 27.0446 32.4427 27.133 33.2201 27.1119C34.4375 27.1119 35.3729 26.9498 36.0262 26.6258C36.6327 26.3469 37.1252 25.8683 37.4213 25.2701C37.6936 24.6832 37.8472 24.0484 37.8733 23.402C37.9083 22.7241 37.9258 21.858 37.9258 20.8035V10.4962H32.0063V5.73804H44.5915V24.001Z" fill="url(#paint4_linear_742_1409)"/>
<path d="M74.7485 31.5889H67.8621L66.0571 26.3631H56.496L54.6963 31.5889H47.978L57.526 5.73804H65.2006L74.7485 31.5889ZM64.4596 21.6232L61.2805 12.3617L58.0987 21.6232H64.4596Z" fill="url(#paint5_linear_742_1409)"/>
<path d="M101.9 31.5889H94.1832L88.621 23.1025L82.9485 31.5889H75.5918L84.7588 18.565L75.7783 5.73804H83.474L88.8496 13.7857L94.3671 5.73804H101.753L92.7408 18.2943L101.9 31.5889Z" fill="url(#paint6_linear_742_1409)"/>
<defs>
<linearGradient id="paint0_linear_742_1409" x1="120.394" y1="33.4523" x2="120.394" y2="12.6744" gradientUnits="userSpaceOnUse">
<stop offset="0.39" stop-color="#1D1C19"/>
<stop offset="0.56" stop-color="#41403E"/>
<stop offset="0.87" stop-color="#434240"/>
</linearGradient>
<linearGradient id="paint1_linear_742_1409" x1="110.152" y1="14.3606" x2="145.627" y2="14.3606" gradientUnits="userSpaceOnUse">
<stop stop-color="#DA2C14"/>
<stop offset="1" stop-color="#B75A47"/>
</linearGradient>
<linearGradient id="paint2_linear_742_1409" x1="110.152" y1="16.7845" x2="135.525" y2="1.99356" gradientUnits="userSpaceOnUse">
<stop stop-color="#C62A15"/>
<stop offset="1" stop-color="#4C2922"/>
</linearGradient>
<linearGradient id="paint3_linear_742_1409" x1="14.0189" y1="34.7392" x2="14.0189" y2="6.36336" gradientUnits="userSpaceOnUse">
<stop offset="0.39" stop-color="#1D1C19"/>
<stop offset="0.56" stop-color="#41403E"/>
<stop offset="0.87" stop-color="#434240"/>
</linearGradient>
<linearGradient id="paint4_linear_742_1409" x1="36.5727" y1="34.7392" x2="36.5727" y2="6.36336" gradientUnits="userSpaceOnUse">
<stop offset="0.39" stop-color="#1D1C19"/>
<stop offset="0.56" stop-color="#41403E"/>
<stop offset="0.87" stop-color="#434240"/>
</linearGradient>
<linearGradient id="paint5_linear_742_1409" x1="61.362" y1="34.7392" x2="61.362" y2="6.36336" gradientUnits="userSpaceOnUse">
<stop offset="0.39" stop-color="#1D1C19"/>
<stop offset="0.56" stop-color="#41403E"/>
<stop offset="0.87" stop-color="#434240"/>
</linearGradient>
<linearGradient id="paint6_linear_742_1409" x1="88.7393" y1="34.7392" x2="88.7393" y2="6.36336" gradientUnits="userSpaceOnUse">
<stop offset="0.39" stop-color="#1D1C19"/>
<stop offset="0.56" stop-color="#41403E"/>
<stop offset="0.87" stop-color="#434240"/>
</linearGradient>
</defs>
</svg>
