<svg width="157" height="223" viewBox="0 0 157 223" fill="none" xmlns="http://www.w3.org/2000/svg">
<path d="M1.52463 220.044C1.17018 220.044 0.874813 219.926 0.638516 219.689C0.402219 219.414 0.284071 219.118 0.284071 218.803C0.284071 218.606 0.303762 218.429 0.343145 218.271L14.4028 180.287C14.521 179.854 14.7573 179.479 15.1117 179.164C15.4661 178.849 15.9584 178.692 16.5886 178.692H24.15C24.7802 178.692 25.2725 178.849 25.6269 179.164C25.9814 179.479 26.2176 179.854 26.3358 180.287L40.3955 218.271C40.4348 218.429 40.4545 218.606 40.4545 218.803C40.4545 219.118 40.3364 219.414 40.1001 219.689C39.8638 219.926 39.5684 220.044 39.214 220.044H33.0703C32.4795 220.044 32.0463 219.906 31.7706 219.63C31.4949 219.355 31.3177 219.099 31.239 218.862L28.6988 212.246H12.0398L9.49965 218.862C9.42088 219.099 9.24366 219.355 8.96798 219.63C8.6923 219.906 8.25909 220.044 7.66835 220.044H1.52463ZM14.2256 204.625H26.4539L20.3693 187.612L14.2256 204.625ZM79.221 220.044C78.8666 220.044 78.5712 219.926 78.3349 219.689C78.0986 219.414 77.9805 219.118 77.9805 218.803C77.9805 218.606 78.0002 218.429 78.0396 218.271L92.0992 180.287C92.2174 179.854 92.4537 179.479 92.8081 179.164C93.1626 178.849 93.6548 178.692 94.285 178.692H101.846C102.477 178.692 102.969 178.849 103.323 179.164C103.678 179.479 103.914 179.854 104.032 180.287L118.092 218.271C118.131 218.429 118.151 218.606 118.151 218.803C118.151 219.118 118.033 219.414 117.797 219.689C117.56 219.926 117.265 220.044 116.91 220.044H110.767C110.176 220.044 109.743 219.906 109.467 219.63C109.191 219.355 109.014 219.099 108.935 218.862L106.395 212.246H89.7363L87.1961 218.862C87.1173 219.099 86.9401 219.355 86.6644 219.63C86.3887 219.906 85.9555 220.044 85.3648 220.044H79.221ZM91.922 204.625H104.15L98.0657 187.612L91.922 204.625ZM119.516 220.044C119.161 220.044 118.866 219.926 118.63 219.689C118.393 219.414 118.275 219.118 118.275 218.803C118.275 218.685 118.295 218.567 118.334 218.449C118.374 218.331 118.413 218.212 118.452 218.094L131.508 198.954L119.338 180.641C119.22 180.405 119.161 180.169 119.161 179.932C119.161 179.617 119.279 179.342 119.516 179.105C119.752 178.83 120.047 178.692 120.402 178.692H127.668C128.18 178.692 128.574 178.83 128.849 179.105C129.164 179.381 129.401 179.637 129.558 179.873L137.474 191.629L145.449 179.873C145.607 179.637 145.843 179.381 146.158 179.105C146.473 178.83 146.887 178.692 147.399 178.692H154.31C154.625 178.692 154.901 178.83 155.137 179.105C155.413 179.342 155.551 179.617 155.551 179.932C155.551 180.208 155.472 180.444 155.315 180.641L143.145 198.895L156.26 218.094C156.339 218.212 156.378 218.331 156.378 218.449C156.417 218.567 156.437 218.685 156.437 218.803C156.437 219.118 156.319 219.414 156.083 219.689C155.846 219.926 155.551 220.044 155.196 220.044H147.694C147.182 220.044 146.769 219.906 146.453 219.63C146.178 219.355 145.961 219.118 145.804 218.921L137.179 206.516L128.613 218.921C128.495 219.118 128.278 219.355 127.963 219.63C127.688 219.906 127.274 220.044 126.723 220.044H119.516Z" fill="white"/>
<path d="M57.8874 220.634C55.682 220.634 53.5947 220.359 51.6256 219.807C49.6564 219.256 47.9039 218.429 46.368 217.326C44.832 216.184 43.6112 214.786 42.7054 213.132C41.8389 211.478 41.3663 209.548 41.2876 207.343C41.2876 206.988 41.4057 206.693 41.642 206.457C41.8783 206.181 42.1934 206.043 42.5872 206.043H49.3217C49.8336 206.043 50.2275 206.181 50.5031 206.457C50.8182 206.732 51.0545 207.126 51.212 207.638C51.4089 208.898 51.8225 209.922 52.4526 210.71C53.0827 211.498 53.8704 212.088 54.8156 212.482C55.8001 212.837 56.9029 213.014 58.1237 213.014C60.3685 213.014 62.0817 212.285 63.2632 210.828C64.484 209.371 65.0945 207.303 65.0945 204.625V186.549H45.4228C45.0289 186.549 44.6942 186.411 44.4185 186.135C44.1428 185.859 44.005 185.525 44.005 185.131V180.169C44.005 179.735 44.1428 179.381 44.4185 179.105C44.6942 178.83 45.0289 178.692 45.4228 178.692H73.2467C73.6799 178.692 74.0344 178.83 74.3101 179.105C74.5857 179.381 74.7236 179.735 74.7236 180.169V204.862C74.7236 208.249 74.0147 211.123 72.5969 213.486C71.1791 215.81 69.21 217.582 66.6895 218.803C64.169 220.024 61.235 220.634 57.8874 220.634Z" fill="#EA4C36"/>
<path d="M148.643 122.418C148.643 126.27 148.472 130.088 148.126 133.849L141.301 134.892L132.992 136.173C133.087 134.49 133.134 132.797 133.131 131.095C133.131 82.4881 94.7962 43.106 47.5265 43.106C45.484 43.106 43.4533 43.1756 41.4506 43.3188V35.1953L34.2479 44.1292C26.2525 45.3998 18.4756 47.8419 11.1545 51.381L11.1545 2.28754C17.4628 1.23515 23.8436 0.708234 30.2344 0.711933H31.2418V10.7058L39.0019 1.03933C100.303 5.65157 148.643 58.236 148.643 122.418Z" fill="#EA4C36"/>
<path d="M118.821 122.418C118.82 127.886 118.151 133.332 116.83 138.628L94.7006 142.009C96.4229 137.056 97.2553 131.822 97.1573 126.564C97.1235 124.463 96.9385 122.367 96.6038 120.294C94.8775 109.431 89.2251 99.6383 80.7769 92.8743C80.7769 92.8743 80.7451 92.8457 80.7212 92.8252C79.2018 91.615 77.6056 90.5104 75.9433 89.5185C70.6634 86.5819 64.6393 85.3659 58.6711 86.032C52.7029 86.6981 47.0731 89.2147 42.5295 93.2476C37.9858 97.2805 34.7434 102.639 33.2329 108.611C31.7224 114.583 32.0153 120.886 34.0727 126.682L67.2952 118.706C73.9326 131.164 38.8426 131.164 40.6463 150.259L11.1545 154.761V102.205C11.1545 77.4374 30.529 57.1632 54.6257 56.9668H55.1354C72.0229 56.9722 88.2174 63.8694 100.159 76.1425C112.101 88.4156 118.814 105.06 118.821 122.418Z" fill="white"/>
</svg>
