<svg width="31" height="30" viewBox="0 0 31 30" fill="none" xmlns="http://www.w3.org/2000/svg">
<path d="M30.0762 15C30.0762 23.2875 23.3637 30 15.0762 30C6.78867 30 0.0761719 23.2875 0.0761719 15C0.0761719 6.7125 6.78867 0 15.0762 0C23.3637 0 30.0762 6.7125 30.0762 15Z" fill="url(#paint0_linear_188_86)"/>
<path d="M12.5761 18.0501L18.6261 22.5126C19.3136 22.8876 19.8136 22.7001 19.9886 21.8751L22.4511 10.2751C22.7011 9.26255 22.0636 8.81256 21.4011 9.11256L6.95109 14.6876C5.96359 15.0876 5.97609 15.6376 6.77609 15.8751L10.4886 17.0376L19.0761 11.6251C19.4761 11.3751 19.8511 11.5126 19.5511 11.7876L12.5761 18.0501Z" fill="url(#paint1_linear_188_86)"/>
<defs>
<linearGradient id="paint0_linear_188_86" x1="19.4724" y1="4.74125" x2="11.9724" y2="22.241" gradientUnits="userSpaceOnUse">
<stop stop-color="#37AEE2"/>
<stop offset="1" stop-color="#1E96C8"/>
</linearGradient>
<linearGradient id="paint1_linear_188_86" x1="16.2" y1="15.4694" x2="19.325" y2="20.4694" gradientUnits="userSpaceOnUse">
<stop stop-color="#EFF7FC"/>
<stop offset="1" stop-color="white"/>
</linearGradient>
</defs>
</svg>
