<svg width="30" height="30" viewBox="0 0 30 30" fill="none" xmlns="http://www.w3.org/2000/svg">
<path d="M15.4241 30C23.4322 30 29.9241 23.2843 29.9241 15C29.9241 6.71573 23.4322 0 15.4241 0C7.41594 0 0.924072 6.71573 0.924072 15C0.924072 23.2843 7.41594 30 15.4241 30Z" fill="#2DAAE1"/>
<path d="M24.7211 9.03305C24.0371 9.34701 23.3025 9.55925 22.5302 9.65465C23.3184 9.16634 23.9223 8.39256 24.2074 7.47162C23.4587 7.9317 22.6392 8.25559 21.7846 8.42923C21.0891 7.66237 20.0974 7.18359 19.0002 7.18359C16.8943 7.18359 15.1863 8.94972 15.1863 11.1296C15.1863 11.4384 15.22 11.7398 15.2846 12.0291C12.1143 11.8643 9.30371 10.2933 7.4224 7.90624C7.0939 8.48923 6.90587 9.16706 6.90587 9.89027C6.90587 11.2591 7.57937 12.4669 8.60274 13.1743C7.99692 13.1549 7.4044 12.9857 6.8747 12.681V12.7308C6.8747 14.6429 8.18935 16.2372 9.93447 16.5998C9.6139 16.6907 9.27747 16.7382 8.92942 16.7382C8.68334 16.7382 8.44459 16.7141 8.21136 16.6687C8.69678 18.2359 10.1055 19.3766 11.7742 19.4089C10.4687 20.4675 8.82376 21.0986 7.03713 21.0986C6.72941 21.0986 6.42528 21.0796 6.12671 21.0424C7.81506 22.1623 9.8197 22.8161 11.9739 22.8161C18.9899 22.8161 22.8269 16.8033 22.8269 11.5889C22.8269 11.4177 22.8233 11.2478 22.8153 11.0784C23.5629 10.5191 24.2082 9.82646 24.7211 9.03305Z" fill="white"/>
</svg>
